M48
;Layer_Color=6321
;FILE_FORMAT=2:4
INCH
;TYPE=PLATED
T1F00S00C0.0130
T2F00S00C0.0350
T3F00S00C0.0354
T4F00S00C0.0374
T5F00S00C0.0390
T6F00S00C0.0420
T7F00S00C0.0984
T8F00S00C0.1339
;TYPE=NON_PLATED
T9F00S00C0.4724
%
T01
X013800Y013000
Y014450
X014725Y014105
X014750Y013650
X015200Y014050
X016965Y013835
X017551Y013597
X017900Y013885
X018055Y014455
X017235Y014535
X016915Y015165
X016750Y015500
X016400Y015050
X017950Y015500
X018900Y015450
Y014850
X019230Y014884
X019050Y014533
X019721Y014399
X020051
X020250Y013700
X020850Y013900
Y013450
X021350Y013850
X020950Y014300
X021000Y014900
X022050Y014750
X022500Y014650
X022100Y014250
X022325Y013975
X023500Y013950
X023450Y014350
X023550Y014800
X023654Y015304
X024285Y014635
X025250Y014250
X025450Y013250
X025150Y013050
X025982Y012532
X026750Y013450
X027500Y014050
Y015300
X028000Y015400
X026563Y015500
X030050Y015000
X029750Y014450
X029300Y013600
X028500Y013250
X030900Y015350
X022524Y015549
X022194Y015535
X019450Y015300
X019574Y013122
X020253Y012890
X020300Y012050
X020650Y011850
X021000Y011950
X021650
X022800Y012500
X023750Y012300
X024150Y012400
X019650Y011950
X019050Y012500
X018500Y012800
X018050Y013300
X016056Y012356
X015732Y012132
X032495Y013950
X031900Y017500
X031600Y017850
X032793Y020243
X032650Y020700
X032400Y020950
X032200Y022350
X035100Y023000
X035350Y019250
X036595Y019700
X037100Y020450
X031000Y020100
X030250Y016950
X029527Y016523
X028622Y016592
X028700Y016200
X027500Y016481
X027242Y016758
X026400Y016700
X025950Y016500
X026000Y016950
X024900
Y017550
X024800Y017900
X024050Y017100
X022628Y017184
X021900Y016500
X021450Y016600
X020283Y016523
X020600Y016200
X020950Y015850
X019750Y016200
X019407Y016523
X019150Y015700
X018500Y016800
X018200Y017650
X017450Y017350
X016700Y017500
X016500Y016850
X017100Y018950
X018779Y018643
X018950Y019850
X019550Y019650
X019700Y018000
X020270Y017837
X021600Y017750
X021650Y018300
X022250Y018650
X023100Y019200
X023150Y019900
X023200Y020350
X022589Y020350
X022750Y020850
X022900Y021850
X022050Y022050
X021250Y021500
X020642Y021808
X018803Y021688
X018750Y021050
X018500Y020457
X018650Y023250
X023600Y022457
X024217Y022467
X024650Y022500
X025250Y022050
X025600Y021800
X027000Y020650
X027500Y019200
X026250Y019350
X026100Y018900
X026150Y018500
X023342Y015628
X025045Y024095
X026350Y024550
X029471Y024650
X029450Y023750
X029600Y022700
X029200Y022250
X027885Y022785
X014581Y022781
X012900Y022750
X012250Y021900
X014200Y021300
X014350Y020650
X013955Y020195
X013435Y019565
X015000Y019300
X015093Y018307
X014728Y018128
X014866Y017484
X015150Y016800
X015350Y016282
X014400Y016400
X013850Y016550
X013622Y016922
X011850Y017200
X012000Y018800
X015325Y020325
X014900Y024500
T02
X028000Y021000
X029000
T03
X021000Y022200
Y023200
Y024200
T04
X032234Y023187
X032559Y024250
X029941
X030266Y023187
T05
X012008Y011000
X013008
X014370
X015370
X016732
X017732
X019094
X020094
X021457
X022457
X023819
X024819
X026181
X027181
X028543
X029543
X030906
X031906
X033268
X034268
X035630
X036630
X037992
X038992
X035731Y020939
X036070Y021750
X033770
X034109Y022561
X015750Y019750
Y018750
Y017750
Y016750
Y015750
T06
X022500Y018000
T07
X039055Y016291
Y021213
X030787
Y016291
T08
X011500Y013500
X038500Y023500
X011500
T09
X034921Y016331
M30
