G04*
G04 #@! TF.GenerationSoftware,Altium Limited,CircuitStudio,1.5.1 (13)*
G04*
G04 Layer_Physical_Order=1*
G04 Layer_Color=39423*
%FSAX24Y24*%
%MOIN*%
G70*
G01*
G75*
%ADD10R,0.0709X0.0394*%
%ADD11R,0.1299X0.0197*%
%ADD12R,0.1299X0.0512*%
%ADD13R,0.0197X0.0197*%
%ADD14R,0.0394X0.0138*%
%ADD15R,0.0354X0.0138*%
%ADD16R,0.0315X0.0709*%
%ADD17R,0.0299X0.0299*%
%ADD18R,0.0217X0.0315*%
%ADD19R,0.0315X0.0354*%
%ADD20R,0.0512X0.0236*%
%ADD21R,0.0492X0.0480*%
%ADD22R,0.0236X0.0512*%
%ADD23R,0.0591X0.0591*%
%ADD24R,0.0079X0.0335*%
%ADD25R,0.0335X0.0079*%
%ADD26O,0.0335X0.0079*%
%ADD27R,0.0945X0.0945*%
%ADD28R,0.0138X0.0295*%
%ADD29R,0.1260X0.0512*%
%ADD30R,0.0295X0.0709*%
%ADD31R,0.0266X0.0098*%
%ADD32R,0.0098X0.0226*%
%ADD33R,0.0157X0.0157*%
%ADD34R,0.0236X0.0283*%
%ADD35R,0.0394X0.0512*%
%ADD36R,0.0394X0.0394*%
%ADD37R,0.0315X0.0354*%
%ADD38R,0.0118X0.0197*%
%ADD39R,0.0591X0.0591*%
%ADD40R,0.0512X0.0394*%
%ADD41R,0.0354X0.0315*%
%ADD42R,0.0276X0.0354*%
%ADD43R,0.0354X0.0276*%
%ADD44R,0.0315X0.0217*%
%ADD45R,0.0394X0.0709*%
%ADD46C,0.0060*%
%ADD47C,0.0080*%
%ADD48C,0.0530*%
%ADD49C,0.0700*%
%ADD50R,0.0700X0.0700*%
%ADD51C,0.0550*%
%ADD52R,0.0550X0.0550*%
%ADD53C,0.1181*%
%ADD54R,0.0650X0.0650*%
%ADD55C,0.0750*%
%ADD56C,0.1969*%
%ADD57C,0.0591*%
%ADD58C,0.0600*%
%ADD59R,0.0600X0.0600*%
%ADD60C,0.0650*%
%ADD61C,0.0270*%
G36*
X030250Y018000D02*
X030400Y017800D01*
X031350D01*
Y017200D01*
X031250Y017100D01*
X030400D01*
X030000Y017500D01*
X029400D01*
Y018200D01*
X029250Y018350D01*
Y018400D01*
X028450D01*
Y019000D01*
X029350D01*
X029500Y019150D01*
Y019500D01*
X028350D01*
Y020500D01*
X030250D01*
Y018000D01*
D02*
G37*
D10*
X027000Y018242D02*
D03*
Y017258D02*
D03*
D11*
X028500Y018130D02*
D03*
Y019232D02*
D03*
D12*
Y018681D02*
D03*
D13*
X020750Y018130D02*
D03*
X020435D02*
D03*
Y017815D02*
D03*
Y017500D02*
D03*
Y017185D02*
D03*
Y016870D02*
D03*
X020750D02*
D03*
X021065D02*
D03*
Y017185D02*
D03*
Y017500D02*
D03*
Y017815D02*
D03*
Y018130D02*
D03*
D14*
X024754Y015262D02*
D03*
D15*
X024774Y015538D02*
D03*
X024026Y015262D02*
D03*
Y015538D02*
D03*
D16*
X021250Y013250D02*
D03*
X021750D02*
D03*
X022250D02*
D03*
X022750D02*
D03*
D17*
X018750Y017548D02*
D03*
X019124Y018450D02*
D03*
X018376D02*
D03*
X039000Y019902D02*
D03*
X038626Y019000D02*
D03*
X039374D02*
D03*
X016250Y013598D02*
D03*
X016624Y014500D02*
D03*
X015876Y014500D02*
D03*
D18*
X019750Y022028D02*
D03*
X019376D02*
D03*
X020124D02*
D03*
Y022972D02*
D03*
X019376D02*
D03*
D19*
X018250Y017144D02*
D03*
X018624Y016356D02*
D03*
X017876D02*
D03*
X038000Y018644D02*
D03*
X038374Y017856D02*
D03*
X037626D02*
D03*
X015750Y013144D02*
D03*
X016124Y012356D02*
D03*
X015376D02*
D03*
D20*
X032793Y018250D02*
D03*
Y018750D02*
D03*
Y019250D02*
D03*
Y019750D02*
D03*
X030707Y018250D02*
D03*
Y018750D02*
D03*
Y019250D02*
D03*
Y019750D02*
D03*
D21*
X027929Y024250D02*
D03*
X029071D02*
D03*
X027929Y023250D02*
D03*
X029071D02*
D03*
D22*
X018500Y022543D02*
D03*
X018000D02*
D03*
X017500D02*
D03*
X017000D02*
D03*
X018500Y020457D02*
D03*
X018000Y020457D02*
D03*
X017500D02*
D03*
X017000Y020457D02*
D03*
D23*
X029189Y014600D02*
D03*
X027811D02*
D03*
D24*
X026278Y014018D02*
D03*
X026435D02*
D03*
X026593D02*
D03*
X026750D02*
D03*
X026907D02*
D03*
X027065D02*
D03*
X027222D02*
D03*
Y012482D02*
D03*
X027065D02*
D03*
X026907D02*
D03*
X026750D02*
D03*
X026593D02*
D03*
X026435D02*
D03*
X026278D02*
D03*
D25*
X027518Y013722D02*
D03*
Y013565D02*
D03*
Y013407D02*
D03*
Y013250D02*
D03*
Y013093D02*
D03*
Y012935D02*
D03*
Y012778D02*
D03*
X025982D02*
D03*
Y012935D02*
D03*
Y013093D02*
D03*
Y013250D02*
D03*
Y013407D02*
D03*
Y013565D02*
D03*
D26*
Y013722D02*
D03*
D27*
X026750Y013250D02*
D03*
D28*
X015945Y024222D02*
D03*
X015630D02*
D03*
X015315D02*
D03*
X015000D02*
D03*
X014685D02*
D03*
X014370D02*
D03*
X014055D02*
D03*
X015945Y023278D02*
D03*
X015630D02*
D03*
X015315D02*
D03*
X015000D02*
D03*
X014685D02*
D03*
X014370D02*
D03*
X014055D02*
D03*
D29*
X011000Y019831D02*
D03*
Y016169D02*
D03*
D30*
X029190Y016550D02*
D03*
X027910D02*
D03*
D31*
X024386Y016614D02*
D03*
Y016811D02*
D03*
Y017008D02*
D03*
Y017205D02*
D03*
Y017402D02*
D03*
Y017598D02*
D03*
Y017795D02*
D03*
Y017992D02*
D03*
Y018189D02*
D03*
Y018386D02*
D03*
X025614Y016614D02*
D03*
Y016811D02*
D03*
Y017008D02*
D03*
Y017205D02*
D03*
Y017402D02*
D03*
Y017598D02*
D03*
Y017795D02*
D03*
Y017992D02*
D03*
Y018189D02*
D03*
Y018386D02*
D03*
D32*
X025295Y018409D02*
D03*
X025098D02*
D03*
X024902D02*
D03*
X024705D02*
D03*
Y016591D02*
D03*
X024902D02*
D03*
X025098D02*
D03*
X025295D02*
D03*
D33*
X017278Y013972D02*
D03*
Y013657D02*
D03*
Y013343D02*
D03*
Y013028D02*
D03*
X018222D02*
D03*
Y013343D02*
D03*
Y013657D02*
D03*
Y013972D02*
D03*
D34*
X021724Y021573D02*
D03*
Y021191D02*
D03*
Y020809D02*
D03*
Y020427D02*
D03*
X022276Y021573D02*
D03*
Y021191D02*
D03*
Y020809D02*
D03*
Y020427D02*
D03*
D35*
X023185Y020750D02*
D03*
X023815D02*
D03*
X017685Y023250D02*
D03*
X018315D02*
D03*
X019435Y020750D02*
D03*
X020065D02*
D03*
X019435Y021500D02*
D03*
X020065D02*
D03*
X019435Y023500D02*
D03*
X020065D02*
D03*
X019435Y024250D02*
D03*
X020065D02*
D03*
X030435Y014250D02*
D03*
X031065D02*
D03*
X030435Y015000D02*
D03*
X031065D02*
D03*
X024565Y012900D02*
D03*
X023935D02*
D03*
X034815Y019250D02*
D03*
X034185D02*
D03*
X018315Y024000D02*
D03*
X017685D02*
D03*
X020465Y014850D02*
D03*
X019835D02*
D03*
X028565Y017600D02*
D03*
X027935D02*
D03*
X024435Y020750D02*
D03*
X025065D02*
D03*
X026315D02*
D03*
X025685D02*
D03*
X023185Y018750D02*
D03*
X023815D02*
D03*
X018065Y012550D02*
D03*
X017435D02*
D03*
X024915Y013800D02*
D03*
X024285D02*
D03*
X024915Y014500D02*
D03*
X024285D02*
D03*
X036065Y024150D02*
D03*
X035435D02*
D03*
X034715Y024200D02*
D03*
X034085D02*
D03*
D36*
X013134Y014620D02*
D03*
Y015880D02*
D03*
X014866D02*
D03*
Y014620D02*
D03*
X013134Y020620D02*
D03*
Y021880D02*
D03*
X014866D02*
D03*
Y020620D02*
D03*
X013134Y017620D02*
D03*
Y018880D02*
D03*
X014866D02*
D03*
Y017620D02*
D03*
D37*
X019974Y015750D02*
D03*
X020526D02*
D03*
X022974Y024250D02*
D03*
X023526D02*
D03*
D38*
X012000Y017862D02*
D03*
Y018138D02*
D03*
D39*
X025200Y012500D02*
D03*
X022500Y019500D02*
D03*
X021000Y024200D02*
D03*
D40*
X023500Y022065D02*
D03*
Y021435D02*
D03*
X024250Y022065D02*
D03*
X024250Y021435D02*
D03*
X026250Y022065D02*
D03*
Y021435D02*
D03*
X027000Y022065D02*
D03*
Y021435D02*
D03*
X026100Y014685D02*
D03*
Y015315D02*
D03*
X017000Y023435D02*
D03*
Y024065D02*
D03*
X027000Y019565D02*
D03*
Y018935D02*
D03*
X017350Y014535D02*
D03*
Y015165D02*
D03*
X020000Y018935D02*
D03*
Y019565D02*
D03*
X020750Y018935D02*
D03*
Y019565D02*
D03*
X022000Y022685D02*
D03*
Y023315D02*
D03*
D41*
X019250Y014026D02*
D03*
Y013474D02*
D03*
D42*
X025045Y024250D02*
D03*
X024455D02*
D03*
X018205Y015500D02*
D03*
X018795D02*
D03*
X012655Y012300D02*
D03*
X013245D02*
D03*
X021455Y015400D02*
D03*
X022045D02*
D03*
X028795Y013750D02*
D03*
X028205D02*
D03*
X023205Y017000D02*
D03*
X023795D02*
D03*
X023205Y017500D02*
D03*
X023795D02*
D03*
X023205Y016000D02*
D03*
X023795D02*
D03*
X023205Y016500D02*
D03*
X023795D02*
D03*
X024205Y016000D02*
D03*
X024795D02*
D03*
X023795Y018000D02*
D03*
X023205D02*
D03*
X025205Y016000D02*
D03*
X025795D02*
D03*
X019205Y017000D02*
D03*
X019795D02*
D03*
X022295Y017000D02*
D03*
X021705D02*
D03*
X014295Y013500D02*
D03*
X013705D02*
D03*
X013705Y012500D02*
D03*
X014295D02*
D03*
X021455Y014750D02*
D03*
X022045D02*
D03*
X018205Y015000D02*
D03*
X018795D02*
D03*
D43*
X016250Y021705D02*
D03*
Y022295D02*
D03*
X016250Y021295D02*
D03*
Y020705D02*
D03*
X019750Y014045D02*
D03*
Y013455D02*
D03*
X015500Y021295D02*
D03*
Y020705D02*
D03*
X033500Y019205D02*
D03*
Y019795D02*
D03*
X027100Y014705D02*
D03*
Y015295D02*
D03*
X025500Y019795D02*
D03*
Y019205D02*
D03*
X015500Y021705D02*
D03*
Y022295D02*
D03*
X025000Y019205D02*
D03*
Y019795D02*
D03*
X024400Y019205D02*
D03*
Y019795D02*
D03*
X016750Y013045D02*
D03*
Y012455D02*
D03*
X037500Y020545D02*
D03*
Y019955D02*
D03*
X037000Y018705D02*
D03*
Y019295D02*
D03*
X012500Y018295D02*
D03*
Y017705D02*
D03*
X017500Y018295D02*
D03*
Y017705D02*
D03*
X022750Y023295D02*
D03*
Y022705D02*
D03*
X017000Y016455D02*
D03*
Y017045D02*
D03*
X025500Y014705D02*
D03*
Y015295D02*
D03*
X032650Y014105D02*
D03*
Y014695D02*
D03*
D44*
X024778Y021750D02*
D03*
Y022124D02*
D03*
Y021376D02*
D03*
X025722D02*
D03*
Y022124D02*
D03*
D45*
X016758Y019500D02*
D03*
X017742D02*
D03*
D46*
X032495Y013950D02*
X032650Y014105D01*
X032700Y018750D02*
X032792D01*
X032400Y014945D02*
X032650Y014695D01*
X032400Y014945D02*
Y017900D01*
X032450Y017950D01*
X032125Y016175D02*
Y017593D01*
X031918Y017800D02*
X032125Y017593D01*
X032180Y017708D02*
X032245Y017643D01*
Y014745D02*
Y017643D01*
X031350Y016950D02*
X031900Y017500D01*
X031600Y017800D02*
Y017850D01*
X032450Y017950D02*
Y018089D01*
X032447Y018092D02*
X032450Y018089D01*
X032447Y018092D02*
Y018405D01*
X032792Y018750D01*
X032793D01*
X036020Y024650D02*
X036024Y024646D01*
X029471Y024650D02*
X036020D01*
X035970Y024530D02*
X036065Y024435D01*
X034600Y023450D02*
X035285D01*
X034085Y023965D02*
X034600Y023450D01*
X034085Y023965D02*
Y024300D01*
X036065Y022837D02*
Y024435D01*
X034715Y024300D02*
X034945Y024530D01*
X035970D01*
X035285Y023450D02*
X035435Y023300D01*
Y024300D01*
Y022385D02*
Y023300D01*
Y022385D02*
X036070Y021750D01*
X036065Y022837D02*
X038002Y020900D01*
X037150Y021950D02*
X038959Y020141D01*
X037150Y021950D02*
Y024545D01*
X037049Y024646D02*
X037150Y024545D01*
X036024Y024646D02*
X037049D01*
X039187Y020141D02*
X039614Y019714D01*
X038959Y020141D02*
X039187D01*
X019139Y018949D02*
X019986D01*
X019587Y019102D02*
X019707Y019222D01*
X019156Y019102D02*
X019587D01*
X019149Y019108D02*
X019156Y019102D01*
X018368Y019108D02*
X019149D01*
X019190Y019335D02*
X019325Y019470D01*
X018425Y019335D02*
X019190D01*
X019000Y019582D02*
X019175Y019757D01*
X018900Y019582D02*
X019000D01*
X018725Y019757D02*
X018900Y019582D01*
X018950Y019850D02*
Y020500D01*
X019100Y018988D02*
X019139Y018949D01*
X018538Y018988D02*
X019100D01*
X019086Y018198D02*
X020023Y017261D01*
X019205Y017000D02*
Y017740D01*
X018987Y017958D02*
X019205Y017740D01*
X025369Y015722D02*
X025433Y015786D01*
X024754Y015262D02*
X025062D01*
X025315Y015722D02*
X025369D01*
X025113Y015520D02*
X025315Y015722D01*
X025113Y015313D02*
Y015520D01*
X025062Y015262D02*
X025113Y015313D01*
X024646Y014846D02*
X024946D01*
X024572Y014772D02*
X024646Y014846D01*
X024572Y013507D02*
Y014772D01*
X024946Y014846D02*
X025233Y015133D01*
X024915Y014562D02*
X025353Y015000D01*
X024915Y014500D02*
Y014562D01*
X023205Y017000D02*
Y017500D01*
X022915Y016896D02*
Y018423D01*
X022165Y016145D02*
X022915Y016896D01*
X022553Y017184D02*
X022628D01*
X021600Y017695D02*
X022295Y017000D01*
X021600Y017695D02*
Y017750D01*
X022524Y014945D02*
Y015549D01*
X020311Y017930D02*
X020426Y017815D01*
X020270Y017837D02*
Y017889D01*
X020311Y017930D01*
X020435Y018620D02*
X020750Y018935D01*
X020435Y018130D02*
Y018620D01*
X019250Y018450D02*
X019700Y018000D01*
X019707Y019222D02*
X021043D01*
X020000Y018935D02*
X020750D01*
X019666Y019852D02*
X021043D01*
X019643Y019875D02*
X019666Y019852D01*
X019457Y019875D02*
X019643D01*
X019325Y019743D02*
X019457Y019875D01*
X019325Y019470D02*
Y019743D01*
X019407Y019995D02*
X021173D01*
X019175Y019763D02*
X019407Y019995D01*
X019175Y019757D02*
Y019763D01*
X019385Y020115D02*
X021223D01*
X019148Y020352D02*
X019385Y020115D01*
X019550Y019650D02*
X019915D01*
X021043Y019222D02*
X021096Y019169D01*
X020426Y017815D02*
X020435D01*
X020750Y018121D02*
X021056Y017815D01*
X022085Y017515D02*
X022333Y017267D01*
X022085Y017515D02*
Y018217D01*
X018748Y016694D02*
X019607Y015835D01*
X018748Y016694D02*
Y017597D01*
X018097Y016050D02*
X018447Y015699D01*
X017150Y016050D02*
X018097D01*
X017725Y015037D02*
Y015770D01*
X017565Y015930D02*
X017725Y015770D01*
X017100Y015930D02*
X017565D01*
X017725Y015037D02*
X018030Y014733D01*
X017057Y014822D02*
X017643D01*
X017170Y014150D02*
X017872D01*
X017615Y013343D02*
X017809Y013537D01*
X018250Y014230D02*
X018623Y013857D01*
X017962Y014230D02*
X018250D01*
X017782Y014409D02*
X017962Y014230D01*
X018205Y015000D02*
Y015500D01*
X017950D02*
X018205D01*
X018447Y014567D02*
Y015699D01*
X018567Y014698D02*
Y015749D01*
X017960Y016356D02*
X018567Y015749D01*
X017876Y016356D02*
X017960D01*
X019150Y015355D02*
Y015700D01*
X018795Y015000D02*
X019150Y015355D01*
X019150Y016830D02*
X019407Y016574D01*
X020023Y016786D02*
Y017261D01*
X018903Y018198D02*
X019086D01*
X020750Y018935D02*
X021065Y018620D01*
X021096Y018854D02*
Y019169D01*
X021216Y019102D02*
X021718Y018600D01*
X021216Y019102D02*
Y019679D01*
X021043Y019852D02*
X021216Y019679D01*
X021173Y019995D02*
X021995Y019173D01*
X021438Y019900D02*
X022012D01*
X021223Y020115D02*
X021438Y019900D01*
X021096Y018854D02*
X021650Y018300D01*
X021065Y018130D02*
Y018620D01*
X021768Y018650D02*
X022250D01*
X021718Y018600D02*
X021768Y018650D01*
X022118Y018995D02*
X022223D01*
X021995Y019118D02*
X022118Y018995D01*
X021995Y019118D02*
Y019173D01*
X022273Y019115D02*
X022595Y018793D01*
X022167Y019115D02*
X022273D01*
X022115Y019167D02*
X022167Y019115D01*
X022115Y019167D02*
Y019833D01*
X022223Y018995D02*
X022475Y018743D01*
X022012Y019900D02*
X022118Y020005D01*
X022115Y019833D02*
X022167Y019885D01*
X022833D01*
X022500Y019500D02*
X025205D01*
X022085Y018217D02*
X022293Y018425D01*
X022343D01*
X022475Y018557D01*
Y018743D01*
X022595Y018743D02*
X022915Y018423D01*
X022595Y018743D02*
Y018793D01*
X018405Y018253D02*
X018700Y017958D01*
X018779Y018322D02*
Y018643D01*
Y018322D02*
X018903Y018198D01*
X018700Y017958D02*
X018987D01*
X021011Y016600D02*
X021450D01*
X020750Y016861D02*
X021011Y016600D01*
X020975Y016425D02*
X021697Y015703D01*
X020750Y016879D02*
X021056Y017185D01*
X021705Y016695D02*
X021900Y016500D01*
X021705Y016695D02*
Y016997D01*
X021817Y015186D02*
Y015964D01*
X021999Y016145D01*
X022165D01*
X022194Y015535D02*
X022200Y015528D01*
X022295Y016000D02*
X023205D01*
X022500Y014650D02*
Y014738D01*
X022235Y014483D02*
X022325Y014393D01*
Y013975D02*
Y014393D01*
X022050Y014750D02*
X022150D01*
X021803Y014513D02*
Y015014D01*
Y014513D02*
X021833Y014483D01*
X022235D01*
X021683Y014463D02*
Y014964D01*
X021455Y014750D02*
X021563Y014642D01*
Y013956D02*
Y014642D01*
X021683Y014463D02*
X021750Y014396D01*
Y013250D02*
Y014396D01*
X023050Y015336D02*
X023342Y015628D01*
X023654Y015304D02*
Y015304D01*
X023643Y015025D02*
X023878Y014790D01*
X023568Y015025D02*
X023643D01*
X023425Y015168D02*
X023568Y015025D01*
X023550Y014800D02*
X023675Y014675D01*
X023425Y015168D02*
Y015393D01*
X023435Y015403D01*
X023435D01*
X023729Y015697D01*
X023591D02*
X023729D01*
X023288Y016000D02*
X023591Y015697D01*
X022045Y015750D02*
X022295Y016000D01*
X023998Y013507D02*
Y015234D01*
X024285Y014500D02*
Y014635D01*
X022400Y013750D02*
X022750Y013400D01*
X022100Y013750D02*
X022400D01*
X023878Y013457D02*
Y014790D01*
X023237Y014137D02*
X023450Y014350D01*
X020435Y017815D02*
X020450Y017800D01*
X019450Y015206D02*
Y015300D01*
X019607Y015486D02*
X019730Y015363D01*
X019607Y015486D02*
Y015835D01*
X019727Y015536D02*
Y016227D01*
Y015536D02*
X019780Y015483D01*
X019991D01*
X019230Y014884D02*
Y014986D01*
X019450Y015206D01*
X019795Y016249D02*
Y017000D01*
X019750Y016204D02*
X019795Y016249D01*
X019727Y016227D02*
X019750Y016204D01*
X019975Y015751D02*
Y016343D01*
X019938Y016381D02*
X019975Y016343D01*
X019938Y016381D02*
Y016700D01*
X020058Y016430D02*
Y016650D01*
Y016430D02*
X020195Y016293D01*
X020375D01*
X020283Y016523D02*
Y016718D01*
X020626Y015850D02*
X020950D01*
Y014850D02*
X021000Y014900D01*
X020950Y014300D02*
Y014850D01*
X020725Y014207D02*
X020852Y014080D01*
Y013902D02*
Y014080D01*
X021575Y013757D02*
Y013943D01*
X021443Y013625D02*
X021575Y013757D01*
X021375Y013625D02*
X021443D01*
X021250Y013500D02*
X021375Y013625D01*
X019407Y016523D02*
Y016574D01*
X019730Y015363D02*
X019942D01*
X020278Y015964D02*
X020514Y016200D01*
X020278Y015536D02*
Y015964D01*
X021997Y013647D02*
X022100Y013750D01*
X021563Y013956D02*
X021575Y013943D01*
X021697Y015119D02*
X021803Y015014D01*
X021997Y012858D02*
Y013647D01*
X014459Y018177D02*
X014814Y018532D01*
X015039D01*
X015153Y018646D01*
X015438Y018188D02*
X015500Y018250D01*
X015438Y018164D02*
Y018188D01*
X015236Y017962D02*
X015438Y018164D01*
X015212Y017962D02*
X015236D01*
X015153Y017903D02*
X015212Y017962D01*
X015318Y018318D02*
X015750Y018750D01*
X015318Y018214D02*
Y018318D01*
X015186Y018082D02*
X015318Y018214D01*
X015082Y018082D02*
X015186D01*
X014866Y017866D02*
X015082Y018082D01*
X015385Y017901D02*
X015614Y018130D01*
X015385Y016565D02*
Y017901D01*
X015500Y018250D02*
X016718D01*
X015614Y018130D02*
X016840D01*
X015153Y016803D02*
Y017903D01*
X014866Y017620D02*
Y017866D01*
X014579Y017979D02*
X014728Y018128D01*
X018315Y023250D02*
X018650D01*
X016923Y016107D02*
X017100Y015930D01*
X021000Y022315D02*
Y022565D01*
Y022200D02*
Y022315D01*
X022000Y023315D01*
X013997Y012356D02*
Y012800D01*
Y012356D02*
X014120Y012233D01*
X014470D01*
X013705Y012479D02*
X014071Y012113D01*
X014520D01*
X013595Y011950D02*
X015596D01*
X013245Y012300D02*
X013595Y011950D01*
X013100Y011800D02*
X015576D01*
X013688Y011680D02*
X015526D01*
X013008Y011000D02*
X013688Y011680D01*
X014470Y012233D02*
X014861Y012623D01*
X014520Y012113D02*
X014764Y012356D01*
X012950Y011950D02*
X013100Y011800D01*
X018500Y020457D02*
X018500Y020457D01*
X018250Y020150D02*
Y020708D01*
Y020150D02*
X018289Y020111D01*
X018008Y020950D02*
X018250Y020708D01*
X018725Y020180D02*
Y020733D01*
X018528Y020930D02*
X018725Y020733D01*
X018950Y020500D02*
X019028Y020578D01*
X018367Y020930D02*
X018528D01*
X019028Y020578D02*
Y022243D01*
X018000Y020457D02*
X018029Y020428D01*
Y019108D02*
Y020428D01*
X019148Y020352D02*
Y021793D01*
X018436Y022055D02*
X018803Y021688D01*
X019168Y021813D02*
Y022425D01*
X019148Y021793D02*
X019168Y021813D01*
X018417Y021050D02*
X018750D01*
X018500Y020457D02*
Y020720D01*
X018410Y020810D02*
X018500Y020720D01*
X018318Y020810D02*
X018410D01*
X030050Y015000D02*
X030435D01*
X025045Y024095D02*
Y024250D01*
X024778Y023650D02*
X026650D01*
X025450Y013250D02*
X025982D01*
X025150Y013050D02*
X025175Y013025D01*
X024569Y013334D02*
X024915Y013680D01*
X020058Y016650D02*
X020143Y016736D01*
Y017217D01*
X019938Y016700D02*
X020023Y016786D01*
X020375Y016293D02*
X020507Y016425D01*
X020283Y016718D02*
X020435Y016870D01*
X021724Y020427D02*
X021730D01*
X022000Y020698D01*
Y021302D01*
X021730Y021573D02*
X022000Y021302D01*
X021724Y021573D02*
X021730D01*
X017825Y012740D02*
X018065Y012500D01*
X019050D01*
X018893Y012725D02*
X019143D01*
X019275Y012593D01*
Y012448D02*
Y012593D01*
Y012448D02*
X019428Y012295D01*
X020676D01*
X019292Y013085D02*
X019722Y012655D01*
X020825D01*
X019428Y013122D02*
X019574D01*
X019296Y013254D02*
X019428Y013122D01*
X019147Y013085D02*
X019292D01*
X018983Y013249D02*
X019147Y013085D01*
X019515Y012547D02*
X019527Y012535D01*
X019515Y012547D02*
Y012693D01*
X019243Y012965D02*
X019515Y012693D01*
X019097Y012965D02*
X019243D01*
X018863Y013199D02*
X019097Y012965D01*
X019395Y012497D02*
X019477Y012415D01*
X019395Y012497D02*
Y012643D01*
X019193Y012845D02*
X019395Y012643D01*
X019047Y012845D02*
X019193D01*
X018743Y013150D02*
X019047Y012845D01*
X020426Y017500D02*
X020435D01*
X020143Y017217D02*
X020426Y017500D01*
X019124Y018450D02*
X019250D01*
X018250Y017050D02*
X018500Y016800D01*
X018250Y017050D02*
Y017144D01*
X018026Y018936D02*
X018425Y019335D01*
X018076Y018816D02*
X018368Y019108D01*
X018376Y018826D02*
X018538Y018988D01*
X019986Y018949D02*
X020000Y018935D01*
X018200Y017650D02*
X018376Y017826D01*
Y018500D01*
Y018826D01*
X018405Y018253D02*
Y018471D01*
X018376Y018500D02*
X018405Y018471D01*
X017525Y018816D02*
X018076D01*
X017400Y018936D02*
X018026D01*
X017976Y019056D02*
X018029Y019108D01*
X017206Y019056D02*
X017976D01*
X019150Y016830D02*
Y017000D01*
X018748Y017597D02*
X018750Y017598D01*
X022045Y015535D02*
Y015750D01*
X022150Y014750D02*
X022150Y014750D01*
X021697Y015119D02*
Y015703D01*
X021517Y015130D02*
X021683Y014964D01*
X021282Y015130D02*
X021517D01*
X021225Y015187D02*
X021282Y015130D01*
X021225Y015187D02*
Y015225D01*
X020967Y015483D02*
X021225Y015225D01*
Y014980D02*
X021455Y014750D01*
X021225Y014980D02*
Y014993D01*
X020855Y015363D02*
X021225Y014993D01*
X020775Y014443D02*
Y015120D01*
X021705Y016997D02*
Y017000D01*
X021065Y016870D02*
X021578D01*
X021705Y016997D01*
X021165Y018130D02*
X021600Y017695D01*
X021065Y018130D02*
X021165D01*
X025205Y019500D02*
X025500Y019205D01*
X023100Y018835D02*
Y019200D01*
X023205Y016000D02*
X023288D01*
X023100Y018835D02*
X023185Y018750D01*
X023205Y018730D01*
Y018000D02*
Y018730D01*
X024381Y016267D02*
X024705Y016591D01*
X024030Y016267D02*
X024381D01*
X025746Y016614D02*
X025857Y016725D01*
X025614Y016614D02*
X025746D01*
X025950Y016450D02*
Y016500D01*
X025795Y016295D02*
X025950Y016450D01*
X026057Y016725D02*
X026307Y016475D01*
X025857Y016725D02*
X026057D01*
X025795Y016000D02*
Y016295D01*
X026833Y014985D02*
Y015548D01*
X026656Y015725D02*
X026833Y015548D01*
X026470Y015725D02*
X026656D01*
X026466Y015722D02*
X026470Y015725D01*
X025364Y015602D02*
X026461D01*
X026563Y015500D01*
X026713Y015350D01*
Y014480D02*
Y015350D01*
X026307Y016475D02*
X026959D01*
X027242Y016758D01*
X025496Y015722D02*
X026466D01*
X026385Y015315D02*
X026593Y015107D01*
Y014430D02*
Y015107D01*
X025353Y015000D02*
X026365D01*
X026446Y014919D01*
Y014407D02*
Y014919D01*
X026100Y015315D02*
X026385D01*
X026833Y014985D02*
X026886Y014933D01*
X025433Y015786D02*
X025496Y015722D01*
X025233Y015470D02*
X025364Y015602D01*
X026400Y016700D02*
Y016925D01*
X027242Y016758D02*
X027634Y017150D01*
X026750Y013450D02*
Y014018D01*
Y013250D02*
Y013450D01*
X023729Y015697D02*
X023934D01*
X024900Y016950D02*
Y017550D01*
X025727Y017598D02*
X026400Y016925D01*
X023934Y015697D02*
X024205Y015967D01*
X025295Y017655D02*
Y018409D01*
X024800Y017816D02*
Y017900D01*
X023895Y017100D02*
X024050D01*
X015732Y012132D02*
Y012412D01*
X015750Y012430D01*
X015427Y011000D02*
X015987Y011560D01*
X015370Y011000D02*
X015427D01*
X015938Y011680D02*
X020502D01*
X015987Y011560D02*
X020452D01*
X015925Y011667D02*
X015938Y011680D01*
X015539Y011667D02*
X015925D01*
X015526Y011680D02*
X015539Y011667D01*
X015576Y011800D02*
X015589Y011787D01*
X015875D01*
X015888Y011800D01*
X019550D01*
X015868Y011950D02*
X018988D01*
X015825Y011907D02*
X015868Y011950D01*
X015639Y011907D02*
X015825D01*
X015596Y011950D02*
X015639Y011907D01*
X015623Y012557D02*
X015750Y012430D01*
X015623Y012557D02*
Y012571D01*
X015571Y012623D02*
X015623Y012571D01*
X014861Y012623D02*
X015571D01*
X015737Y012743D02*
X016090Y012390D01*
X014295Y012500D02*
X014539Y012743D01*
X015737D01*
X014764Y012356D02*
X015376D01*
X013705Y012479D02*
Y012500D01*
X013564Y013233D02*
X013997Y012800D01*
X013530Y013233D02*
X013564D01*
X013477Y013286D02*
X013530Y013233D01*
X013477Y013286D02*
Y013714D01*
X013530Y013767D01*
X013648Y014225D02*
X013893D01*
X012950Y011950D02*
Y013527D01*
X013357Y012848D02*
X013705Y012500D01*
X013357Y012848D02*
Y013764D01*
X012950Y013527D02*
X013648Y014225D01*
X013650Y013887D02*
X013700Y013938D01*
X013480Y013887D02*
X013650D01*
X013357Y013764D02*
X013480Y013887D01*
X013530Y013767D02*
X013880D01*
X013933Y013714D01*
Y013667D02*
Y013714D01*
Y013667D02*
X014100Y013500D01*
X014295D01*
X014866Y019750D02*
Y020620D01*
X015093Y019525D02*
X015750Y018868D01*
X014866Y019750D02*
X015091Y019525D01*
X015093D01*
X015750Y018750D02*
Y018868D01*
X016840Y018130D02*
X017525Y018816D01*
X016718Y018250D02*
X017325Y018857D01*
Y018861D01*
X017400Y018936D01*
X017100Y018950D02*
X017206Y019056D01*
X014561Y016558D02*
X014565D01*
X014493Y016625D02*
X014561Y016558D01*
X014307Y016625D02*
X014493D01*
X013562Y015880D02*
X014307Y016625D01*
X013893Y014225D02*
X014350Y014682D01*
Y016350D02*
X014400Y016400D01*
X014350Y014682D02*
Y016350D01*
X014866Y017484D02*
Y017620D01*
X014579Y017348D02*
Y017979D01*
X014459Y017298D02*
Y018177D01*
X014579Y017348D02*
X014925Y017002D01*
X014459Y017298D02*
X014805Y016953D01*
X015150Y016800D02*
X015153Y016803D01*
X023500Y021435D02*
X024250D01*
X021724Y022409D02*
X022000Y022685D01*
X021724Y021573D02*
Y022409D01*
X020065Y023500D02*
X021000Y022565D01*
X023351Y012040D02*
X026000D01*
X023111Y011800D02*
X023351Y012040D01*
X022064Y011800D02*
X023111D01*
X021944Y011680D02*
X022064Y011800D01*
X021048Y011680D02*
X021944D01*
X020993Y011625D02*
X021048Y011680D01*
X023400Y011920D02*
X026049D01*
X023160Y011680D02*
X023400Y011920D01*
X022114Y011680D02*
X023160D01*
X021994Y011560D02*
X022114Y011680D01*
X021098Y011560D02*
X021994D01*
X021043Y011505D02*
X021098Y011560D01*
X021148Y011440D02*
X022044D01*
X021093Y011385D02*
X021148Y011440D01*
X023450Y011800D02*
X026099D01*
X023210Y011560D02*
X023450Y011800D01*
X022164Y011560D02*
X023210D01*
X022044Y011440D02*
X022164Y011560D01*
X023500Y011680D02*
X026149D01*
X023260Y011440D02*
X023500Y011680D01*
X022213Y011440D02*
X023260D01*
X021897Y011123D02*
X022213Y011440D01*
X023550Y011560D02*
X026198D01*
X022990Y011000D02*
X023550Y011560D01*
X022457Y011000D02*
X022990D01*
X021897Y010818D02*
Y011123D01*
X021639Y010560D02*
X021897Y010818D01*
X020673Y011000D02*
X021113Y010560D01*
X020094Y011000D02*
X020673D01*
X022893Y012275D02*
X023237Y012619D01*
X022707Y012275D02*
X022893D01*
X022656Y012326D02*
X022707Y012275D01*
X021283Y012326D02*
X022656D01*
X022800Y012500D02*
Y012600D01*
X022945Y012806D02*
X022997Y012858D01*
X022787Y012806D02*
X022945D01*
X022427Y012446D02*
X022787Y012806D01*
X022943Y012155D02*
X023500Y012712D01*
X023237Y012619D02*
Y014137D01*
X023500Y012712D02*
Y013950D01*
X022205Y012566D02*
X022750Y013111D01*
Y013250D01*
X021383Y012566D02*
X022205D01*
X021333Y012446D02*
X022427D01*
X022657Y012155D02*
X022943D01*
X021507Y012175D02*
X022637D01*
X022657Y012155D01*
X020986Y012664D02*
X021285D01*
X021383Y012566D01*
X020937Y012544D02*
X021235D01*
X021333Y012446D01*
X020825Y012655D02*
X020937Y012544D01*
X020887Y012424D02*
X021185D01*
X019527Y012535D02*
X020776D01*
X020887Y012424D01*
X019477Y012415D02*
X020726D01*
X020837Y012304D01*
X020676Y012295D02*
X020796Y012175D01*
X019213D02*
X019743D01*
X018988Y011950D02*
X019213Y012175D01*
X019743D02*
X019868Y012050D01*
X020300D01*
X020465Y014350D02*
Y014850D01*
Y014350D02*
X020475Y014340D01*
X022750Y013250D02*
Y013400D01*
X021945Y012806D02*
X021997Y012858D01*
X021555Y012806D02*
X021945D01*
X021536Y012825D02*
X021555Y012806D01*
X021185Y012424D02*
X021283Y012326D01*
X021994Y012686D02*
X022250Y012941D01*
X021313Y012805D02*
X021432Y012686D01*
X021994D01*
X021525Y012825D02*
X021536D01*
X021250Y013100D02*
X021525Y012825D01*
X021250Y013100D02*
Y013250D01*
X021502Y012170D02*
X021507Y012175D01*
X021015Y012805D02*
X021313D01*
X021135Y012304D02*
X021269Y012170D01*
X020837Y012304D02*
X021135D01*
X021093Y012175D02*
X021393Y011875D01*
X020796Y012175D02*
X021093D01*
X020457Y011385D02*
X021093D01*
X020507Y011505D02*
X021043D01*
X020557Y011625D02*
X020993D01*
X021393Y011875D02*
X021525D01*
X020850Y012800D02*
X020986Y012664D01*
X020900Y012920D02*
X021015Y012805D01*
X020712Y012920D02*
X020900D01*
X020502Y011680D02*
X020557Y011625D01*
X020452Y011560D02*
X020507Y011505D01*
X020402Y011440D02*
X020457Y011385D01*
X018172Y011440D02*
X020402D01*
X021113Y010560D02*
X021639D01*
X012836Y010300D02*
X039350D01*
X021269Y012170D02*
X021502D01*
X019974Y015670D02*
Y015750D01*
Y015670D02*
X020281Y015363D01*
X020855D01*
X020231Y015243D02*
X020652D01*
X019991Y015483D02*
X020231Y015243D01*
X019942Y015363D02*
X020455Y014850D01*
X020465D01*
X020331Y015483D02*
X020967D01*
X020278Y015536D02*
X020331Y015483D01*
X020982Y015723D02*
X021455Y015250D01*
X020553Y015723D02*
X020982D01*
X020652Y015243D02*
X020775Y015120D01*
X020526Y015750D02*
X020553Y015723D01*
X021250Y013250D02*
Y013500D01*
X021953Y015050D02*
X022188D01*
X021817Y015186D02*
X021953Y015050D01*
X022045Y014750D02*
X022150D01*
X022188Y015050D02*
X022500Y014738D01*
X020850Y013900D02*
X020852Y013902D01*
X019482Y014750D02*
X019935D01*
X019275Y014543D02*
X019482Y014750D01*
X019275Y014051D02*
Y014543D01*
X018567Y014698D02*
X018983Y014282D01*
X018095Y014733D02*
X018743Y014085D01*
X022524Y014945D02*
X022930Y014538D01*
Y013709D02*
Y014538D01*
X023050Y013759D02*
Y015336D01*
X022930Y013709D02*
X022997Y013642D01*
X019250Y014026D02*
X019593Y013683D01*
X019964D01*
X020017Y013630D01*
Y013445D02*
Y013630D01*
Y013445D02*
X020662Y012800D01*
X020850D01*
X020475Y013157D02*
Y014340D01*
Y013157D02*
X020712Y012920D01*
X019750Y013455D02*
X019838D01*
X019983Y013310D01*
Y013280D02*
Y013310D01*
Y013280D02*
X020250Y013012D01*
X020725Y014393D02*
X020775Y014443D01*
X020725Y014207D02*
Y014393D01*
X022250Y012941D02*
Y013250D01*
X022997Y012858D02*
Y013642D01*
X020526Y015750D02*
X020626Y015850D01*
X020253Y012890D02*
Y012964D01*
X020227Y012990D02*
X020253Y012964D01*
X018447Y014567D02*
X018863Y014152D01*
X018743Y013150D02*
Y014085D01*
X019250Y014026D02*
X019275Y014051D01*
X018983Y013249D02*
Y014282D01*
X018863Y013199D02*
Y014152D01*
X019296Y013254D02*
Y013429D01*
X018623Y012995D02*
X018893Y012725D01*
X018623Y012995D02*
Y013857D01*
X018450Y012800D02*
X018500D01*
X016750Y013550D02*
X016957Y013343D01*
X017278D01*
X016965Y013835D02*
X017100D01*
X016740Y013742D02*
Y014140D01*
X016620Y013692D02*
Y014496D01*
X022589Y020298D02*
Y020350D01*
X022026Y020125D02*
X023075D01*
X022118Y020005D02*
X022882D01*
X022833Y019885D02*
X023043Y019675D01*
X022736Y021096D02*
X023419D01*
X022882Y020005D02*
X022988Y019900D01*
X023150D01*
X023243Y019675D02*
X023440Y019872D01*
X023043Y019675D02*
X023243D01*
X022641Y021191D02*
X022736Y021096D01*
X023200Y020250D02*
Y020350D01*
Y020735D01*
X023472Y019872D02*
Y021043D01*
X023075Y020125D02*
X023200Y020250D01*
X023440Y019872D02*
X023472D01*
X023185Y020750D02*
X023200Y020735D01*
X023419Y021096D02*
X023472Y021043D01*
X022050Y022050D02*
X022200D01*
X022276Y021974D01*
X019750Y014045D02*
Y014300D01*
X017450Y017350D02*
X018444Y016356D01*
X017809Y013657D02*
X018222D01*
X017809Y013537D02*
Y013657D01*
X017615Y013343D02*
X017825Y013132D01*
Y012740D02*
Y013132D01*
X017278Y013343D02*
X017615D01*
X016750Y013550D02*
Y013732D01*
X016740Y013742D02*
X016750Y013732D01*
X016620Y013692D02*
X016624Y013688D01*
Y013376D02*
Y013688D01*
X016490Y013412D02*
Y013797D01*
X016487Y013239D02*
X016624Y013376D01*
X016437Y013359D02*
X016490Y013412D01*
X016063Y013359D02*
X016437D01*
X017675Y013792D02*
X017809Y013657D01*
X017675Y013792D02*
Y013943D01*
X017912Y014110D02*
X018085D01*
X017872Y014150D02*
X017912Y014110D01*
X018030Y014733D02*
X018095D01*
X017646Y013972D02*
X017675Y013943D01*
X016740Y014140D02*
X017060Y014460D01*
X017109Y014088D02*
X017170Y014150D01*
X017109Y013844D02*
Y014088D01*
X015876Y014410D02*
X016490Y013797D01*
X016014Y014800D02*
X017035D01*
X016016Y015500D02*
X016750D01*
X015901Y015385D02*
X016016Y015500D01*
X016915Y015165D02*
X017350D01*
X017100Y013835D02*
X017109Y013844D01*
X016620Y014496D02*
X016624Y014500D01*
X023795Y017459D02*
X024328D01*
X024386Y017402D02*
X024443Y017459D01*
X024609D01*
Y017624D01*
X024800Y017816D01*
X024197Y017598D02*
X024386D01*
X023795Y018000D02*
X024197Y017598D01*
X025000Y018798D02*
Y019205D01*
X024705Y018502D02*
X025000Y018798D01*
X025295Y017655D02*
X025352Y017598D01*
X025614D01*
X020227Y012990D02*
X020250Y013012D01*
X017782Y014409D02*
Y014683D01*
X017643Y014822D02*
X017782Y014683D01*
X023758Y013303D02*
Y014360D01*
X023675Y014443D02*
X023758Y014360D01*
X023675Y014443D02*
Y014675D01*
X018085Y014110D02*
X018222Y013972D01*
X017035Y014800D02*
X017057Y014822D01*
X017278Y013972D02*
X017646D01*
X017060Y014460D02*
X017310D01*
X024778Y022691D02*
Y023650D01*
Y022691D02*
X024875Y022594D01*
Y022407D02*
Y022594D01*
X024778Y022310D02*
X024875Y022407D01*
X024778Y022124D02*
Y022310D01*
X024217Y024012D02*
X024455Y024250D01*
X024217Y022467D02*
Y024012D01*
X018795Y015000D02*
X018900Y014895D01*
X018444Y016356D02*
X018624D01*
X022675Y022630D02*
X022750Y022705D01*
X022675Y021225D02*
Y022630D01*
X022641Y021191D02*
X022675Y021225D01*
X022276Y021573D02*
Y021974D01*
X021666Y021191D02*
X021724D01*
X021357Y021500D02*
X021666Y021191D01*
X021250Y021500D02*
X021357D01*
X019722Y024487D02*
X019831Y024596D01*
X019031D02*
X019831D01*
X019722Y023207D02*
Y024487D01*
X021322Y024596D02*
X021418Y024500D01*
X019831Y024596D02*
X021322D01*
X018935Y024500D02*
X019031Y024596D01*
X019574Y023059D02*
X019722Y023207D01*
X019574Y022778D02*
Y023059D01*
X019376Y022579D02*
X019574Y022778D01*
X019376Y022028D02*
Y022579D01*
X019842Y023277D02*
X020065Y023500D01*
X019842Y023157D02*
Y023277D01*
X019750Y023065D02*
X019842Y023157D01*
X019750Y022028D02*
Y023065D01*
X019185Y024000D02*
X019435Y024250D01*
X018935Y024000D02*
X019185D01*
X024386Y018386D02*
Y019191D01*
X023654Y015304D02*
X023888Y015538D01*
X019650Y011900D02*
Y011950D01*
X014061Y013144D02*
X015750D01*
X013705Y013500D02*
X014061Y013144D01*
X015075Y013500D02*
X015922D01*
X015000Y013425D02*
X015075Y013500D01*
X015922D02*
X016063Y013359D01*
X015845Y013239D02*
X016487D01*
X015750Y013144D02*
X015845Y013239D01*
X014605Y013425D02*
X015000D01*
X014530Y013500D02*
X014605Y013425D01*
X014295Y013500D02*
X014530D01*
X015200Y013968D02*
Y014050D01*
X015112Y013880D02*
X015200Y013968D01*
X015385Y015943D02*
X015575Y016133D01*
Y016375D01*
X015385Y016565D02*
X015575Y016375D01*
X015385Y015599D02*
Y015943D01*
X015265Y015549D02*
Y016002D01*
X015015Y016252D02*
X015265Y016002D01*
Y015549D02*
X016014Y014800D01*
X015385Y015599D02*
X015599Y015385D01*
X014925Y016707D02*
X015350Y016282D01*
X014925Y016707D02*
Y017002D01*
X014805Y016657D02*
X015015Y016447D01*
Y016252D02*
Y016447D01*
X014805Y016657D02*
Y016953D01*
X014895Y015909D02*
Y016397D01*
X013968Y017620D02*
X014685Y016903D01*
X014746Y016281D02*
Y016377D01*
X014565Y016558D02*
X014746Y016377D01*
X014685Y016607D02*
X014895Y016397D01*
X014685Y016607D02*
Y016903D01*
X014725Y014105D02*
Y014479D01*
X014866Y014620D01*
X014632Y013880D02*
X015112D01*
X014562Y013950D02*
X014632Y013880D01*
X013700Y013950D02*
X014562D01*
X016056Y012356D02*
X016124D01*
X018222Y013028D02*
X018450Y012800D01*
X024785Y021100D02*
X025965D01*
X024435Y020750D02*
X024785Y021100D01*
X020000Y019565D02*
X020750D01*
X020124Y020809D02*
X021724D01*
X023795Y017000D02*
X023895Y017100D01*
X023648Y013193D02*
X023758Y013303D01*
X023648Y012607D02*
Y013193D01*
X014579Y015646D02*
X015153Y015072D01*
Y014695D02*
Y015072D01*
Y018646D02*
Y019147D01*
X015000Y019300D02*
X015153Y019147D01*
X014350Y020650D02*
Y020962D01*
X014415Y021027D01*
X013421Y021360D02*
X014125Y020655D01*
X014575Y020557D02*
Y020850D01*
X014125Y020557D02*
Y020655D01*
X014575Y020850D02*
X014632Y020907D01*
X014443Y020425D02*
X014575Y020557D01*
X014257Y020425D02*
X014443D01*
X014125Y020557D02*
X014257Y020425D01*
X014632Y020907D02*
X015100D01*
X014365Y021147D02*
X015200D01*
X014293Y021075D02*
X014365Y021147D01*
X014107Y021075D02*
X014293D01*
X013421Y021360D02*
Y022114D01*
X014415Y021027D02*
X015150D01*
X015472Y020705D01*
X015500D01*
X015297Y021050D02*
X016150D01*
X015153Y020497D02*
Y020854D01*
X015200Y021147D02*
X015297Y021050D01*
X015100Y020907D02*
X015153Y020854D01*
Y020497D02*
X015325Y020325D01*
X016150Y021050D02*
X016167Y021067D01*
X016464D01*
X018655Y020111D02*
X018725Y020180D01*
X018289Y020111D02*
X018655D01*
X018725Y019757D02*
Y020180D01*
X017797Y021500D02*
X018367Y020930D01*
X016897Y021500D02*
X017797D01*
X016850Y020950D02*
X018008D01*
X018058Y021070D02*
X018318Y020810D01*
X016467Y021070D02*
X018058D01*
X017786Y021681D02*
X018417Y021050D01*
X017708Y021681D02*
X017786D01*
X016464Y021933D02*
X016897Y021500D01*
X016117Y021933D02*
X016464D01*
X015900Y022150D02*
X016117Y021933D01*
X015900Y022150D02*
Y022450D01*
X016400Y022950D01*
X017200D01*
X017500Y022650D01*
Y022543D02*
Y022650D01*
X017000Y022389D02*
X017708Y021681D01*
Y023227D01*
X017685Y023250D02*
X017708Y023227D01*
X017000Y022389D02*
Y022543D01*
X014150Y022350D02*
X014581Y022781D01*
X014150Y021953D02*
Y022350D01*
X013975Y021778D02*
X014150Y021953D01*
X013975Y021207D02*
Y021778D01*
Y021207D02*
X014107Y021075D01*
X016464Y021067D02*
X016467Y021070D01*
X017500Y022542D02*
Y022543D01*
X025500Y019795D02*
X025767Y019528D01*
Y018667D02*
Y019528D01*
X026157Y019575D02*
X026343D01*
X026025Y019443D02*
X026157Y019575D01*
X026025Y019257D02*
Y019443D01*
Y019257D02*
X026100Y019182D01*
X021724Y020427D02*
X022026Y020125D01*
X022589Y020298D02*
X022600Y020286D01*
X022470Y017267D02*
X022553Y017184D01*
X022333Y017267D02*
X022470D01*
X018688Y022904D02*
X019168Y022425D01*
X019028Y022243D02*
X019048Y022262D01*
Y022375D01*
X018255Y022055D02*
X018436D01*
X018081Y022904D02*
X018688D01*
X017972Y023013D02*
X018081Y022904D01*
X017972Y023013D02*
Y023543D01*
X017919Y023596D02*
X017972Y023543D01*
X017451Y023596D02*
X017919D01*
X017290Y023435D02*
X017451Y023596D01*
X017000Y023435D02*
X017290D01*
X018092Y023473D02*
X018315Y023250D01*
X018092Y023473D02*
Y023593D01*
X017969Y023716D02*
X018092Y023593D01*
X017849Y023716D02*
X017969D01*
X017685Y023880D02*
X017849Y023716D01*
X015159Y024222D02*
X015315D01*
X015159Y024038D02*
Y024222D01*
X015106Y023985D02*
X015159Y024038D01*
X013935Y023985D02*
X015106D01*
X012925Y022975D02*
X013935Y023985D01*
X012807Y022975D02*
X012925D01*
X011875Y022043D02*
X012807Y022975D01*
X011875Y021675D02*
Y022043D01*
Y021675D02*
X012343D01*
X012448Y021780D01*
X012683D01*
X012847Y021944D01*
Y022114D01*
X012904Y022171D01*
X013126D01*
X013569Y023006D02*
X014757D01*
X012727Y022164D02*
X013569Y023006D01*
X012727Y021994D02*
Y022164D01*
X012633Y021900D02*
X012727Y021994D01*
X013126Y022171D02*
X013131Y022167D01*
X013368D01*
X013421Y022114D01*
X012800Y021546D02*
X013134Y021880D01*
X012800Y019214D02*
Y021546D01*
X014200Y021833D02*
X014534Y022167D01*
X014200Y021300D02*
Y021833D01*
X014534Y022167D02*
X015100D01*
X016500Y016850D02*
Y017300D01*
X016700Y017500D01*
X015750Y017266D02*
X016115Y016901D01*
X015750Y017266D02*
Y017750D01*
X016115Y016685D02*
X016480Y016320D01*
X016115Y016685D02*
Y016901D01*
X016692Y016320D02*
X016786Y016227D01*
X016480Y016320D02*
X016692D01*
X020065Y020750D02*
X020124Y020809D01*
X019915Y019650D02*
X020000Y019565D01*
X018557Y022600D02*
X018782Y022375D01*
X019048D01*
X018500Y022543D02*
X018557Y022600D01*
X018000Y022309D02*
Y022543D01*
Y022309D02*
X018255Y022055D01*
X012900Y022750D02*
X013850Y023700D01*
X014909D01*
X014964Y023755D01*
X015505D01*
X015630Y023880D01*
Y024222D01*
X018935Y024000D02*
X019435Y023500D01*
X018315Y024000D02*
X018935D01*
X023169Y024517D02*
X023436Y024250D01*
X023526D01*
X022642Y024380D02*
X022780Y024517D01*
X022080Y024380D02*
X022642D01*
X022593Y024500D02*
X022730Y024637D01*
X021418Y024500D02*
X022593D01*
X024683Y024517D02*
X024778Y024422D01*
X024280Y024517D02*
X024683D01*
X023339Y024517D02*
X023720D01*
X023219Y024637D02*
X023339Y024517D01*
X022730Y024637D02*
X023219D01*
X022780Y024517D02*
X023169D01*
X023738Y024500D02*
X024262D01*
X023720Y024517D02*
X023738Y024500D01*
X024262D02*
X024280Y024517D01*
X021900Y024200D02*
X022080Y024380D01*
X016566Y024500D02*
X018935D01*
X015701Y023635D02*
X016566Y024500D01*
X015630Y022800D02*
Y023278D01*
Y022425D02*
Y022800D01*
X015830Y023000D01*
X016250D01*
X016685Y023435D01*
X017000D01*
X014685Y023306D02*
X015014Y023635D01*
X014685Y023278D02*
Y023306D01*
X015000D02*
X015209Y023515D01*
X015000Y023278D02*
Y023306D01*
X015100Y022167D02*
X015500Y021767D01*
Y021705D02*
Y021767D01*
X016250Y021295D02*
Y021705D01*
X016250Y021705D02*
X016250Y021705D01*
X015500Y021705D02*
X016250D01*
X028000Y014050D02*
X028196Y014246D01*
X027500Y014050D02*
X028000D01*
X027718Y015200D02*
X027882D01*
X027503Y014985D02*
X027718Y015200D01*
X027478Y014985D02*
X027503D01*
X028093Y015175D02*
X028225Y015307D01*
X027907Y015175D02*
X028093D01*
X027882Y015200D02*
X027907Y015175D01*
X028000Y015400D02*
Y015500D01*
X028025Y015525D01*
X031600Y017800D02*
X031918D01*
X027198Y014705D02*
X027478Y014985D01*
X027500Y015253D02*
Y015300D01*
X027330Y015525D02*
X028025D01*
X027179Y014933D02*
X027500Y015253D01*
X028196Y014246D02*
Y014346D01*
X029400Y015550D01*
X030732D01*
X030793Y015611D01*
X031561D01*
X032125Y016175D01*
X030900Y015280D02*
Y015350D01*
X031300Y013800D02*
X032245Y014745D01*
X032180Y017708D02*
Y020682D01*
X031091Y016950D02*
X031350D01*
X031069Y016972D02*
X031091Y016950D01*
X030372Y016972D02*
X031069D01*
X032400Y020950D02*
Y021157D01*
X032175Y021102D02*
X032300Y021227D01*
X032175Y020857D02*
Y021102D01*
X032055Y021151D02*
X032180Y021276D01*
X032055Y020807D02*
Y021151D01*
Y020807D02*
X032180Y020682D01*
X032175Y020857D02*
X032300Y020732D01*
X032180Y021276D02*
Y021300D01*
X032300Y021227D02*
Y021350D01*
Y019150D02*
Y020732D01*
X032400Y021157D02*
X033408Y022165D01*
X033713D01*
X034109Y022561D01*
X032300Y019150D02*
X032700Y018750D01*
X028200Y017150D02*
X028397Y016953D01*
X027634Y017150D02*
X028200D01*
X027242Y017500D02*
X027935D01*
X028670Y015524D02*
X028847Y015347D01*
X028670Y015524D02*
Y015532D01*
X027860Y016341D02*
Y016750D01*
X030900Y015280D02*
X031065Y015115D01*
X031400Y022250D02*
X032300Y021350D01*
X032650Y020700D02*
X032720D01*
X033770Y021750D01*
X027100Y014705D02*
X027198D01*
X026446Y014407D02*
X026593Y014261D01*
Y014018D02*
Y014261D01*
X027518Y013250D02*
X027706D01*
X027895Y013061D01*
X027719Y013407D02*
X028015Y013111D01*
X027518Y013407D02*
X027719D01*
X027731Y013565D02*
X028135Y013161D01*
X027518Y013565D02*
X027731D01*
X027694Y013093D02*
X027775Y013012D01*
X027518Y013093D02*
X027694D01*
X031346Y011560D02*
X031906Y011000D01*
X033588Y011680D02*
X034268Y011000D01*
X035830Y011800D02*
X036630Y011000D01*
X029039Y011920D02*
X038072D01*
X038992Y011000D01*
X028135Y012824D02*
X029039Y011920D01*
X028135Y012824D02*
Y013161D01*
X028989Y011800D02*
X035830D01*
X028015Y012774D02*
X028989Y011800D01*
X028015Y012774D02*
Y013111D01*
X028940Y011680D02*
X033588D01*
X027895Y012725D02*
X028940Y011680D01*
X027895Y012725D02*
Y013061D01*
X027775Y012675D02*
Y013012D01*
Y012675D02*
X028890Y011560D01*
X031346D01*
X029103Y011440D02*
X029543Y011000D01*
X028361Y011440D02*
X029103D01*
X028361Y011439D02*
X028361Y011440D01*
X028361Y011439D02*
X028361D01*
X027518Y012282D02*
X028361Y011439D01*
X027518Y012282D02*
Y012778D01*
X039614Y018214D02*
Y019714D01*
X038200Y016800D02*
X039614Y018214D01*
X038200Y015450D02*
Y016800D01*
Y015450D02*
X039600Y014050D01*
Y010550D02*
Y014050D01*
X039350Y010300D02*
X039600Y010550D01*
X012568Y010568D02*
X012836Y010300D01*
X012568Y010568D02*
Y011182D01*
X012655Y011269D01*
Y012300D01*
X012847Y016167D02*
Y017857D01*
X012850Y017860D01*
Y018596D01*
X012197Y017862D02*
X012355Y017705D01*
X012000Y017862D02*
X012197D01*
X012188Y018138D02*
X012345Y018295D01*
X012000Y018138D02*
X012188D01*
X013134Y017620D02*
X013968D01*
X012655Y012300D02*
Y012405D01*
X019550Y011800D02*
X019650Y011900D01*
X027929Y024250D02*
X028429Y023750D01*
X029450D01*
X025900Y018500D02*
X026150D01*
X025500Y019852D02*
X027052D01*
X025750Y018650D02*
X025767Y018667D01*
X026100Y018900D02*
Y019182D01*
X026343Y019575D02*
X026475Y019443D01*
X026643D01*
X026765Y019565D01*
X027000D01*
X025722Y022124D02*
X026941D01*
X025500Y019852D02*
Y020565D01*
X027000Y022065D02*
X027400Y021665D01*
Y020200D02*
Y021665D01*
X027052Y019852D02*
X027400Y020200D01*
X025500Y019795D02*
Y019852D01*
X027322Y019278D02*
X027500Y019100D01*
X026707Y019278D02*
X027322D01*
X026685Y019300D02*
X026707Y019278D01*
X026300Y019300D02*
X026685D01*
X025100Y021550D02*
Y021821D01*
X024926Y021376D02*
X025100Y021550D01*
X024778Y021376D02*
X024926D01*
X026941Y022124D02*
X027000Y022065D01*
X026250Y021435D02*
X027000D01*
X026900Y020750D02*
X027000Y020650D01*
X026315Y020750D02*
X026900D01*
X027000Y018242D02*
Y018935D01*
X027000Y014705D02*
X027222Y014482D01*
X026250Y019350D02*
X026300Y019300D01*
X027700Y018482D02*
X027725Y018507D01*
X027700Y018250D02*
Y018482D01*
X027100Y015295D02*
X027330Y015525D01*
X028622Y016592D02*
Y017443D01*
X028565Y017500D02*
X028622Y017443D01*
X028250Y014750D02*
X028847Y015347D01*
X028800Y016732D02*
Y017039D01*
X028950Y017189D01*
Y017900D01*
X028720Y018130D02*
X028950Y017900D01*
X028500Y018130D02*
X028720D01*
X017500Y018295D02*
X017705Y018500D01*
X015599Y015385D02*
X015901D01*
X015750Y015750D02*
X016200Y016200D01*
X017100Y013835D02*
X017278Y013657D01*
X015153Y014695D02*
X016250Y013598D01*
X016736Y016107D02*
X016923D01*
X016643Y016200D02*
X016736Y016107D01*
X016200Y016200D02*
X016643D01*
X014581Y022781D02*
X014900D01*
X031065Y015000D02*
Y015115D01*
Y014250D02*
Y015000D01*
X037195Y020545D02*
X037500D01*
X037100Y020450D02*
X037195Y020545D01*
X024778Y023650D02*
Y024422D01*
X027515Y022785D02*
X027885D01*
X026650Y023650D02*
X027515Y022785D01*
X031380Y022100D02*
X032180Y021300D01*
X029650Y022100D02*
X031380D01*
X029000Y021450D02*
X029650Y022100D01*
X029000Y021000D02*
Y021450D01*
X029200Y022250D02*
X031400D01*
X020750Y016861D02*
Y016870D01*
X028168Y019232D02*
X028500D01*
X027950Y019450D02*
X028168Y019232D01*
X027950Y019450D02*
Y020250D01*
X028290Y020590D01*
X023998Y013507D02*
X024051Y013454D01*
X024519D01*
X024572Y013507D01*
X024965Y013438D02*
X025150D01*
X024762Y013235D02*
X024965Y013438D01*
X024762Y013000D02*
Y013235D01*
X025014Y013318D02*
X025199D01*
X024882Y013186D02*
X025014Y013318D01*
X024882Y012918D02*
Y013186D01*
X023117Y012809D02*
Y013691D01*
X022994Y012686D02*
X023117Y012809D01*
X024001Y013334D02*
X024569D01*
X023878Y013457D02*
X024001Y013334D01*
X025307Y013595D02*
X025593D01*
X025150Y013438D02*
X025307Y013595D01*
X025357Y013475D02*
X025543D01*
X025199Y013318D02*
X025357Y013475D01*
X024882Y012918D02*
X025300Y012500D01*
X028500Y013250D02*
X028733Y013483D01*
X016973Y016227D02*
X017150Y016050D01*
X023050Y013759D02*
X023117Y013691D01*
X022886Y012686D02*
X022994D01*
X022800Y012600D02*
X022886Y012686D01*
X023935Y012900D02*
X023985D01*
X024425Y012460D01*
Y012175D02*
Y012460D01*
X024057Y012175D02*
X024157D01*
X023932Y012300D02*
X024057Y012175D01*
X023750Y012300D02*
X023932D01*
X024150Y012400D02*
Y012500D01*
X024096Y012554D02*
X024150Y012500D01*
X024157Y012175D02*
X024425D01*
X023701Y012554D02*
X024096D01*
X023648Y012607D02*
X023701Y012554D01*
X023888Y015538D02*
X024026D01*
X024915Y013680D02*
Y013800D01*
X023998Y015234D02*
X024026Y015262D01*
Y015538D02*
X024124D01*
X023795Y016033D02*
X024030Y016267D01*
X023205Y016000D02*
Y016500D01*
X024205Y016000D02*
X024312D01*
X024774Y015538D01*
X029300Y013600D02*
X037500D01*
X029418Y013800D02*
X031300D01*
X029393Y013825D02*
X029418Y013800D01*
X029207Y013825D02*
X029393D01*
X029075Y013693D02*
X029207Y013825D01*
X029075Y013587D02*
Y013693D01*
X028970Y013483D02*
X029075Y013587D01*
X030335Y014150D02*
X030435Y014250D01*
X029195Y014150D02*
X030335D01*
X028795Y013750D02*
X029195Y014150D01*
X028733Y013483D02*
X028970D01*
X030435Y014250D02*
Y015000D01*
X029189Y014750D02*
X029489Y014450D01*
X029750D01*
X037500Y013600D02*
X037626Y013726D01*
Y017856D01*
X032793Y019750D02*
Y020243D01*
X035700Y021750D02*
X036070D01*
X034635Y020685D02*
X035700Y021750D01*
X034635Y019700D02*
Y020685D01*
Y019700D02*
X036595D01*
X034185Y019250D02*
X034635Y019700D01*
X036595D02*
X037000Y019295D01*
Y019182D02*
Y019295D01*
Y019182D02*
X038325Y017856D01*
X038374D01*
X037000Y018482D02*
X037626Y017856D01*
X037000Y018482D02*
Y018705D01*
X035731Y020939D02*
X035770Y020900D01*
X038002D01*
X039000Y019902D01*
X039052Y019000D02*
X039374D01*
X037507Y020545D02*
X039052Y019000D01*
X037500Y020545D02*
X037507D01*
X038171Y019455D02*
X038626Y019000D01*
X038000Y019455D02*
X038171D01*
X038000Y018644D02*
Y019455D01*
X037500Y019955D02*
X038000Y019455D01*
X034815Y019165D02*
Y019250D01*
X034500Y018850D02*
X034815Y019165D01*
X033500Y018850D02*
X034500D01*
X032900Y018250D02*
X033500Y018850D01*
X032793Y018250D02*
X032900D01*
X033455Y019250D02*
X033500Y019205D01*
X032793Y019250D02*
X033455D01*
X034815D02*
X035350D01*
X032793Y019750D02*
X032839Y019795D01*
X033500D01*
X033640D01*
X034185Y019250D01*
X019974Y015750D02*
X019975Y015751D01*
X023815Y021000D02*
X024250Y021435D01*
X023815Y020750D02*
Y021000D01*
X022276Y021191D02*
X022641D01*
X022276Y020427D02*
Y020809D01*
X025500Y020565D02*
X025685Y020750D01*
X025965Y021150D02*
X026250Y021435D01*
X025965Y021100D02*
Y021150D01*
Y021100D02*
X026315Y020750D01*
X024435Y019830D02*
X024470Y019795D01*
X025000D01*
X024435Y019830D02*
Y020750D01*
X024778Y022124D02*
X024797D01*
X025100Y021821D01*
X025065Y020750D02*
X025685D01*
X025614Y017598D02*
X025727D01*
X025614Y018189D02*
X025789D01*
X025900Y018300D01*
Y018500D01*
X025750Y018650D02*
X025900Y018500D01*
X025250Y018650D02*
X025750D01*
X025213Y018613D02*
X025250Y018650D01*
X025209Y018613D02*
X025213D01*
X025098Y018502D02*
X025209Y018613D01*
X025098Y018409D02*
Y018502D01*
X025500Y019128D02*
Y019205D01*
X024902Y018529D02*
X025500Y019128D01*
X024902Y018409D02*
Y018529D01*
X024705Y018409D02*
Y018502D01*
X024386Y019191D02*
X024400Y019205D01*
X023815Y018423D02*
Y018750D01*
Y018423D02*
X024023Y018214D01*
Y018046D02*
Y018214D01*
Y018046D02*
X024216Y017853D01*
X024328D01*
X024386Y017795D01*
X024328Y017459D02*
X024386Y017402D01*
X023795Y017459D02*
Y017500D01*
Y017000D02*
X023984Y016811D01*
X024386D01*
X026750Y017992D02*
X027000Y018242D01*
X025614Y017992D02*
X026750D01*
X026463Y017795D02*
X027000Y017258D01*
X025614Y017795D02*
X026463D01*
X025433Y015786D02*
Y016267D01*
X025687Y015892D02*
X025795Y016000D01*
X025806Y012935D02*
X025982D01*
X025725Y012854D02*
X025806Y012935D01*
X025623Y013565D02*
X025982D01*
X025593Y013595D02*
X025623Y013565D01*
X025295Y016404D02*
X025433Y016267D01*
X025295Y016404D02*
Y016591D01*
X025233Y015133D02*
Y015470D01*
X025500Y014500D02*
X025982Y014018D01*
X025500Y014500D02*
Y014705D01*
X025982Y014018D02*
X026278D01*
X014900Y024500D02*
X015000D01*
Y024222D02*
Y024500D01*
X017000Y017045D02*
X017305Y017350D01*
X017450D01*
X017778Y016455D02*
X017876Y016356D01*
X017000Y016455D02*
X017778D01*
X016786Y016227D02*
X016973D01*
X017500Y017705D02*
X018061Y017144D01*
X018250D01*
X017500Y019742D02*
Y020457D01*
X017705Y018500D02*
X018376D01*
X017500Y019742D02*
X017742Y019500D01*
X016758D02*
X017000Y019742D01*
Y020457D01*
X016605Y020705D02*
X016850Y020950D01*
X016250Y020705D02*
X016605D01*
X013700Y013938D02*
Y013950D01*
X016750Y013045D02*
X017260D01*
X020526Y015750D02*
X020526Y015750D01*
X019250Y013474D02*
X019296Y013429D01*
X015000Y023249D02*
Y023278D01*
X014757Y023006D02*
X015000Y023249D01*
X012250Y021900D02*
X012633D01*
X014900Y022781D02*
X015315Y023196D01*
Y023278D01*
X015014Y023635D02*
X015701D01*
X014370Y023278D02*
X014685D01*
X018315Y024000D02*
Y024035D01*
X017998Y024352D02*
X018315Y024035D01*
X016654Y024352D02*
X017998D01*
X015817Y023515D02*
X016654Y024352D01*
X015209Y023515D02*
X015817D01*
X023815Y020750D02*
X024435D01*
X024250Y021435D02*
X024565Y021750D01*
X024778D01*
X024718Y022065D02*
X024778Y022124D01*
X024250Y022065D02*
X024718D01*
X023500D02*
X024250D01*
X022750Y023474D02*
X023526Y024250D01*
X022750Y023295D02*
Y023474D01*
X022140Y022685D02*
X022750Y023295D01*
X022000Y022685D02*
X022140D01*
X022039Y023315D02*
X022974Y024250D01*
X022000Y023315D02*
X022039D01*
X024455Y024250D02*
X024455Y024250D01*
X023526Y024250D02*
X024455D01*
X021000Y024200D02*
X021900D01*
X019750Y021815D02*
Y022028D01*
Y021815D02*
X020065Y021500D01*
Y020750D02*
Y021500D01*
X019435Y020750D02*
Y021500D01*
X019376Y021559D02*
X019435Y021500D01*
X019376Y021559D02*
Y022028D01*
X020065Y023500D02*
Y024250D01*
X019376Y022972D02*
X019435Y023031D01*
Y023500D01*
X017620Y024065D02*
X017685Y024000D01*
X017000Y024065D02*
X017620D01*
X017685Y023880D02*
Y024000D01*
X015500Y022295D02*
X015630Y022425D01*
X016752Y022295D02*
X017000Y022543D01*
X016250Y022295D02*
X016752D01*
X014866Y021880D02*
X015451Y021295D01*
X021065Y017185D02*
Y017500D01*
X020750Y016870D02*
Y016879D01*
Y018121D02*
Y018130D01*
X021056Y017815D02*
X021065D01*
Y017500D02*
Y017815D01*
X023205Y016500D02*
Y017000D01*
X017260Y013045D02*
X017278Y013028D01*
X017390Y012455D02*
X017435Y012500D01*
X016750Y012455D02*
X017390D01*
X016652Y012356D02*
X016750Y012455D01*
X016124Y012356D02*
X016652D01*
X015876Y014410D02*
Y014500D01*
X014579Y015646D02*
Y016114D01*
X014746Y016281D01*
X014866Y015880D02*
X014895Y015909D01*
X013134Y015880D02*
X013562D01*
X012800Y019214D02*
X013134Y018880D01*
X012850Y018596D02*
X013134Y018880D01*
X012847Y016167D02*
X013134Y015880D01*
X015451Y021295D02*
X015500D01*
X013134Y020612D02*
Y020620D01*
Y020612D02*
X014866Y018880D01*
X012050Y018550D02*
X012305Y018295D01*
X012345D01*
X011000Y019138D02*
X012000Y018138D01*
X011000Y019138D02*
Y019831D01*
Y016169D02*
Y016862D01*
X012000Y017862D01*
X029071Y024250D02*
X029471Y024650D01*
X027929Y023250D02*
Y024250D01*
X027811Y014750D02*
X028250D01*
X027000Y017258D02*
X027242Y017500D01*
X027820Y018130D02*
X028500D01*
X027700Y018250D02*
X027820Y018130D01*
X027700Y020700D02*
X028000Y021000D01*
X028290Y020590D02*
X030287D01*
X030707Y020171D01*
Y019750D02*
Y020171D01*
Y019250D02*
Y019750D01*
Y018750D02*
Y019250D01*
Y018250D02*
Y018750D01*
X029300Y016750D02*
X029527Y016523D01*
X025894Y012532D02*
X025982D01*
X026000Y012040D02*
X026278Y012318D01*
X026049Y011920D02*
X026435Y012306D01*
X026099Y011800D02*
X026593Y012294D01*
X026149Y011680D02*
X026750Y012281D01*
X026198Y011560D02*
X026907Y012269D01*
X026248Y011440D02*
X027065Y012257D01*
X025259Y011440D02*
X026248D01*
X025725Y012701D02*
X025894Y012532D01*
X025725Y012701D02*
Y012854D01*
X025175Y013025D02*
X025543D01*
X025611Y013093D01*
X025982D01*
X024565Y013000D02*
X024762D01*
X025611Y013407D02*
X025982D01*
X025543Y013475D02*
X025611Y013407D01*
X025500Y015295D02*
X025520Y015315D01*
X026100D01*
X026593Y014430D02*
X026750Y014273D01*
Y014018D02*
Y014273D01*
X026250Y014434D02*
Y014685D01*
Y014434D02*
X026435Y014249D01*
Y014018D02*
Y014249D01*
X026713Y014480D02*
X026907Y014285D01*
X026833Y014530D02*
X027065Y014298D01*
X026833Y014530D02*
Y014880D01*
X026886Y014933D01*
X027179D01*
X027222Y014018D02*
Y014482D01*
X024205Y015967D02*
Y016000D01*
X023687Y015892D02*
X023795Y016000D01*
X024285Y013800D02*
Y014500D01*
X023795Y016500D02*
X023909Y016614D01*
X024386D01*
X023795Y016000D02*
Y016033D01*
X024902Y016106D02*
Y016591D01*
X024795Y016000D02*
X024902Y016106D01*
X024795Y016000D02*
X025205D01*
X026907Y014018D02*
Y014285D01*
X027065Y014018D02*
Y014298D01*
X028177Y013722D02*
X028205Y013750D01*
X027518Y013722D02*
X028177D01*
X025982Y012778D02*
X026278D01*
X026750Y013250D01*
X027065Y012935D01*
X027518D01*
X026278Y012318D02*
Y012482D01*
X026907Y012269D02*
Y012482D01*
X026750Y012281D02*
Y012482D01*
X026593Y012294D02*
Y012482D01*
X026435Y012306D02*
Y012482D01*
X024819Y011000D02*
X025259Y011440D01*
X017732Y011000D02*
X018172Y011440D01*
X027065Y012257D02*
Y012482D01*
X027222Y011041D02*
Y012482D01*
X027181Y011000D02*
X027222Y011041D01*
X027725Y018507D02*
Y018693D01*
X027700Y018718D02*
X027725Y018693D01*
X027500Y019100D02*
Y019200D01*
X027700Y018718D02*
Y019082D01*
X027725Y019107D01*
Y019293D01*
X027700Y019318D02*
X027725Y019293D01*
X027700Y019318D02*
Y020700D01*
X027500Y016250D02*
Y016481D01*
Y016250D02*
X028225Y015525D01*
Y015307D02*
Y015525D01*
X027860Y016341D02*
X028670Y015532D01*
X028847Y015347D02*
Y015875D01*
X028925Y015953D01*
Y016607D01*
X028800Y016732D02*
X028925Y016607D01*
X028397Y016499D02*
Y016953D01*
X018900Y014850D02*
Y014895D01*
X020507Y016425D02*
X020975D01*
X020514Y016200D02*
X020600D01*
X020250Y022050D02*
X020400D01*
X020642Y021808D01*
X024915Y013800D02*
Y013915D01*
X025250Y014250D01*
X024915Y013915D02*
Y014500D01*
X028397Y016499D02*
X028698Y016198D01*
X012100Y017450D02*
X012355Y017705D01*
X012000Y017450D02*
X012100D01*
D47*
X029071Y023229D02*
Y023250D01*
Y023229D02*
X029600Y022700D01*
D48*
X032559Y024250D02*
D03*
X029941D02*
D03*
X032234Y023187D02*
D03*
X030266D02*
D03*
D49*
X038992Y011000D02*
D03*
X037992D02*
D03*
X036630D02*
D03*
X035630D02*
D03*
X034268D02*
D03*
X033268D02*
D03*
X031906D02*
D03*
X030906D02*
D03*
X029543D02*
D03*
X028543D02*
D03*
X027181D02*
D03*
X026181D02*
D03*
X024819D02*
D03*
X023819D02*
D03*
X022457D02*
D03*
X021457D02*
D03*
X020094D02*
D03*
X019094D02*
D03*
X017732D02*
D03*
X016732D02*
D03*
X015370D02*
D03*
X014370D02*
D03*
X013008D02*
D03*
D50*
X012008D02*
D03*
D51*
X015750Y015750D02*
D03*
Y016750D02*
D03*
Y017750D02*
D03*
Y018750D02*
D03*
D52*
Y019750D02*
D03*
D53*
X030787Y021213D02*
D03*
X039055D02*
D03*
Y016291D02*
D03*
X030787D02*
D03*
D54*
X033770Y021750D02*
D03*
D55*
X036070D02*
D03*
X035731Y020939D02*
D03*
X034109Y022561D02*
D03*
D56*
X011500Y013500D02*
D03*
Y023500D02*
D03*
X038500D02*
D03*
D57*
X021000Y023200D02*
D03*
Y022200D02*
D03*
D58*
X029000Y021000D02*
D03*
D59*
X028000D02*
D03*
D60*
X022500Y018000D02*
D03*
D61*
X013955Y020195D02*
D03*
X032495Y013950D02*
D03*
X031900Y017500D02*
D03*
X031600Y017850D02*
D03*
X018950Y019850D02*
D03*
X022628Y017184D02*
D03*
X021600Y017750D02*
D03*
X022524Y015549D02*
D03*
X020270Y017837D02*
D03*
X019700Y018000D02*
D03*
X019550Y019650D02*
D03*
X018055Y014455D02*
D03*
X017900Y013885D02*
D03*
X017551Y013597D02*
D03*
X018050Y013300D02*
D03*
X017950Y015500D02*
D03*
X019150Y015700D02*
D03*
X018900Y015450D02*
D03*
X022250Y018650D02*
D03*
X021650Y018300D02*
D03*
X018779Y018643D02*
D03*
X022194Y015535D02*
D03*
X022500Y014650D02*
D03*
X022050Y014750D02*
D03*
X022100Y014250D02*
D03*
X023342Y015628D02*
D03*
X023654Y015304D02*
D03*
X023550Y014800D02*
D03*
X021900Y016500D02*
D03*
X021450Y016600D02*
D03*
X024285Y014635D02*
D03*
X022325Y013975D02*
D03*
X023450Y014350D02*
D03*
X019450Y015300D02*
D03*
X019230Y014884D02*
D03*
X020283Y016523D02*
D03*
X019750Y016200D02*
D03*
X020950Y015850D02*
D03*
X021000Y014900D02*
D03*
X020950Y014300D02*
D03*
X021350Y013850D02*
D03*
X019407Y016523D02*
D03*
X013850Y016550D02*
D03*
X015093Y018307D02*
D03*
X014728Y018128D02*
D03*
X018650Y023250D02*
D03*
X014270Y012500D02*
D03*
X018500Y020457D02*
D03*
X018803Y021688D02*
D03*
X018750Y021050D02*
D03*
X030050Y015000D02*
D03*
X025045Y024095D02*
D03*
X025450Y013250D02*
D03*
X025150Y013050D02*
D03*
X019574Y013122D02*
D03*
X018500Y016800D02*
D03*
X018200Y017650D02*
D03*
X023100Y019200D02*
D03*
X025950Y016500D02*
D03*
X026563Y015500D02*
D03*
X026400Y016700D02*
D03*
X027242Y016758D02*
D03*
X026750Y013450D02*
D03*
X024900Y016950D02*
D03*
X024800Y017900D02*
D03*
X024900Y017550D02*
D03*
X024050Y017100D02*
D03*
X015732Y012132D02*
D03*
X014866Y017484D02*
D03*
X022800Y012500D02*
D03*
X021650Y011950D02*
D03*
X021000D02*
D03*
X020650Y011850D02*
D03*
X020300Y012050D02*
D03*
X020850Y013900D02*
D03*
X020051Y014399D02*
D03*
X019050Y014533D02*
D03*
X020250Y013700D02*
D03*
X020850Y013450D02*
D03*
X019050Y012500D02*
D03*
X020253Y012890D02*
D03*
X018500Y012800D02*
D03*
X016965Y013835D02*
D03*
X022589Y020350D02*
D03*
X022750Y020850D02*
D03*
X023150Y019900D02*
D03*
X023200Y020350D02*
D03*
X022050Y022050D02*
D03*
X025600Y021800D02*
D03*
X025250Y022050D02*
D03*
X016750Y015500D02*
D03*
X016915Y015165D02*
D03*
X017235Y014535D02*
D03*
X023500Y013950D02*
D03*
X016400Y015050D02*
D03*
X024650Y022500D02*
D03*
X024217Y022467D02*
D03*
X023600Y022457D02*
D03*
X021250Y021500D02*
D03*
X022900Y021850D02*
D03*
X019650Y011950D02*
D03*
X014750Y013650D02*
D03*
X015200Y014050D02*
D03*
X015350Y016282D02*
D03*
X014400Y016400D02*
D03*
X013800Y014450D02*
D03*
X014725Y014105D02*
D03*
X016056Y012356D02*
D03*
X015150Y016800D02*
D03*
X015000Y019300D02*
D03*
X014350Y020650D02*
D03*
X015325Y020325D02*
D03*
X016500Y016850D02*
D03*
X016700Y017500D02*
D03*
X017100Y018950D02*
D03*
X012900Y022750D02*
D03*
X014200Y021300D02*
D03*
X027500Y014050D02*
D03*
X028000Y015400D02*
D03*
X027500Y015300D02*
D03*
X030900Y015350D02*
D03*
X030250Y016950D02*
D03*
X032400Y020950D02*
D03*
X032650Y020700D02*
D03*
X026150Y018500D02*
D03*
X027000Y020650D02*
D03*
X027500Y016481D02*
D03*
X028622Y016592D02*
D03*
X026250Y019350D02*
D03*
X026100Y018900D02*
D03*
X014581Y022781D02*
D03*
X037100Y020450D02*
D03*
X027885Y022785D02*
D03*
X031000Y020100D02*
D03*
X028500Y013250D02*
D03*
X024150Y012400D02*
D03*
X023750Y012300D02*
D03*
X029300Y013600D02*
D03*
X029750Y014450D02*
D03*
X035100Y023000D02*
D03*
X032793Y020243D02*
D03*
X032200Y022350D02*
D03*
X036595Y019700D02*
D03*
X035350Y019250D02*
D03*
X029200Y022250D02*
D03*
X026350Y024550D02*
D03*
X014900Y024500D02*
D03*
X017450Y017350D02*
D03*
X012250Y021900D02*
D03*
X013622Y016922D02*
D03*
X013435Y019565D02*
D03*
X012050Y018550D02*
D03*
X029450Y023750D02*
D03*
X029471Y024650D02*
D03*
X029600Y022700D02*
D03*
X029527Y016523D02*
D03*
X025982Y012532D02*
D03*
X027500Y019200D02*
D03*
X028700Y016200D02*
D03*
X019721Y014399D02*
D03*
X018900Y014850D02*
D03*
X020600Y016200D02*
D03*
X020642Y021808D02*
D03*
X026000Y016950D02*
D03*
X025250Y014250D02*
D03*
X012000Y017450D02*
D03*
M02*
