G04*
G04 #@! TF.GenerationSoftware,Altium Limited,CircuitStudio,1.5.2 (1.5.2.30)*
G04*
G04 Layer_Color=15065295*
%FSAX24Y24*%
%MOIN*%
G70*
G01*
G75*
%ADD81C,0.0100*%
%ADD82C,0.0079*%
%ADD83C,0.0030*%
%ADD84C,0.0040*%
%ADD85R,0.0050X0.0250*%
%ADD86R,0.0150X0.0150*%
%ADD87R,0.0500X0.0300*%
%ADD88R,0.0500X0.0800*%
%ADD89R,0.0200X0.0600*%
%ADD90R,0.0200X0.0200*%
%ADD91R,0.1000X0.0300*%
G36*
X037107Y013651D02*
X037173D01*
Y013644D01*
X037202Y013644D01*
Y013636D01*
X037232D01*
Y013629D01*
X037253D01*
Y013622D01*
X037268D01*
X037268Y013615D01*
X037290D01*
Y013607D01*
X037305D01*
Y013600D01*
X037319D01*
Y013593D01*
X037334Y013593D01*
Y013585D01*
X037341D01*
Y013578D01*
X037356D01*
Y013571D01*
X037370D01*
Y013563D01*
X037378Y013563D01*
Y013556D01*
X037385D01*
Y013549D01*
X037399D01*
Y013542D01*
X037407D01*
Y013534D01*
X037414D01*
Y013527D01*
X037429D01*
Y013520D01*
X037436D01*
Y013512D01*
X037443D01*
Y013505D01*
X037451D01*
Y013498D01*
X037458D01*
Y013490D01*
X037465D01*
Y013483D01*
X037473D01*
Y013476D01*
X037480D01*
Y013468D01*
X037487D01*
Y013461D01*
X037494D01*
Y013454D01*
X037502D01*
Y013447D01*
X037509D01*
Y013439D01*
X037516D01*
Y013432D01*
X037524D01*
Y013425D01*
X037531D01*
Y013417D01*
X037538D01*
Y013410D01*
X037546D01*
Y013403D01*
Y013395D01*
X037553D01*
X037553Y013388D01*
X037560D01*
Y013381D01*
X037567D01*
Y013374D01*
X037575D01*
Y013366D01*
X037582D01*
Y013359D01*
X037589D01*
Y013352D01*
Y013344D01*
X037597D01*
Y013337D01*
X037604D01*
Y013330D01*
X037611D01*
Y013322D01*
X037619D01*
Y013315D01*
X037626D01*
Y013308D01*
X037633Y013308D01*
Y013301D01*
X037648D01*
Y013293D01*
X037655D01*
Y013286D01*
X037670D01*
Y013279D01*
X037677D01*
Y013271D01*
X037692D01*
Y013264D01*
X037706D01*
X037706Y013257D01*
X037721D01*
Y013249D01*
X037735Y013249D01*
Y013242D01*
X037750D01*
Y013235D01*
X037772D01*
Y013227D01*
X037794D01*
Y013220D01*
X037823D01*
Y013213D01*
X037867D01*
X037867Y013206D01*
X037940D01*
X037940Y013213D01*
X037984D01*
Y013220D01*
X038006D01*
Y013227D01*
X038028D01*
Y013235D01*
X038042D01*
Y013242D01*
X038057D01*
Y013249D01*
X038071D01*
Y013257D01*
X038079D01*
Y013264D01*
X038086D01*
Y013271D01*
X038101D01*
Y013279D01*
X038108D01*
Y013286D01*
X038115D01*
Y013293D01*
X038122Y013293D01*
Y013301D01*
X038130D01*
Y013308D01*
X038137D01*
Y013315D01*
X038144D01*
Y013322D01*
Y013330D01*
X038152D01*
Y013337D01*
X038159D01*
Y013344D01*
Y013352D01*
X038166D01*
Y013359D01*
X038174D01*
Y013366D01*
Y013374D01*
X038181D01*
Y013381D01*
Y013388D01*
Y013395D01*
X038195D01*
Y013388D01*
Y013381D01*
X038188D01*
Y013374D01*
Y013366D01*
Y013359D01*
Y013352D01*
Y013344D01*
X038181D01*
Y013337D01*
Y013330D01*
Y013322D01*
X038174D01*
Y013315D01*
Y013308D01*
Y013301D01*
X038166D01*
Y013293D01*
Y013286D01*
Y013279D01*
X038159D01*
Y013271D01*
Y013264D01*
X038152D01*
Y013257D01*
Y013249D01*
X038144D01*
Y013242D01*
Y013235D01*
X038137D01*
Y013227D01*
Y013220D01*
X038130D01*
Y013213D01*
X038122D01*
X038122Y013206D01*
X038115D01*
Y013198D01*
Y013191D01*
X038108D01*
Y013184D01*
X038101D01*
Y013176D01*
X038093D01*
Y013169D01*
X038086D01*
Y013162D01*
X038079D01*
Y013154D01*
X038071D01*
Y013147D01*
X038057D01*
Y013140D01*
X038049D01*
Y013133D01*
X038035Y013133D01*
Y013125D01*
X038020D01*
Y013118D01*
X038013D01*
Y013111D01*
X037998D01*
Y013103D01*
X037984D01*
Y013096D01*
X037976D01*
Y013089D01*
X037969D01*
Y013081D01*
Y013074D01*
Y013067D01*
X037976D01*
Y013060D01*
X037998D01*
X037998Y013052D01*
X038020D01*
Y013045D01*
X038064D01*
Y013038D01*
X038188D01*
Y013045D01*
X038217D01*
Y013052D01*
X038247D01*
Y013060D01*
X038261D01*
Y013067D01*
X038276D01*
Y013074D01*
X038290D01*
Y013081D01*
X038305D01*
Y013089D01*
X038320D01*
Y013096D01*
X038327D01*
Y013103D01*
X038342D01*
Y013111D01*
X038349D01*
Y013118D01*
X038356D01*
Y013125D01*
X038363D01*
Y013133D01*
X038371D01*
Y013140D01*
X038378Y013140D01*
Y013147D01*
X038385D01*
Y013154D01*
X038393D01*
Y013162D01*
X038400D01*
Y013169D01*
X038407D01*
Y013176D01*
X038415D01*
Y013184D01*
Y013191D01*
X038422D01*
Y013198D01*
X038429D01*
Y013191D01*
Y013184D01*
X038422D01*
Y013176D01*
Y013169D01*
Y013162D01*
X038415D01*
Y013154D01*
Y013147D01*
Y013140D01*
X038407D01*
Y013133D01*
Y013125D01*
X038400D01*
Y013118D01*
Y013111D01*
X038393D01*
X038393Y013103D01*
Y013096D01*
X038385D01*
Y013089D01*
Y013081D01*
X038378D01*
Y013074D01*
Y013067D01*
X038371D01*
Y013060D01*
X038363D01*
X038363Y013052D01*
Y013045D01*
X038356D01*
Y013038D01*
X038349D01*
Y013030D01*
X038342D01*
Y013023D01*
X038334D01*
Y013016D01*
X038327D01*
Y013008D01*
X038320Y013008D01*
Y013001D01*
X038312D01*
Y012994D01*
X038305D01*
Y012987D01*
X038298D01*
Y012979D01*
X038290D01*
Y012972D01*
X038283D01*
Y012965D01*
X038276D01*
Y012957D01*
X038261D01*
Y012950D01*
X038283D01*
Y012943D01*
X038349D01*
Y012950D01*
X038385D01*
X038385Y012957D01*
X038415D01*
Y012965D01*
X038436D01*
Y012972D01*
X038451D01*
Y012979D01*
X038473D01*
Y012987D01*
X038488D01*
Y012994D01*
X038502D01*
Y013001D01*
X038517D01*
X038517Y013008D01*
X038531D01*
Y013016D01*
X038546D01*
Y013023D01*
X038561Y013023D01*
Y013030D01*
X038568D01*
Y013038D01*
X038575D01*
Y013045D01*
X038590D01*
Y013052D01*
X038597D01*
Y013060D01*
X038604D01*
Y013067D01*
Y013074D01*
X038612D01*
Y013081D01*
X038619D01*
X038619Y013089D01*
X038626D01*
Y013096D01*
Y013103D01*
X038634D01*
Y013111D01*
Y013118D01*
X038641D01*
Y013125D01*
Y013133D01*
X038648D01*
Y013140D01*
Y013147D01*
X038656D01*
Y013154D01*
Y013162D01*
X038663D01*
Y013169D01*
Y013176D01*
X038670D01*
Y013184D01*
Y013191D01*
Y013198D01*
Y013206D01*
X038677D01*
Y013213D01*
Y013220D01*
Y013227D01*
X038685D01*
Y013235D01*
Y013242D01*
Y013249D01*
Y013257D01*
Y013264D01*
Y013271D01*
X038692D01*
Y013279D01*
Y013286D01*
Y013293D01*
Y013301D01*
Y013308D01*
X038692Y013315D01*
Y013322D01*
Y013330D01*
Y013337D01*
X038692Y013344D01*
Y013352D01*
Y013359D01*
Y013366D01*
Y013374D01*
Y013381D01*
Y013388D01*
Y013395D01*
Y013403D01*
Y013410D01*
Y013417D01*
Y013425D01*
Y013432D01*
Y013439D01*
Y013447D01*
Y013454D01*
Y013461D01*
X038685D01*
Y013468D01*
Y013476D01*
Y013483D01*
Y013490D01*
X038685Y013498D01*
Y013505D01*
Y013512D01*
X038677D01*
Y013520D01*
Y013527D01*
Y013534D01*
Y013542D01*
Y013549D01*
X038670D01*
Y013556D01*
Y013563D01*
X038685D01*
Y013556D01*
X038692D01*
Y013549D01*
X038707D01*
Y013542D01*
X038714D01*
Y013534D01*
X038721D01*
Y013527D01*
X038736D01*
Y013520D01*
X038743D01*
Y013512D01*
X038750D01*
Y013505D01*
X038765D01*
Y013498D01*
X038772D01*
Y013490D01*
X038780D01*
Y013483D01*
X038787D01*
Y013476D01*
X038794D01*
Y013468D01*
X038802D01*
Y013461D01*
X038809D01*
Y013454D01*
X038816D01*
Y013447D01*
X038823D01*
X038823Y013439D01*
X038831D01*
Y013432D01*
X038838D01*
Y013425D01*
Y013417D01*
X038845D01*
Y013410D01*
X038853D01*
Y013403D01*
X038860D01*
Y013395D01*
Y013388D01*
X038867D01*
Y013381D01*
Y013374D01*
X038875D01*
Y013366D01*
X038882D01*
Y013359D01*
Y013352D01*
X038889D01*
Y013344D01*
Y013337D01*
Y013330D01*
X038897D01*
Y013322D01*
Y013315D01*
Y013308D01*
X038904D01*
Y013301D01*
Y013293D01*
Y013286D01*
X038911D01*
Y013279D01*
Y013271D01*
Y013264D01*
Y013257D01*
Y013249D01*
Y013242D01*
X038918D01*
Y013235D01*
Y013227D01*
Y013220D01*
Y013213D01*
X038918Y013206D01*
Y013198D01*
Y013191D01*
X038926D01*
X038926Y013184D01*
Y013176D01*
Y013169D01*
Y013162D01*
Y013154D01*
Y013147D01*
Y013140D01*
Y013133D01*
Y013125D01*
Y013118D01*
Y013111D01*
Y013103D01*
Y013096D01*
Y013089D01*
Y013081D01*
Y013074D01*
Y013067D01*
Y013060D01*
Y013052D01*
Y013045D01*
Y013038D01*
X038926Y013030D01*
Y013023D01*
X038889D01*
Y013030D01*
X038838D01*
Y013038D01*
X038743D01*
Y013030D01*
X038707Y013030D01*
Y013023D01*
X038685D01*
Y013016D01*
X038663D01*
Y013008D01*
X038648D01*
Y013001D01*
X038634D01*
Y012994D01*
X038626Y012994D01*
Y012987D01*
X038612D01*
Y012979D01*
X038604D01*
Y012972D01*
X038590D01*
Y012965D01*
X038583D01*
Y012957D01*
X038575D01*
X038575Y012950D01*
X038561D01*
Y012943D01*
X038553D01*
Y012935D01*
X038546D01*
Y012928D01*
X038531D01*
Y012921D01*
X038524D01*
Y012913D01*
X038509D01*
Y012906D01*
X038502D01*
Y012899D01*
X038488D01*
Y012892D01*
X038473D01*
Y012884D01*
X038458D01*
Y012877D01*
X038436D01*
Y012870D01*
X038415D01*
Y012862D01*
X038385Y012862D01*
Y012855D01*
X038349Y012855D01*
Y012848D01*
X038166D01*
Y012855D01*
X038122Y012855D01*
Y012862D01*
X038086Y012862D01*
Y012870D01*
X038057Y012870D01*
Y012877D01*
X038035Y012877D01*
Y012884D01*
X038020D01*
Y012892D01*
X037998D01*
Y012899D01*
X037984D01*
Y012906D01*
X037962D01*
Y012913D01*
X037947D01*
Y012921D01*
X037933D01*
Y012928D01*
X037911D01*
Y012935D01*
X037896D01*
Y012943D01*
X037881Y012943D01*
Y012950D01*
X037860Y012950D01*
Y012957D01*
X037845D01*
Y012965D01*
X037823D01*
Y012972D01*
X037779D01*
Y012965D01*
X037765D01*
Y012957D01*
X037757D01*
Y012950D01*
X037750D01*
Y012943D01*
Y012935D01*
X037743D01*
Y012928D01*
Y012921D01*
X037735D01*
Y012913D01*
Y012906D01*
Y012899D01*
X037728Y012899D01*
Y012892D01*
Y012884D01*
Y012877D01*
Y012870D01*
Y012862D01*
Y012855D01*
Y012848D01*
Y012840D01*
Y012833D01*
Y012826D01*
Y012819D01*
Y012811D01*
Y012804D01*
X037735Y012804D01*
Y012797D01*
Y012789D01*
Y012782D01*
X037743D01*
Y012775D01*
Y012767D01*
Y012760D01*
X037750D01*
Y012753D01*
Y012746D01*
X037757D01*
Y012738D01*
Y012731D01*
Y012724D01*
X037765Y012724D01*
Y012716D01*
X037772D01*
Y012709D01*
Y012702D01*
X037779D01*
Y012694D01*
Y012687D01*
X037787Y012687D01*
Y012680D01*
Y012672D01*
X037794D01*
Y012665D01*
X037801D01*
Y012658D01*
Y012651D01*
X037808D01*
Y012643D01*
X037816D01*
Y012636D01*
X037823D01*
Y012629D01*
X037830D01*
Y012621D01*
X037830Y012614D01*
X037823D01*
X037823Y012621D01*
X037808D01*
Y012629D01*
X037794D01*
Y012636D01*
X037779D01*
Y012643D01*
X037765D01*
Y012651D01*
X037757D01*
Y012658D01*
X037743D01*
Y012665D01*
X037735D01*
Y012672D01*
X037721D01*
Y012680D01*
X037713D01*
Y012687D01*
X037699D01*
Y012694D01*
X037692D01*
X037692Y012702D01*
X037684D01*
Y012709D01*
X037677D01*
Y012716D01*
X037662D01*
Y012724D01*
X037655Y012724D01*
Y012731D01*
X037648D01*
Y012738D01*
X037640D01*
Y012746D01*
X037633D01*
Y012753D01*
X037626Y012753D01*
Y012760D01*
X037619D01*
Y012767D01*
X037611D01*
Y012775D01*
X037604D01*
Y012782D01*
Y012789D01*
X037597D01*
Y012797D01*
X037589D01*
Y012804D01*
X037582D01*
Y012811D01*
X037575D01*
Y012819D01*
X037575Y012826D01*
X037567D01*
Y012833D01*
X037560D01*
Y012840D01*
X037553Y012840D01*
Y012848D01*
Y012855D01*
X037546D01*
Y012862D01*
X037538D01*
Y012870D01*
Y012877D01*
X037531D01*
X037531Y012884D01*
Y012892D01*
X037524D01*
Y012899D01*
Y012906D01*
X037516D01*
Y012913D01*
Y012921D01*
X037509D01*
Y012928D01*
Y012935D01*
X037502D01*
Y012943D01*
Y012950D01*
Y012957D01*
X037494D01*
Y012965D01*
Y012972D01*
X037487D01*
Y012979D01*
Y012987D01*
X037480D01*
Y012994D01*
Y013001D01*
X037473Y013001D01*
Y013008D01*
Y013016D01*
X037465D01*
Y013023D01*
Y013030D01*
X037458D01*
Y013038D01*
Y013045D01*
X037451D01*
Y013052D01*
Y013060D01*
X037443D01*
Y013067D01*
Y013074D01*
X037436D01*
Y013081D01*
Y013089D01*
X037429D01*
Y013096D01*
Y013103D01*
X037421D01*
Y013111D01*
X037414D01*
Y013118D01*
Y013125D01*
X037407D01*
Y013133D01*
Y013140D01*
X037399D01*
Y013147D01*
X037392D01*
Y013154D01*
X037392Y013162D01*
X037385D01*
Y013169D01*
X037378D01*
Y013176D01*
Y013184D01*
X037370D01*
X037370Y013191D01*
X037363D01*
Y013198D01*
X037356D01*
Y013206D01*
X037348D01*
Y013213D01*
X037341D01*
Y013220D01*
X037334D01*
Y013227D01*
X037326D01*
Y013235D01*
X037319D01*
Y013242D01*
X037312D01*
Y013249D01*
X037305D01*
Y013257D01*
X037290Y013257D01*
Y013264D01*
X037283D01*
Y013271D01*
X037268D01*
Y013279D01*
X037261D01*
Y013286D01*
X037246D01*
Y013293D01*
X037224D01*
Y013301D01*
X037210D01*
Y013308D01*
X037180Y013308D01*
Y013315D01*
X037049Y013315D01*
Y013308D01*
X037012Y013308D01*
Y013301D01*
X036991Y013301D01*
Y013293D01*
X036969D01*
Y013286D01*
X036947D01*
Y013279D01*
X036932D01*
Y013271D01*
X036917D01*
Y013264D01*
X036903D01*
Y013257D01*
X036888Y013257D01*
Y013249D01*
X036874D01*
Y013242D01*
X036859Y013242D01*
Y013235D01*
X036844D01*
Y013227D01*
X036830D01*
Y013220D01*
X036823D01*
Y013213D01*
X036808D01*
Y013206D01*
X036801D01*
Y013198D01*
X036786D01*
Y013191D01*
X036779D01*
Y013184D01*
X036771D01*
Y013176D01*
X036757D01*
Y013169D01*
X036750D01*
Y013162D01*
X036742D01*
Y013154D01*
X036735D01*
Y013147D01*
X036728D01*
Y013140D01*
X036720D01*
Y013133D01*
X036713D01*
Y013125D01*
X036698D01*
Y013118D01*
Y013111D01*
X036691D01*
Y013103D01*
X036684D01*
Y013096D01*
X036676D01*
Y013089D01*
X036669D01*
Y013081D01*
X036662D01*
Y013074D01*
X036655D01*
Y013067D01*
X036647D01*
Y013060D01*
Y013052D01*
X036640D01*
Y013045D01*
X036633D01*
Y013038D01*
X036625D01*
Y013030D01*
Y013023D01*
X036618D01*
Y013016D01*
X036611D01*
Y013008D01*
Y013001D01*
X036603Y013001D01*
Y012994D01*
Y012987D01*
X036596D01*
Y012979D01*
X036589D01*
Y012972D01*
Y012965D01*
X036582D01*
Y012957D01*
X036582Y012950D01*
X036574D01*
Y012943D01*
Y012935D01*
X036567D01*
X036567Y012928D01*
Y012921D01*
X036560D01*
Y012913D01*
Y012906D01*
Y012899D01*
X036545D01*
X036545Y012906D01*
Y012913D01*
Y012921D01*
Y012928D01*
Y012935D01*
Y012943D01*
Y012950D01*
Y012957D01*
Y012965D01*
Y012972D01*
X036538D01*
Y012979D01*
Y012987D01*
Y012994D01*
Y013001D01*
Y013008D01*
Y013016D01*
Y013023D01*
Y013030D01*
Y013038D01*
Y013045D01*
Y013052D01*
X036538Y013060D01*
X036545D01*
Y013067D01*
Y013074D01*
Y013081D01*
X036545Y013089D01*
Y013096D01*
Y013103D01*
Y013111D01*
Y013118D01*
Y013125D01*
X036552D01*
Y013133D01*
Y013140D01*
Y013147D01*
Y013154D01*
Y013162D01*
X036560D01*
Y013169D01*
Y013176D01*
Y013184D01*
X036560Y013191D01*
Y013198D01*
X036567D01*
Y013206D01*
X036567Y013213D01*
Y013220D01*
X036574D01*
Y013227D01*
Y013235D01*
Y013242D01*
X036582D01*
Y013249D01*
Y013257D01*
X036582Y013264D01*
X036589D01*
Y013271D01*
Y013279D01*
X036596D01*
Y013286D01*
Y013293D01*
Y013301D01*
X036603D01*
Y013308D01*
Y013315D01*
X036611D01*
Y013322D01*
Y013330D01*
X036618D01*
Y013337D01*
X036618Y013344D01*
X036625D01*
Y013352D01*
Y013359D01*
X036633D01*
Y013366D01*
Y013374D01*
X036640D01*
Y013381D01*
X036647D01*
Y013388D01*
Y013395D01*
X036655D01*
Y013403D01*
Y013410D01*
X036662D01*
Y013417D01*
X036669D01*
Y013425D01*
Y013432D01*
X036676D01*
Y013439D01*
X036684D01*
X036684Y013447D01*
X036691D01*
Y013454D01*
Y013461D01*
X036698D01*
Y013468D01*
X036706D01*
Y013476D01*
X036713D01*
Y013483D01*
X036720D01*
Y013490D01*
X036728D01*
Y013498D01*
Y013505D01*
X036735D01*
Y013512D01*
X036742D01*
Y013520D01*
X036750D01*
Y013527D01*
X036757D01*
Y013534D01*
X036771D01*
Y013542D01*
X036779D01*
Y013549D01*
X036786D01*
Y013556D01*
X036793D01*
Y013563D01*
X036801D01*
Y013571D01*
X036815Y013571D01*
Y013578D01*
X036823D01*
Y013585D01*
X036837D01*
Y013593D01*
X036844D01*
Y013600D01*
X036859D01*
Y013607D01*
X036874D01*
Y013615D01*
X036888D01*
Y013622D01*
X036910D01*
Y013629D01*
X036932Y013629D01*
Y013636D01*
X036954Y013636D01*
Y013644D01*
X036991D01*
Y013651D01*
X037056D01*
Y013658D01*
X037107D01*
Y013651D01*
D02*
G37*
G36*
X028650Y016750D02*
X028850D01*
Y016350D01*
X028650D01*
Y016250D01*
X028250D01*
Y016850D01*
X028650D01*
Y016750D01*
D02*
G37*
D81*
X021459Y018169D02*
G03*
X021459Y018169I-000039J000000D01*
G01*
X023849Y015833D02*
G03*
X023849Y015833I-000039J000000D01*
G01*
X032833Y017896D02*
G03*
X032833Y017896I-000039J000000D01*
G01*
X016685Y020457D02*
G03*
X016685Y020457I-000039J000000D01*
G01*
X029327Y015151D02*
G03*
X029327Y015151I-000039J000000D01*
G01*
X030197Y022000D02*
G03*
X030000Y021803I000000J-000197D01*
G01*
Y012748D02*
G03*
X030197Y012551I000197J000000D01*
G01*
X039646D02*
G03*
X039843Y012748I000000J000197D01*
G01*
Y021803D02*
G03*
X039646Y022000I-000197J000000D01*
G01*
X026032Y013972D02*
G03*
X026032Y013972I-000050J000000D01*
G01*
X016009Y024557D02*
G03*
X016009Y024557I-000044J000000D01*
G01*
X036731Y021750D02*
G03*
X036731Y021750I-001811J000000D01*
G01*
X012681Y013500D02*
G03*
X012681Y013500I-001181J000000D01*
G01*
X029500Y021500D02*
G03*
X029500Y020500I-001000J-000500D01*
G01*
X025945Y018406D02*
G03*
X025945Y018406I-000039J000000D01*
G01*
X018498Y013972D02*
G03*
X018498Y013972I-000039J000000D01*
G01*
X022630Y021591D02*
G03*
X022630Y021591I-000039J000000D01*
G01*
X012681Y023500D02*
G03*
X012681Y023500I-001181J000000D01*
G01*
X039681D02*
G03*
X039681Y023500I-001181J000000D01*
G01*
X027594Y018406D02*
Y018917D01*
X027476Y018563D02*
X027713Y018563D01*
X027594Y018720D02*
X027713Y018563D01*
X027476Y018563D02*
X027594Y018720D01*
X027476Y018760D02*
X027713Y018760D01*
X021262Y016713D02*
Y018287D01*
X020238Y016713D02*
Y018287D01*
X024006Y015046D02*
X024794D01*
X024006Y015754D02*
X024794D01*
X020663Y013565D02*
X020900D01*
X020663Y012384D02*
Y013565D01*
Y012384D02*
X023341Y012384D01*
X023341Y013565D01*
X023065D02*
X023341D01*
X039567Y010016D02*
Y011984D01*
X010433Y010016D02*
Y011984D01*
X039567D01*
X010433Y010016D02*
X039567D01*
X019120Y022224D02*
Y022756D01*
X020360Y022244D02*
Y022756D01*
X018545Y017144D02*
X018939D01*
Y016356D02*
Y017144D01*
X018152Y016356D02*
X018348D01*
X017561Y017144D02*
X017955D01*
X017561Y016356D02*
Y017144D01*
X028362Y024250D02*
X028618Y023994D01*
X028618Y023994D02*
Y024506D01*
X028343Y023994D02*
Y024506D01*
X028362Y024250D02*
X028618Y024506D01*
X027600Y015150D02*
X027800D01*
X027700Y015250D02*
X027700Y015050D01*
X028300Y014400D02*
Y014800D01*
Y014400D02*
X028650Y014600D01*
X028300Y014800D02*
X028650Y014600D01*
Y014350D02*
Y014850D01*
X016250Y015250D02*
X016250Y019250D01*
X015250Y015250D02*
X016250D01*
X015250Y019250D02*
X015250Y015250D01*
X015250Y019250D02*
X015250Y020250D01*
X015250Y019250D02*
X015250Y020250D01*
X015250Y019250D02*
X016250D01*
X016250Y020250D02*
X016250Y019250D01*
X015250Y020250D02*
X016250D01*
X030000Y012748D02*
Y021803D01*
X030197Y012551D02*
X039646D01*
X039646D01*
X039843Y021803D02*
X039843Y012748D01*
X030197Y022000D02*
X039646D01*
X039449Y012551D02*
Y013732D01*
X030394D02*
X039449D01*
X030394Y012551D02*
Y013732D01*
X032952Y022459D02*
X033109Y022813D01*
X032952Y022459D02*
X033227Y022341D01*
X033109Y022813D02*
X033385Y022695D01*
X027950Y017050D02*
Y017250D01*
X027850Y017150D02*
X028050D01*
X029500Y020500D02*
Y021500D01*
X017514Y012909D02*
X017986D01*
X017514Y014091D02*
X017986D01*
X013016Y014266D02*
X014945D01*
X012937Y014935D02*
Y015565D01*
X015063Y014935D02*
Y015565D01*
X013016Y016234D02*
X014945D01*
X013488Y015762D02*
X014512D01*
Y014974D02*
Y015762D01*
X014197Y014659D02*
X014512Y014974D01*
X013488Y014659D02*
X014197D01*
X013488D02*
Y015762D01*
X028362Y023250D02*
X028618Y022994D01*
X028618Y022994D02*
Y023506D01*
X028343Y022994D02*
Y023506D01*
X028362Y023250D02*
X028618Y023506D01*
X038295Y018644D02*
X038689D01*
Y017856D02*
Y018644D01*
X037902Y017856D02*
X038098D01*
X037311Y018644D02*
X037705D01*
X037311Y017856D02*
Y018644D01*
X016045Y013144D02*
X016439D01*
Y012356D02*
Y013144D01*
X015652Y012356D02*
X015848D01*
X015061Y013144D02*
X015455D01*
X015061Y012356D02*
Y013144D01*
X024974Y022380D02*
X025506D01*
X024994Y021140D02*
X025506D01*
X013016Y020266D02*
X014945D01*
X012937Y020935D02*
Y021565D01*
X015063Y020935D02*
Y021565D01*
X013016Y022234D02*
X014945D01*
X013488Y021762D02*
X014512D01*
Y020974D02*
Y021762D01*
X014197Y020659D02*
X014512Y020974D01*
X013488Y020659D02*
X014197D01*
X013488D02*
Y021762D01*
X013016Y017266D02*
X014945D01*
X012937Y017935D02*
Y018565D01*
X015063Y017935D02*
Y018565D01*
X013016Y019234D02*
X014945D01*
X013488Y018762D02*
X014512D01*
Y017974D02*
Y018762D01*
X014197Y017659D02*
X014512Y017974D01*
X013488Y017659D02*
X014197D01*
X013488D02*
Y018762D01*
X030900Y013150D02*
X030700D01*
Y012850D01*
X030900D01*
X030700Y013000D02*
X030800D01*
X031000Y013150D02*
Y012850D01*
X031200D01*
X031500Y013150D02*
X031300D01*
Y012850D01*
X031500D01*
X031300Y013000D02*
X031400D01*
X031800Y013100D02*
X031750Y013150D01*
X031650D01*
X031600Y013100D01*
Y012900D01*
X031650Y012850D01*
X031750D01*
X031800Y012900D01*
X031900Y013150D02*
X032100D01*
X032000D01*
Y012850D01*
X032200D02*
Y013150D01*
X032349D01*
X032399Y013100D01*
Y013000D01*
X032349Y012950D01*
X032200D01*
X032299D02*
X032399Y012850D01*
X032499Y013150D02*
X032599D01*
X032549D01*
Y012850D01*
X032499D01*
X032599D01*
X032949Y013100D02*
X032899Y013150D01*
X032799D01*
X032749Y013100D01*
Y012900D01*
X032799Y012850D01*
X032899D01*
X032949Y012900D01*
X033349Y012850D02*
Y013150D01*
X033499D01*
X033549Y013100D01*
Y013000D01*
X033499Y012950D01*
X033349D01*
X033449D02*
X033549Y012850D01*
X033649D02*
Y013050D01*
X033749Y013150D01*
X033849Y013050D01*
Y012850D01*
Y013000D01*
X033649D01*
X033949Y013150D02*
Y013100D01*
X034049Y013000D01*
X034149Y013100D01*
Y013150D01*
X034049Y013000D02*
Y012850D01*
X034549Y013150D02*
Y012850D01*
X034749D01*
X034849D02*
Y013050D01*
X034949Y013150D01*
X035049Y013050D01*
Y012850D01*
Y013000D01*
X034849D01*
X035149Y013150D02*
Y012850D01*
X035299D01*
X035348Y012900D01*
Y012950D01*
X035299Y013000D01*
X035149D01*
X035299D01*
X035348Y013050D01*
Y013100D01*
X035299Y013150D01*
X035149D01*
X035648Y013100D02*
X035598Y013150D01*
X035498D01*
X035448Y013100D01*
Y013050D01*
X035498Y013000D01*
X035598D01*
X035648Y012950D01*
Y012900D01*
X035598Y012850D01*
X035498D01*
X035448Y012900D01*
D82*
X031875Y018000D02*
G03*
X031625Y018000I-000125J000000D01*
G01*
X016750Y021375D02*
G03*
X016750Y021625I000000J000125D01*
G01*
X016102Y023829D02*
G03*
X016102Y023671I000000J-000079D01*
G01*
X026528Y016923D02*
X027472D01*
X026528D02*
Y018577D01*
X027472D01*
Y016923D02*
Y018577D01*
X031875Y018000D02*
X032293D01*
X031291D02*
X031625D01*
X031291D02*
Y020000D01*
X032293D01*
Y018000D02*
Y020000D01*
X032093Y018000D02*
Y020000D01*
X016750Y021157D02*
X018750D01*
X016750Y020957D02*
X018750D01*
Y021959D01*
X016750D02*
X018750D01*
X016750Y021625D02*
Y021959D01*
Y020957D02*
Y021375D01*
X016102Y023100D02*
Y023829D01*
Y023671D02*
Y024400D01*
X013898Y023100D02*
Y024400D01*
X021528Y020173D02*
X022472D01*
X021528Y021827D02*
X022472D01*
X023500Y020533D02*
Y020967D01*
X018000Y023033D02*
Y023467D01*
X023283Y021750D02*
X023717D01*
X024033D02*
X024467D01*
X026033D02*
X026467D01*
X026783D02*
X027217D01*
X019750Y020533D02*
Y020967D01*
Y021283D02*
Y021717D01*
Y023283D02*
Y023717D01*
Y024033D02*
Y024467D01*
X030750Y014033D02*
Y014467D01*
Y014783D02*
Y015217D01*
X024250Y012683D02*
Y013117D01*
X034500Y019033D02*
Y019467D01*
X025883Y015000D02*
X026317D01*
X018000Y023783D02*
Y024217D01*
X020150Y014633D02*
Y015067D01*
X016783Y023750D02*
X017217D01*
X028250Y017383D02*
Y017817D01*
X026783Y019250D02*
X027217D01*
X024750Y020533D02*
Y020967D01*
X026000Y020533D02*
Y020967D01*
X023500Y018533D02*
Y018967D01*
X017750Y012333D02*
Y012767D01*
X017133Y014850D02*
X017567D01*
X024600Y013583D02*
Y014017D01*
Y014283D02*
Y014717D01*
X035750Y023933D02*
Y024367D01*
X034400Y023983D02*
Y024417D01*
X019783Y019250D02*
X020217D01*
X020533D02*
X020967D01*
X021783Y023000D02*
X022217D01*
X024671Y024112D02*
X024829D01*
X024671Y024388D02*
X024829D01*
X016112Y021921D02*
Y022079D01*
X016388Y021921D02*
Y022079D01*
X016388Y020921D02*
Y021079D01*
X016112Y020921D02*
Y021079D01*
X018421Y015638D02*
X018579D01*
X018421Y015362D02*
X018579D01*
X012871Y012438D02*
X013029D01*
X012871Y012162D02*
X013029D01*
X021671Y015538D02*
X021829D01*
X021671Y015262D02*
X021829D01*
X019888Y013671D02*
Y013829D01*
X019612Y013671D02*
Y013829D01*
X015638Y020921D02*
Y021079D01*
X015362Y020921D02*
Y021079D01*
X028421Y013612D02*
X028579D01*
X028421Y013888D02*
X028579D01*
X033362Y019421D02*
Y019579D01*
X033638Y019421D02*
Y019579D01*
X026962Y014921D02*
Y015079D01*
X027238Y014921D02*
Y015079D01*
X023421Y017138D02*
X023579D01*
X023421Y016862D02*
X023579D01*
X023421Y017638D02*
X023579D01*
X023421Y017362D02*
X023579D01*
X025638Y019421D02*
Y019579D01*
X025362Y019421D02*
Y019579D01*
X023421Y016138D02*
X023579D01*
X023421Y015862D02*
X023579D01*
X023421Y016638D02*
X023579D01*
X023421Y016362D02*
X023579D01*
X015362Y021921D02*
Y022079D01*
X015638Y021921D02*
Y022079D01*
X024862Y019421D02*
Y019579D01*
X025138Y019421D02*
Y019579D01*
X024262Y019421D02*
Y019579D01*
X024538Y019421D02*
Y019579D01*
X024421Y016138D02*
X024579D01*
X024421Y015862D02*
X024579D01*
X023421Y017862D02*
X023579D01*
X023421Y018138D02*
X023579D01*
X025421Y016138D02*
X025579D01*
X025421Y015862D02*
X025579D01*
X016888Y012671D02*
Y012829D01*
X016612Y012671D02*
Y012829D01*
X037638Y020171D02*
Y020329D01*
X037362Y020171D02*
Y020329D01*
X019421Y017138D02*
X019579D01*
X019421Y016862D02*
X019579D01*
X021921Y016862D02*
X022079D01*
X021921Y017138D02*
X022079D01*
X036862Y018921D02*
Y019079D01*
X037138Y018921D02*
Y019079D01*
X012638Y017921D02*
Y018079D01*
X012362Y017921D02*
Y018079D01*
X013921Y013362D02*
X014079D01*
X013921Y013638D02*
X014079D01*
X017638Y017921D02*
Y018079D01*
X017362Y017921D02*
Y018079D01*
X022888Y022921D02*
Y023079D01*
X022612Y022921D02*
Y023079D01*
X013921Y012638D02*
X014079D01*
X013921Y012362D02*
X014079D01*
X016862Y016671D02*
Y016829D01*
X017138Y016671D02*
Y016829D01*
X018077Y019028D02*
Y019972D01*
X016423Y019028D02*
X018077D01*
X016423D02*
Y019972D01*
X018077D01*
X021671Y014888D02*
X021829D01*
X021671Y014612D02*
X021829D01*
X018421Y015138D02*
X018579D01*
X018421Y014862D02*
X018579D01*
X025362Y014921D02*
Y015079D01*
X025638Y014921D02*
Y015079D01*
X032512Y014321D02*
Y014479D01*
X032788Y014321D02*
Y014479D01*
D83*
X026080Y017550D02*
X026133D01*
X026240Y017657D01*
X026133Y017763D01*
X026080D01*
X026240Y017657D02*
X026400D01*
Y018030D02*
X026080D01*
X026240Y017870D01*
Y018083D01*
X029330Y018400D02*
X029650D01*
Y018560D01*
X029597Y018613D01*
X029383D01*
X029330Y018560D01*
Y018400D01*
X029597Y018720D02*
X029650Y018773D01*
Y018880D01*
X029597Y018933D01*
X029383D01*
X029330Y018880D01*
Y018773D01*
X029383Y018720D01*
X029437D01*
X029490Y018773D01*
Y018933D01*
X020850Y016470D02*
Y016203D01*
X020903Y016150D01*
X021010D01*
X021063Y016203D01*
Y016470D01*
X021170Y016150D02*
X021277D01*
X021223D01*
Y016470D01*
X021170Y016417D01*
X021650Y016470D02*
X021543Y016417D01*
X021436Y016310D01*
Y016203D01*
X021490Y016150D01*
X021596D01*
X021650Y016203D01*
Y016257D01*
X021596Y016310D01*
X021436D01*
X022600Y015320D02*
Y015053D01*
X022653Y015000D01*
X022760D01*
X022813Y015053D01*
Y015320D01*
X022920Y015000D02*
X023027D01*
X022973D01*
Y015320D01*
X022920Y015267D01*
X023346Y015000D02*
Y015320D01*
X023186Y015160D01*
X023400D01*
X022600Y014020D02*
Y013753D01*
X022653Y013700D01*
X022760D01*
X022813Y013753D01*
Y014020D01*
X022920Y013700D02*
X023027D01*
X022973D01*
Y014020D01*
X022920Y013967D01*
X023186Y013700D02*
X023293D01*
X023240D01*
Y014020D01*
X023186Y013967D01*
X019713Y018353D02*
Y018567D01*
X019660Y018620D01*
X019553D01*
X019500Y018567D01*
Y018353D01*
X019553Y018300D01*
X019660D01*
X019607Y018407D02*
X019713Y018300D01*
X019660D02*
X019713Y018353D01*
X020033Y018620D02*
X019927Y018567D01*
X019820Y018460D01*
Y018353D01*
X019873Y018300D01*
X019980D01*
X020033Y018353D01*
Y018407D01*
X019980Y018460D01*
X019820D01*
X010680Y010450D02*
X011000D01*
Y010663D01*
X010680Y010983D02*
Y010770D01*
X011000D01*
Y010983D01*
X010840Y010770D02*
Y010877D01*
X010680Y011090D02*
X011000D01*
Y011250D01*
X010947Y011303D01*
X010733D01*
X010680Y011250D01*
Y011090D01*
X011000Y011410D02*
Y011516D01*
Y011463D01*
X010680D01*
X010733Y011410D01*
X020330Y022950D02*
X020597D01*
X020650Y023003D01*
Y023110D01*
X020597Y023163D01*
X020330D01*
X020650Y023430D02*
X020330D01*
X020490Y023270D01*
Y023483D01*
X019247Y016413D02*
X019033D01*
X018980Y016360D01*
Y016253D01*
X019033Y016200D01*
X019247D01*
X019300Y016253D01*
Y016360D01*
X019193Y016307D02*
X019300Y016413D01*
Y016360D02*
X019247Y016413D01*
X019033Y016520D02*
X018980Y016573D01*
Y016680D01*
X019033Y016733D01*
X019087D01*
X019140Y016680D01*
X019193Y016733D01*
X019247D01*
X019300Y016680D01*
Y016573D01*
X019247Y016520D01*
X019193D01*
X019140Y016573D01*
X019087Y016520D01*
X019033D01*
X019140Y016573D02*
Y016680D01*
X031350Y020470D02*
Y020203D01*
X031403Y020150D01*
X031510D01*
X031563Y020203D01*
Y020470D01*
X031670Y020417D02*
X031723Y020470D01*
X031830D01*
X031883Y020417D01*
Y020363D01*
X031830Y020310D01*
X031883Y020257D01*
Y020203D01*
X031830Y020150D01*
X031723D01*
X031670Y020203D01*
Y020257D01*
X031723Y020310D01*
X031670Y020363D01*
Y020417D01*
X031723Y020310D02*
X031830D01*
X027100Y024470D02*
Y024150D01*
X027260D01*
X027313Y024203D01*
Y024417D01*
X027260Y024470D01*
X027100D01*
X027420Y024417D02*
X027473Y024470D01*
X027580D01*
X027633Y024417D01*
Y024363D01*
X027580Y024310D01*
X027527D01*
X027580D01*
X027633Y024257D01*
Y024203D01*
X027580Y024150D01*
X027473D01*
X027420Y024203D01*
X018730Y020250D02*
X018997D01*
X019050Y020303D01*
Y020410D01*
X018997Y020463D01*
X018730D01*
X019050Y020783D02*
Y020570D01*
X018837Y020783D01*
X018783D01*
X018730Y020730D01*
Y020623D01*
X018783Y020570D01*
X028250Y015320D02*
Y015000D01*
X028410D01*
X028463Y015053D01*
Y015267D01*
X028410Y015320D01*
X028250D01*
X028570Y015267D02*
X028623Y015320D01*
X028730D01*
X028783Y015267D01*
Y015213D01*
X028730Y015160D01*
X028783Y015107D01*
Y015053D01*
X028730Y015000D01*
X028623D01*
X028570Y015053D01*
Y015107D01*
X028623Y015160D01*
X028570Y015213D01*
Y015267D01*
X028623Y015160D02*
X028730D01*
X016330Y017913D02*
Y017807D01*
Y017860D01*
X016597D01*
X016650Y017807D01*
Y017753D01*
X016597Y017700D01*
X016330Y018233D02*
X016383Y018127D01*
X016490Y018020D01*
X016597D01*
X016650Y018073D01*
Y018180D01*
X016597Y018233D01*
X016543D01*
X016490Y018180D01*
Y018020D01*
X027400Y012570D02*
Y012303D01*
X027453Y012250D01*
X027560D01*
X027613Y012303D01*
Y012570D01*
X027933D02*
X027827Y012517D01*
X027720Y012410D01*
Y012303D01*
X027773Y012250D01*
X027880D01*
X027933Y012303D01*
Y012357D01*
X027880Y012410D01*
X027720D01*
X013430Y023400D02*
X013697D01*
X013750Y023453D01*
Y023560D01*
X013697Y023613D01*
X013430D01*
X013750Y023720D02*
Y023827D01*
Y023773D01*
X013430D01*
X013483Y023720D01*
X013750Y024200D02*
Y023986D01*
X013537Y024200D01*
X013483D01*
X013430Y024146D01*
Y024040D01*
X013483Y023986D01*
X033000Y023570D02*
Y023303D01*
X033053Y023250D01*
X033160D01*
X033213Y023303D01*
Y023570D01*
X033320Y023250D02*
X033427D01*
X033373D01*
Y023570D01*
X033320Y023517D01*
X033800Y023570D02*
X033586D01*
Y023410D01*
X033693Y023463D01*
X033746D01*
X033800Y023410D01*
Y023303D01*
X033746Y023250D01*
X033640D01*
X033586Y023303D01*
X010360Y020550D02*
Y020763D01*
X010467Y020870D01*
X010573Y020763D01*
Y020550D01*
Y020710D01*
X010360D01*
X010893Y020870D02*
X010680D01*
Y020550D01*
X010893D01*
X010680Y020710D02*
X010787D01*
X011000Y020550D02*
X011106D01*
X011053D01*
Y020870D01*
X011000Y020817D01*
X027500Y016120D02*
Y015800D01*
X027660D01*
X027713Y015853D01*
Y016067D01*
X027660Y016120D01*
X027500D01*
X027820D02*
X028033D01*
Y016067D01*
X027820Y015853D01*
Y015800D01*
X028140Y016120D02*
X028353D01*
Y016067D01*
X028140Y015853D01*
Y015800D01*
X029580Y020800D02*
X029900D01*
Y020960D01*
X029847Y021013D01*
X029633D01*
X029580Y020960D01*
Y020800D01*
Y021333D02*
X029633Y021227D01*
X029740Y021120D01*
X029847D01*
X029900Y021173D01*
Y021280D01*
X029847Y021333D01*
X029793D01*
X029740Y021280D01*
Y021120D01*
X024200Y018920D02*
Y018653D01*
X024253Y018600D01*
X024360D01*
X024413Y018653D01*
Y018920D01*
X024520Y018600D02*
X024627D01*
X024573D01*
Y018920D01*
X024520Y018867D01*
X024786D02*
X024840Y018920D01*
X024946D01*
X025000Y018867D01*
Y018653D01*
X024946Y018600D01*
X024840D01*
X024786Y018653D01*
Y018867D01*
X018380Y013050D02*
X018647D01*
X018700Y013103D01*
Y013210D01*
X018647Y013263D01*
X018380D01*
X018700Y013370D02*
Y013477D01*
Y013423D01*
X018380D01*
X018433Y013370D01*
Y013636D02*
X018380Y013690D01*
Y013796D01*
X018433Y013850D01*
X018487D01*
X018540Y013796D01*
Y013743D01*
Y013796D01*
X018593Y013850D01*
X018647D01*
X018700Y013796D01*
Y013690D01*
X018647Y013636D01*
X021250Y019120D02*
Y018800D01*
X021357Y018907D01*
X021463Y018800D01*
Y019120D01*
X021570D02*
Y018800D01*
Y018907D01*
X021783Y019120D01*
X021623Y018960D01*
X021783Y018800D01*
X021890Y019120D02*
Y018853D01*
X021943Y018800D01*
X022050D01*
X022103Y018853D01*
Y019120D01*
X022210Y018800D02*
Y019120D01*
X022370D01*
X022423Y019067D01*
Y018960D01*
X022370Y018907D01*
X022210D01*
X021130Y020450D02*
X021397D01*
X021450Y020503D01*
Y020610D01*
X021397Y020663D01*
X021130D01*
X021450Y020770D02*
Y020877D01*
Y020823D01*
X021130D01*
X021183Y020770D01*
Y021036D02*
X021130Y021090D01*
Y021196D01*
X021183Y021250D01*
X021237D01*
X021290Y021196D01*
X021343Y021250D01*
X021397D01*
X021450Y021196D01*
Y021090D01*
X021397Y021036D01*
X021343D01*
X021290Y021090D01*
X021237Y021036D01*
X021183D01*
X021290Y021090D02*
Y021196D01*
X023613Y020367D02*
X023560Y020420D01*
X023453D01*
X023400Y020367D01*
Y020153D01*
X023453Y020100D01*
X023560D01*
X023613Y020153D01*
X023880Y020100D02*
Y020420D01*
X023720Y020260D01*
X023933D01*
X024253Y020420D02*
X024146Y020367D01*
X024040Y020260D01*
Y020153D01*
X024093Y020100D01*
X024200D01*
X024253Y020153D01*
Y020207D01*
X024200Y020260D01*
X024040D01*
X013050Y016670D02*
Y016403D01*
X013103Y016350D01*
X013210D01*
X013263Y016403D01*
Y016670D01*
X013370Y016403D02*
X013423Y016350D01*
X013530D01*
X013583Y016403D01*
Y016617D01*
X013530Y016670D01*
X013423D01*
X013370Y016617D01*
Y016563D01*
X013423Y016510D01*
X013583D01*
X011883Y019013D02*
X011830Y018960D01*
Y018853D01*
X011883Y018800D01*
X012097D01*
X012150Y018853D01*
Y018960D01*
X012097Y019013D01*
X012150Y019280D02*
X011830D01*
X011990Y019120D01*
Y019333D01*
X012150Y019653D02*
Y019440D01*
X011937Y019653D01*
X011883D01*
X011830Y019600D01*
Y019493D01*
X011883Y019440D01*
X024550Y011870D02*
Y011550D01*
X024763D01*
X025083Y011870D02*
X024870D01*
Y011550D01*
X025083D01*
X024870Y011710D02*
X024977D01*
X025190Y011870D02*
Y011550D01*
X025350D01*
X025403Y011603D01*
Y011817D01*
X025350Y011870D01*
X025190D01*
X025510Y011763D02*
X025723Y011550D01*
X025616Y011657D01*
X025723Y011763D01*
X025510Y011550D01*
X025830D02*
X025936D01*
X025883D01*
Y011870D01*
X025830Y011817D01*
X022763Y023867D02*
X022710Y023920D01*
X022603D01*
X022550Y023867D01*
Y023653D01*
X022603Y023600D01*
X022710D01*
X022763Y023653D01*
X023083Y023600D02*
X022870D01*
X023083Y023813D01*
Y023867D01*
X023030Y023920D01*
X022923D01*
X022870Y023867D01*
X023463Y022917D02*
X023410Y022970D01*
X023303D01*
X023250Y022917D01*
Y022703D01*
X023303Y022650D01*
X023410D01*
X023463Y022703D01*
X023570Y022917D02*
X023623Y022970D01*
X023730D01*
X023783Y022917D01*
Y022863D01*
X023730Y022810D01*
X023677D01*
X023730D01*
X023783Y022757D01*
Y022703D01*
X023730Y022650D01*
X023623D01*
X023570Y022703D01*
X024163Y022917D02*
X024110Y022970D01*
X024003D01*
X023950Y022917D01*
Y022703D01*
X024003Y022650D01*
X024110D01*
X024163Y022703D01*
X024430Y022650D02*
Y022970D01*
X024270Y022810D01*
X024483D01*
X026133Y022613D02*
X026080Y022560D01*
Y022453D01*
X026133Y022400D01*
X026347D01*
X026400Y022453D01*
Y022560D01*
X026347Y022613D01*
X026080Y022933D02*
Y022720D01*
X026240D01*
X026187Y022827D01*
Y022880D01*
X026240Y022933D01*
X026347D01*
X026400Y022880D01*
Y022773D01*
X026347Y022720D01*
X026833Y022663D02*
X026780Y022610D01*
Y022503D01*
X026833Y022450D01*
X027047D01*
X027100Y022503D01*
Y022610D01*
X027047Y022663D01*
X026780Y022983D02*
X026833Y022877D01*
X026940Y022770D01*
X027047D01*
X027100Y022823D01*
Y022930D01*
X027047Y022983D01*
X026993D01*
X026940Y022930D01*
Y022770D01*
X019063Y013117D02*
X019010Y013170D01*
X018903D01*
X018850Y013117D01*
Y012903D01*
X018903Y012850D01*
X019010D01*
X019063Y012903D01*
X019170D02*
X019223Y012850D01*
X019330D01*
X019383Y012903D01*
Y013117D01*
X019330Y013170D01*
X019223D01*
X019170Y013117D01*
Y013063D01*
X019223Y013010D01*
X019383D01*
X019423Y021557D02*
X019370Y021610D01*
X019263D01*
X019210Y021557D01*
Y021343D01*
X019263Y021290D01*
X019370D01*
X019423Y021343D01*
X019530Y021290D02*
X019637D01*
X019583D01*
Y021610D01*
X019530Y021557D01*
X019796Y021290D02*
X019903D01*
X019850D01*
Y021610D01*
X019796Y021557D01*
X019423Y022307D02*
X019370Y022360D01*
X019263D01*
X019210Y022307D01*
Y022093D01*
X019263Y022040D01*
X019370D01*
X019423Y022093D01*
X019530Y022040D02*
X019637D01*
X019583D01*
Y022360D01*
X019530Y022307D01*
X020010Y022040D02*
X019796D01*
X020010Y022253D01*
Y022307D01*
X019956Y022360D01*
X019850D01*
X019796Y022307D01*
X018883Y023163D02*
X018830Y023110D01*
Y023003D01*
X018883Y022950D01*
X019097D01*
X019150Y023003D01*
Y023110D01*
X019097Y023163D01*
X019150Y023270D02*
Y023377D01*
Y023323D01*
X018830D01*
X018883Y023270D01*
Y023536D02*
X018830Y023590D01*
Y023696D01*
X018883Y023750D01*
X018937D01*
X018990Y023696D01*
Y023643D01*
Y023696D01*
X019043Y023750D01*
X019097D01*
X019150Y023696D01*
Y023590D01*
X019097Y023536D01*
X018883Y024063D02*
X018830Y024010D01*
Y023903D01*
X018883Y023850D01*
X019097D01*
X019150Y023903D01*
Y024010D01*
X019097Y024063D01*
X019150Y024170D02*
Y024277D01*
Y024223D01*
X018830D01*
X018883Y024170D01*
X019150Y024596D02*
X018830D01*
X018990Y024436D01*
Y024650D01*
X020113Y015417D02*
X020060Y015470D01*
X019953D01*
X019900Y015417D01*
Y015203D01*
X019953Y015150D01*
X020060D01*
X020113Y015203D01*
X020220Y015150D02*
X020327D01*
X020273D01*
Y015470D01*
X020220Y015417D01*
X020486Y015203D02*
X020540Y015150D01*
X020646D01*
X020700Y015203D01*
Y015417D01*
X020646Y015470D01*
X020540D01*
X020486Y015417D01*
Y015363D01*
X020540Y015310D01*
X020700D01*
X031713Y014267D02*
X031660Y014320D01*
X031553D01*
X031500Y014267D01*
Y014053D01*
X031553Y014000D01*
X031660D01*
X031713Y014053D01*
X032033Y014000D02*
X031820D01*
X032033Y014213D01*
Y014267D01*
X031980Y014320D01*
X031873D01*
X031820Y014267D01*
X032140D02*
X032193Y014320D01*
X032300D01*
X032353Y014267D01*
Y014053D01*
X032300Y014000D01*
X032193D01*
X032140Y014053D01*
Y014267D01*
X031713Y015017D02*
X031660Y015070D01*
X031553D01*
X031500Y015017D01*
Y014803D01*
X031553Y014750D01*
X031660D01*
X031713Y014803D01*
X032033Y014750D02*
X031820D01*
X032033Y014963D01*
Y015017D01*
X031980Y015070D01*
X031873D01*
X031820Y015017D01*
X032140Y014750D02*
X032246D01*
X032193D01*
Y015070D01*
X032140Y015017D01*
X035633Y019063D02*
X035580Y019010D01*
Y018903D01*
X035633Y018850D01*
X035847D01*
X035900Y018903D01*
Y019010D01*
X035847Y019063D01*
X035900Y019383D02*
Y019170D01*
X035687Y019383D01*
X035633D01*
X035580Y019330D01*
Y019223D01*
X035633Y019170D01*
Y019490D02*
X035580Y019543D01*
Y019650D01*
X035633Y019703D01*
X035687D01*
X035740Y019650D01*
Y019596D01*
Y019650D01*
X035793Y019703D01*
X035847D01*
X035900Y019650D01*
Y019543D01*
X035847Y019490D01*
X026133Y015813D02*
X026080Y015760D01*
Y015653D01*
X026133Y015600D01*
X026347D01*
X026400Y015653D01*
Y015760D01*
X026347Y015813D01*
X026400Y016133D02*
Y015920D01*
X026187Y016133D01*
X026133D01*
X026080Y016080D01*
Y015973D01*
X026133Y015920D01*
X026400Y016400D02*
X026080D01*
X026240Y016240D01*
Y016453D01*
X017813Y024767D02*
X017760Y024820D01*
X017653D01*
X017600Y024767D01*
Y024553D01*
X017653Y024500D01*
X017760D01*
X017813Y024553D01*
X018133Y024500D02*
X017920D01*
X018133Y024713D01*
Y024767D01*
X018080Y024820D01*
X017973D01*
X017920Y024767D01*
X018453Y024820D02*
X018240D01*
Y024660D01*
X018346Y024713D01*
X018400D01*
X018453Y024660D01*
Y024553D01*
X018400Y024500D01*
X018293D01*
X018240Y024553D01*
X016863Y024767D02*
X016810Y024820D01*
X016703D01*
X016650Y024767D01*
Y024553D01*
X016703Y024500D01*
X016810D01*
X016863Y024553D01*
X017183Y024500D02*
X016970D01*
X017183Y024713D01*
Y024767D01*
X017130Y024820D01*
X017023D01*
X016970Y024767D01*
X017290Y024820D02*
X017503D01*
Y024767D01*
X017290Y024553D01*
Y024500D01*
X029113Y017567D02*
X029060Y017620D01*
X028953D01*
X028900Y017567D01*
Y017353D01*
X028953Y017300D01*
X029060D01*
X029113Y017353D01*
X029433Y017300D02*
X029220D01*
X029433Y017513D01*
Y017567D01*
X029380Y017620D01*
X029273D01*
X029220Y017567D01*
X029540D02*
X029593Y017620D01*
X029700D01*
X029753Y017567D01*
Y017513D01*
X029700Y017460D01*
X029753Y017407D01*
Y017353D01*
X029700Y017300D01*
X029593D01*
X029540Y017353D01*
Y017407D01*
X029593Y017460D01*
X029540Y017513D01*
Y017567D01*
X029593Y017460D02*
X029700D01*
X026763Y020118D02*
X026710Y020172D01*
X026603D01*
X026550Y020118D01*
Y019905D01*
X026603Y019852D01*
X026710D01*
X026763Y019905D01*
X027083Y019852D02*
X026870D01*
X027083Y020065D01*
Y020118D01*
X027030Y020172D01*
X026923D01*
X026870Y020118D01*
X027190Y019905D02*
X027243Y019852D01*
X027350D01*
X027403Y019905D01*
Y020118D01*
X027350Y020172D01*
X027243D01*
X027190Y020118D01*
Y020065D01*
X027243Y020012D01*
X027403D01*
X024563Y020367D02*
X024510Y020420D01*
X024403D01*
X024350Y020367D01*
Y020153D01*
X024403Y020100D01*
X024510D01*
X024563Y020153D01*
X024670Y020367D02*
X024723Y020420D01*
X024830D01*
X024883Y020367D01*
Y020313D01*
X024830Y020260D01*
X024777D01*
X024830D01*
X024883Y020207D01*
Y020153D01*
X024830Y020100D01*
X024723D01*
X024670Y020153D01*
X024990Y020367D02*
X025043Y020420D01*
X025150D01*
X025203Y020367D01*
Y020153D01*
X025150Y020100D01*
X025043D01*
X024990Y020153D01*
Y020367D01*
X025863D02*
X025810Y020420D01*
X025703D01*
X025650Y020367D01*
Y020153D01*
X025703Y020100D01*
X025810D01*
X025863Y020153D01*
X025970Y020367D02*
X026023Y020420D01*
X026130D01*
X026183Y020367D01*
Y020313D01*
X026130Y020260D01*
X026077D01*
X026130D01*
X026183Y020207D01*
Y020153D01*
X026130Y020100D01*
X026023D01*
X025970Y020153D01*
X026290Y020100D02*
X026396D01*
X026343D01*
Y020420D01*
X026290Y020367D01*
X023513Y019367D02*
X023460Y019420D01*
X023353D01*
X023300Y019367D01*
Y019153D01*
X023353Y019100D01*
X023460D01*
X023513Y019153D01*
X023620Y019367D02*
X023673Y019420D01*
X023780D01*
X023833Y019367D01*
Y019313D01*
X023780Y019260D01*
X023727D01*
X023780D01*
X023833Y019207D01*
Y019153D01*
X023780Y019100D01*
X023673D01*
X023620Y019153D01*
X024153Y019100D02*
X023940D01*
X024153Y019313D01*
Y019367D01*
X024100Y019420D01*
X023993D01*
X023940Y019367D01*
X018563Y012317D02*
X018510Y012370D01*
X018403D01*
X018350Y012317D01*
Y012103D01*
X018403Y012050D01*
X018510D01*
X018563Y012103D01*
X018670Y012317D02*
X018723Y012370D01*
X018830D01*
X018883Y012317D01*
Y012263D01*
X018830Y012210D01*
X018777D01*
X018830D01*
X018883Y012157D01*
Y012103D01*
X018830Y012050D01*
X018723D01*
X018670Y012103D01*
X018990Y012317D02*
X019043Y012370D01*
X019150D01*
X019203Y012317D01*
Y012263D01*
X019150Y012210D01*
X019096D01*
X019150D01*
X019203Y012157D01*
Y012103D01*
X019150Y012050D01*
X019043D01*
X018990Y012103D01*
X017163Y015867D02*
X017110Y015920D01*
X017003D01*
X016950Y015867D01*
Y015653D01*
X017003Y015600D01*
X017110D01*
X017163Y015653D01*
X017270Y015867D02*
X017323Y015920D01*
X017430D01*
X017483Y015867D01*
Y015813D01*
X017430Y015760D01*
X017377D01*
X017430D01*
X017483Y015707D01*
Y015653D01*
X017430Y015600D01*
X017323D01*
X017270Y015653D01*
X017750Y015600D02*
Y015920D01*
X017590Y015760D01*
X017803D01*
X023733Y013463D02*
X023680Y013410D01*
Y013303D01*
X023733Y013250D01*
X023947D01*
X024000Y013303D01*
Y013410D01*
X023947Y013463D01*
X023733Y013570D02*
X023680Y013623D01*
Y013730D01*
X023733Y013783D01*
X023787D01*
X023840Y013730D01*
Y013677D01*
Y013730D01*
X023893Y013783D01*
X023947D01*
X024000Y013730D01*
Y013623D01*
X023947Y013570D01*
X023680Y014103D02*
Y013890D01*
X023840D01*
X023787Y013996D01*
Y014050D01*
X023840Y014103D01*
X023947D01*
X024000Y014050D01*
Y013943D01*
X023947Y013890D01*
X023733Y014413D02*
X023680Y014360D01*
Y014253D01*
X023733Y014200D01*
X023947D01*
X024000Y014253D01*
Y014360D01*
X023947Y014413D01*
X023733Y014520D02*
X023680Y014573D01*
Y014680D01*
X023733Y014733D01*
X023787D01*
X023840Y014680D01*
Y014627D01*
Y014680D01*
X023893Y014733D01*
X023947D01*
X024000Y014680D01*
Y014573D01*
X023947Y014520D01*
X023680Y015053D02*
X023733Y014946D01*
X023840Y014840D01*
X023947D01*
X024000Y014893D01*
Y015000D01*
X023947Y015053D01*
X023893D01*
X023840Y015000D01*
Y014840D01*
X036563Y024217D02*
X036510Y024270D01*
X036403D01*
X036350Y024217D01*
Y024003D01*
X036403Y023950D01*
X036510D01*
X036563Y024003D01*
X036670Y024217D02*
X036723Y024270D01*
X036830D01*
X036883Y024217D01*
Y024163D01*
X036830Y024110D01*
X036777D01*
X036830D01*
X036883Y024057D01*
Y024003D01*
X036830Y023950D01*
X036723D01*
X036670Y024003D01*
X036990Y024270D02*
X037203D01*
Y024217D01*
X036990Y024003D01*
Y023950D01*
X033163Y024267D02*
X033110Y024320D01*
X033003D01*
X032950Y024267D01*
Y024053D01*
X033003Y024000D01*
X033110D01*
X033163Y024053D01*
X033270Y024267D02*
X033323Y024320D01*
X033430D01*
X033483Y024267D01*
Y024213D01*
X033430Y024160D01*
X033377D01*
X033430D01*
X033483Y024107D01*
Y024053D01*
X033430Y024000D01*
X033323D01*
X033270Y024053D01*
X033590Y024267D02*
X033643Y024320D01*
X033750D01*
X033803Y024267D01*
Y024213D01*
X033750Y024160D01*
X033803Y024107D01*
Y024053D01*
X033750Y024000D01*
X033643D01*
X033590Y024053D01*
Y024107D01*
X033643Y024160D01*
X033590Y024213D01*
Y024267D01*
X033643Y024160D02*
X033750D01*
X019620Y020262D02*
X019567Y020315D01*
X019460D01*
X019407Y020262D01*
Y020048D01*
X019460Y019995D01*
X019567D01*
X019620Y020048D01*
X019727Y020262D02*
X019780Y020315D01*
X019887D01*
X019940Y020262D01*
Y020208D01*
X019887Y020155D01*
X019834D01*
X019887D01*
X019940Y020102D01*
Y020048D01*
X019887Y019995D01*
X019780D01*
X019727Y020048D01*
X020047D02*
X020100Y019995D01*
X020207D01*
X020260Y020048D01*
Y020262D01*
X020207Y020315D01*
X020100D01*
X020047Y020262D01*
Y020208D01*
X020100Y020155D01*
X020260D01*
X020613Y020267D02*
X020560Y020320D01*
X020453D01*
X020400Y020267D01*
Y020053D01*
X020453Y020000D01*
X020560D01*
X020613Y020053D01*
X020880Y020000D02*
Y020320D01*
X020720Y020160D01*
X020933D01*
X021040Y020267D02*
X021093Y020320D01*
X021200D01*
X021253Y020267D01*
Y020053D01*
X021200Y020000D01*
X021093D01*
X021040Y020053D01*
Y020267D01*
X021883Y023863D02*
X021830Y023810D01*
Y023703D01*
X021883Y023650D01*
X022097D01*
X022150Y023703D01*
Y023810D01*
X022097Y023863D01*
X022150Y024130D02*
X021830D01*
X021990Y023970D01*
Y024183D01*
X022150Y024450D02*
X021830D01*
X021990Y024290D01*
Y024503D01*
X027100Y023570D02*
Y023250D01*
X027260D01*
X027313Y023303D01*
Y023517D01*
X027260Y023570D01*
X027100D01*
X027420Y023250D02*
X027527D01*
X027473D01*
Y023570D01*
X027420Y023517D01*
X038413Y020103D02*
Y020317D01*
X038360Y020370D01*
X038253D01*
X038200Y020317D01*
Y020103D01*
X038253Y020050D01*
X038360D01*
X038307Y020157D02*
X038413Y020050D01*
X038360D02*
X038413Y020103D01*
X038733Y020050D02*
X038520D01*
X038733Y020263D01*
Y020317D01*
X038680Y020370D01*
X038573D01*
X038520Y020317D01*
X039213Y018053D02*
Y018267D01*
X039160Y018320D01*
X039053D01*
X039000Y018267D01*
Y018053D01*
X039053Y018000D01*
X039160D01*
X039107Y018107D02*
X039213Y018000D01*
X039160D02*
X039213Y018053D01*
X039480Y018000D02*
Y018320D01*
X039320Y018160D01*
X039533D01*
X015547Y014613D02*
X015333D01*
X015280Y014560D01*
Y014453D01*
X015333Y014400D01*
X015547D01*
X015600Y014453D01*
Y014560D01*
X015493Y014507D02*
X015600Y014613D01*
Y014560D02*
X015547Y014613D01*
X015280Y014933D02*
Y014720D01*
X015440D01*
X015387Y014827D01*
Y014880D01*
X015440Y014933D01*
X015547D01*
X015600Y014880D01*
Y014773D01*
X015547Y014720D01*
X014897Y012613D02*
X014683D01*
X014630Y012560D01*
Y012453D01*
X014683Y012400D01*
X014897D01*
X014950Y012453D01*
Y012560D01*
X014843Y012507D02*
X014950Y012613D01*
Y012560D02*
X014897Y012613D01*
X014630Y012720D02*
Y012933D01*
X014683D01*
X014897Y012720D01*
X014950D01*
X024900Y024550D02*
Y024870D01*
X025060D01*
X025113Y024817D01*
Y024710D01*
X025060Y024657D01*
X024900D01*
X025007D02*
X025113Y024550D01*
X025220D02*
X025327D01*
X025273D01*
Y024870D01*
X025220Y024817D01*
X016250Y022600D02*
Y022920D01*
X016410D01*
X016463Y022867D01*
Y022760D01*
X016410Y022707D01*
X016250D01*
X016357D02*
X016463Y022600D01*
X016783D02*
X016570D01*
X016783Y022813D01*
Y022867D01*
X016730Y022920D01*
X016623D01*
X016570Y022867D01*
X016350Y018600D02*
Y018920D01*
X016510D01*
X016563Y018867D01*
Y018760D01*
X016510Y018707D01*
X016350D01*
X016457D02*
X016563Y018600D01*
X016670Y018867D02*
X016723Y018920D01*
X016830D01*
X016883Y018867D01*
Y018813D01*
X016830Y018760D01*
X016777D01*
X016830D01*
X016883Y018707D01*
Y018653D01*
X016830Y018600D01*
X016723D01*
X016670Y018653D01*
X017850Y015800D02*
Y016120D01*
X018010D01*
X018063Y016067D01*
Y015960D01*
X018010Y015907D01*
X017850D01*
X017957D02*
X018063Y015800D01*
X018383Y016120D02*
X018277Y016067D01*
X018170Y015960D01*
Y015853D01*
X018223Y015800D01*
X018330D01*
X018383Y015853D01*
Y015907D01*
X018330Y015960D01*
X018170D01*
X012700Y012650D02*
Y012970D01*
X012860D01*
X012913Y012917D01*
Y012810D01*
X012860Y012757D01*
X012700D01*
X012807D02*
X012913Y012650D01*
X013020Y012970D02*
X013233D01*
Y012917D01*
X013020Y012703D01*
Y012650D01*
X021300Y015700D02*
Y016020D01*
X021460D01*
X021513Y015967D01*
Y015860D01*
X021460Y015807D01*
X021300D01*
X021407D02*
X021513Y015700D01*
X021620Y015967D02*
X021673Y016020D01*
X021780D01*
X021833Y015967D01*
Y015913D01*
X021780Y015860D01*
X021833Y015807D01*
Y015753D01*
X021780Y015700D01*
X021673D01*
X021620Y015753D01*
Y015807D01*
X021673Y015860D01*
X021620Y015913D01*
Y015967D01*
X021673Y015860D02*
X021780D01*
X020050Y012350D02*
X019730D01*
Y012510D01*
X019783Y012563D01*
X019890D01*
X019943Y012510D01*
Y012350D01*
Y012457D02*
X020050Y012563D01*
Y012670D02*
Y012777D01*
Y012723D01*
X019730D01*
X019783Y012670D01*
X020050Y013150D02*
Y012936D01*
X019837Y013150D01*
X019783D01*
X019730Y013096D01*
Y012990D01*
X019783Y012936D01*
X014300Y019850D02*
Y020170D01*
X014460D01*
X014513Y020117D01*
Y020010D01*
X014460Y019957D01*
X014300D01*
X014407D02*
X014513Y019850D01*
X014620D02*
X014727D01*
X014673D01*
Y020170D01*
X014620Y020117D01*
X014886D02*
X014940Y020170D01*
X015046D01*
X015100Y020117D01*
Y020063D01*
X015046Y020010D01*
X014993D01*
X015046D01*
X015100Y019957D01*
Y019903D01*
X015046Y019850D01*
X014940D01*
X014886Y019903D01*
X028800Y013000D02*
Y013320D01*
X028960D01*
X029013Y013267D01*
Y013160D01*
X028960Y013107D01*
X028800D01*
X028907D02*
X029013Y013000D01*
X029120D02*
X029227D01*
X029173D01*
Y013320D01*
X029120Y013267D01*
X029546Y013000D02*
Y013320D01*
X029386Y013160D01*
X029600D01*
X033150Y018600D02*
Y018920D01*
X033310D01*
X033363Y018867D01*
Y018760D01*
X033310Y018707D01*
X033150D01*
X033257D02*
X033363Y018600D01*
X033470D02*
X033577D01*
X033523D01*
Y018920D01*
X033470Y018867D01*
X033736Y018653D02*
X033790Y018600D01*
X033896D01*
X033950Y018653D01*
Y018867D01*
X033896Y018920D01*
X033790D01*
X033736Y018867D01*
Y018813D01*
X033790Y018760D01*
X033950D01*
X027250Y015600D02*
X026930D01*
Y015760D01*
X026983Y015813D01*
X027090D01*
X027143Y015760D01*
Y015600D01*
Y015707D02*
X027250Y015813D01*
Y016133D02*
Y015920D01*
X027037Y016133D01*
X026983D01*
X026930Y016080D01*
Y015973D01*
X026983Y015920D01*
Y016240D02*
X026930Y016293D01*
Y016400D01*
X026983Y016453D01*
X027197D01*
X027250Y016400D01*
Y016293D01*
X027197Y016240D01*
X026983D01*
X015100Y022600D02*
Y022920D01*
X015260D01*
X015313Y022867D01*
Y022760D01*
X015260Y022707D01*
X015100D01*
X015207D02*
X015313Y022600D01*
X015633D02*
X015420D01*
X015633Y022813D01*
Y022867D01*
X015580Y022920D01*
X015473D01*
X015420Y022867D01*
X015740Y022920D02*
X015953D01*
Y022867D01*
X015740Y022653D01*
Y022600D01*
X016550Y011900D02*
Y012220D01*
X016710D01*
X016763Y012167D01*
Y012060D01*
X016710Y012007D01*
X016550D01*
X016657D02*
X016763Y011900D01*
X016870Y012167D02*
X016923Y012220D01*
X017030D01*
X017083Y012167D01*
Y012113D01*
X017030Y012060D01*
X016977D01*
X017030D01*
X017083Y012007D01*
Y011953D01*
X017030Y011900D01*
X016923D01*
X016870Y011953D01*
X017190Y012167D02*
X017243Y012220D01*
X017350D01*
X017403Y012167D01*
Y012113D01*
X017350Y012060D01*
X017296D01*
X017350D01*
X017403Y012007D01*
Y011953D01*
X017350Y011900D01*
X017243D01*
X017190Y011953D01*
X037100Y020900D02*
Y021220D01*
X037260D01*
X037313Y021167D01*
Y021060D01*
X037260Y021007D01*
X037100D01*
X037207D02*
X037313Y020900D01*
X037420Y021167D02*
X037473Y021220D01*
X037580D01*
X037633Y021167D01*
Y021113D01*
X037580Y021060D01*
X037527D01*
X037580D01*
X037633Y021007D01*
Y020953D01*
X037580Y020900D01*
X037473D01*
X037420Y020953D01*
X037953Y021220D02*
X037740D01*
Y021060D01*
X037846Y021113D01*
X037900D01*
X037953Y021060D01*
Y020953D01*
X037900Y020900D01*
X037793D01*
X037740Y020953D01*
X019100Y017300D02*
Y017620D01*
X019260D01*
X019313Y017567D01*
Y017460D01*
X019260Y017407D01*
X019100D01*
X019207D02*
X019313Y017300D01*
X019420Y017567D02*
X019473Y017620D01*
X019580D01*
X019633Y017567D01*
Y017513D01*
X019580Y017460D01*
X019527D01*
X019580D01*
X019633Y017407D01*
Y017353D01*
X019580Y017300D01*
X019473D01*
X019420Y017353D01*
X019953Y017620D02*
X019846Y017567D01*
X019740Y017460D01*
Y017353D01*
X019793Y017300D01*
X019900D01*
X019953Y017353D01*
Y017407D01*
X019900Y017460D01*
X019740D01*
X022050Y016350D02*
Y016670D01*
X022210D01*
X022263Y016617D01*
Y016510D01*
X022210Y016457D01*
X022050D01*
X022157D02*
X022263Y016350D01*
X022370Y016617D02*
X022423Y016670D01*
X022530D01*
X022583Y016617D01*
Y016563D01*
X022530Y016510D01*
X022477D01*
X022530D01*
X022583Y016457D01*
Y016403D01*
X022530Y016350D01*
X022423D01*
X022370Y016403D01*
X022690Y016670D02*
X022903D01*
Y016617D01*
X022690Y016403D01*
Y016350D01*
X036750Y018500D02*
X036430D01*
Y018660D01*
X036483Y018713D01*
X036590D01*
X036643Y018660D01*
Y018500D01*
Y018607D02*
X036750Y018713D01*
X036483Y018820D02*
X036430Y018873D01*
Y018980D01*
X036483Y019033D01*
X036537D01*
X036590Y018980D01*
Y018927D01*
Y018980D01*
X036643Y019033D01*
X036697D01*
X036750Y018980D01*
Y018873D01*
X036697Y018820D01*
Y019140D02*
X036750Y019193D01*
Y019300D01*
X036697Y019353D01*
X036483D01*
X036430Y019300D01*
Y019193D01*
X036483Y019140D01*
X036537D01*
X036590Y019193D01*
Y019353D01*
X012650Y018800D02*
X012330D01*
Y018960D01*
X012383Y019013D01*
X012490D01*
X012543Y018960D01*
Y018800D01*
Y018907D02*
X012650Y019013D01*
Y019280D02*
X012330D01*
X012490Y019120D01*
Y019333D01*
X012383Y019440D02*
X012330Y019493D01*
Y019600D01*
X012383Y019653D01*
X012597D01*
X012650Y019600D01*
Y019493D01*
X012597Y019440D01*
X012383D01*
X013500Y013800D02*
Y014120D01*
X013660D01*
X013713Y014067D01*
Y013960D01*
X013660Y013907D01*
X013500D01*
X013607D02*
X013713Y013800D01*
X013980D02*
Y014120D01*
X013820Y013960D01*
X014033D01*
X014140Y013800D02*
X014246D01*
X014193D01*
Y014120D01*
X014140Y014067D01*
X017250Y017500D02*
X016930D01*
Y017660D01*
X016983Y017713D01*
X017090D01*
X017143Y017660D01*
Y017500D01*
Y017607D02*
X017250Y017713D01*
Y017980D02*
X016930D01*
X017090Y017820D01*
Y018033D01*
X017250Y018353D02*
Y018140D01*
X017037Y018353D01*
X016983D01*
X016930Y018300D01*
Y018193D01*
X016983Y018140D01*
X022750Y024550D02*
Y024870D01*
X022910D01*
X022963Y024817D01*
Y024710D01*
X022910Y024657D01*
X022750D01*
X022857D02*
X022963Y024550D01*
X023230D02*
Y024870D01*
X023070Y024710D01*
X023283D01*
X023390Y024817D02*
X023443Y024870D01*
X023550D01*
X023603Y024817D01*
Y024763D01*
X023550Y024710D01*
X023496D01*
X023550D01*
X023603Y024657D01*
Y024603D01*
X023550Y024550D01*
X023443D01*
X023390Y024603D01*
X013550Y012800D02*
Y013120D01*
X013710D01*
X013763Y013067D01*
Y012960D01*
X013710Y012907D01*
X013550D01*
X013657D02*
X013763Y012800D01*
X014030D02*
Y013120D01*
X013870Y012960D01*
X014083D01*
X014350Y012800D02*
Y013120D01*
X014190Y012960D01*
X014403D01*
X016700Y015750D02*
X016380D01*
Y015910D01*
X016433Y015963D01*
X016540D01*
X016593Y015910D01*
Y015750D01*
Y015857D02*
X016700Y015963D01*
Y016230D02*
X016380D01*
X016540Y016070D01*
Y016283D01*
X016380Y016603D02*
Y016390D01*
X016540D01*
X016487Y016496D01*
Y016550D01*
X016540Y016603D01*
X016647D01*
X016700Y016550D01*
Y016443D01*
X016647Y016390D01*
X021400Y020120D02*
Y019800D01*
X021560D01*
X021613Y019853D01*
Y019907D01*
X021560Y019960D01*
X021400D01*
X021560D01*
X021613Y020013D01*
Y020067D01*
X021560Y020120D01*
X021400D01*
X021880D02*
X021773D01*
X021720Y020067D01*
Y019853D01*
X021773Y019800D01*
X021880D01*
X021933Y019853D01*
Y020067D01*
X021880Y020120D01*
X022200D02*
X022093D01*
X022040Y020067D01*
Y019853D01*
X022093Y019800D01*
X022200D01*
X022253Y019853D01*
Y020067D01*
X022200Y020120D01*
X022360D02*
X022573D01*
X022466D01*
Y019800D01*
X022680D02*
Y020120D01*
X022893Y019800D01*
Y020120D01*
X025000Y022870D02*
Y022603D01*
X025053Y022550D01*
X025160D01*
X025213Y022603D01*
Y022870D01*
X025320Y022817D02*
X025373Y022870D01*
X025480D01*
X025533Y022817D01*
Y022763D01*
X025480Y022710D01*
X025427D01*
X025480D01*
X025533Y022657D01*
Y022603D01*
X025480Y022550D01*
X025373D01*
X025320Y022603D01*
X013700Y022670D02*
Y022403D01*
X013753Y022350D01*
X013860D01*
X013913Y022403D01*
Y022670D01*
X014233D02*
X014020D01*
Y022510D01*
X014127Y022563D01*
X014180D01*
X014233Y022510D01*
Y022403D01*
X014180Y022350D01*
X014073D01*
X014020Y022403D01*
X013700Y019720D02*
Y019453D01*
X013753Y019400D01*
X013860D01*
X013913Y019453D01*
Y019720D01*
X014020D02*
X014233D01*
Y019667D01*
X014020Y019453D01*
Y019400D01*
X018230Y019200D02*
X018283D01*
X018390Y019307D01*
X018283Y019413D01*
X018230D01*
X018390Y019307D02*
X018550D01*
Y019520D02*
Y019627D01*
Y019573D01*
X018230D01*
X018283Y019520D01*
X018550Y015800D02*
Y016120D01*
X018710D01*
X018763Y016067D01*
Y015960D01*
X018710Y015907D01*
X018550D01*
X018657D02*
X018763Y015800D01*
X019030D02*
Y016120D01*
X018870Y015960D01*
X019083D01*
X019190Y016120D02*
X019403D01*
Y016067D01*
X019190Y015853D01*
Y015800D01*
D84*
X032900Y013830D02*
Y014150D01*
X033060D01*
X033113Y014097D01*
Y013990D01*
X033060Y013937D01*
X032900D01*
X033007D02*
X033113Y013830D01*
X033380D02*
Y014150D01*
X033220Y013990D01*
X033433D01*
X033540Y014097D02*
X033593Y014150D01*
X033700D01*
X033753Y014097D01*
Y014043D01*
X033700Y013990D01*
X033753Y013937D01*
Y013883D01*
X033700Y013830D01*
X033593D01*
X033540Y013883D01*
Y013937D01*
X033593Y013990D01*
X033540Y014043D01*
Y014097D01*
X033593Y013990D02*
X033700D01*
D85*
X020875Y020775D02*
D03*
D86*
X020775Y020725D02*
D03*
D87*
X020800Y020500D02*
D03*
X014250Y024650D02*
D03*
D88*
X020800Y021200D02*
D03*
D89*
X025150Y015400D02*
D03*
D90*
X023600Y015100D02*
D03*
Y015600D02*
D03*
D91*
X015250Y024650D02*
D03*
M02*
