G04*
G04 #@! TF.GenerationSoftware,Altium Limited,CircuitStudio,1.5.2 (1.5.2.30)*
G04*
G04 Layer_Color=13948096*
%FSAX24Y24*%
%MOIN*%
G70*
G01*
G75*
%ADD81C,0.0100*%
%ADD82C,0.0079*%
%ADD83C,0.0030*%
%ADD84C,0.0040*%
%ADD162C,0.0098*%
%ADD163C,0.0236*%
D81*
X028763Y016492D02*
G03*
X028763Y016492I-000044J000000D01*
G01*
X012846Y017055D02*
G03*
X012846Y017055I-000041J000000D01*
G01*
X013539Y014862D02*
G03*
X013402Y015000I-000138J000000D01*
G01*
D02*
G03*
X013539Y015138I000000J000138D01*
G01*
Y015361D02*
G03*
X013400Y015500I-000139J000000D01*
G01*
D02*
G03*
X013539Y015639I000000J000139D01*
G01*
Y015861D02*
G03*
X013400Y016000I-000139J000000D01*
G01*
D02*
G03*
X013539Y016139I000000J000139D01*
G01*
X024093Y014228D02*
X024093Y014917D01*
X024093Y014228D02*
X029407D01*
X029407Y014917D02*
X029407Y014228D01*
X029407Y016098D02*
Y016197D01*
X024093Y016098D02*
Y016197D01*
X025077D01*
X028423D02*
X029407D01*
X027488Y022864D02*
X028512D01*
X027508Y024616D02*
X028492D01*
X013461Y015000D02*
X013539D01*
Y014862D02*
Y015000D01*
Y014862D02*
Y015138D01*
Y015843D02*
Y016157D01*
Y015843D02*
Y016000D01*
X013461D02*
X013539D01*
Y015343D02*
Y015657D01*
Y015343D02*
Y015500D01*
X013461D02*
X013539D01*
X027075Y020787D02*
Y021575D01*
X024713D02*
X027075D01*
X023925Y020787D02*
X024713Y021575D01*
X023925Y019213D02*
X024713Y018425D01*
X027075D01*
Y019213D01*
X013679Y024718D02*
X015569D01*
X013679Y024010D02*
Y024718D01*
X017931D02*
X019821D01*
Y024010D02*
Y024718D01*
Y020939D02*
Y021490D01*
X017931Y020939D02*
X019821D01*
X013679D02*
X015569D01*
X013679D02*
Y021490D01*
X012963Y017213D02*
X013120D01*
X012963D02*
Y017370D01*
X014380Y017213D02*
X014537D01*
Y017370D01*
Y018630D02*
Y018787D01*
X014380D02*
X014537D01*
X012963D02*
X013120D01*
X012963Y018630D02*
Y018787D01*
X013811Y013144D02*
X014205D01*
X013811Y012356D02*
Y013144D01*
X014402Y012356D02*
X014598D01*
X014795Y013144D02*
X015189D01*
Y012356D02*
Y013144D01*
X013400Y015000D02*
X013402D01*
X013400D02*
X013402D01*
X013400Y014800D02*
Y015200D01*
Y015300D02*
Y015700D01*
X013539Y015843D02*
Y015861D01*
X013400Y015800D02*
Y016200D01*
X010200Y021700D02*
Y021800D01*
X010250Y021850D01*
X010450D01*
X010500Y021800D01*
Y021700D01*
X010450Y021650D01*
X010250D01*
X010200Y021700D01*
X010300Y021550D02*
X010500Y021450D01*
X010300Y021350D01*
X010500Y021100D02*
Y021200D01*
X010450Y021250D01*
X010350D01*
X010300Y021200D01*
Y021100D01*
X010350Y021050D01*
X010400D01*
Y021250D01*
X010300Y020950D02*
X010500D01*
X010400D01*
X010350Y020900D01*
X010300Y020850D01*
Y020800D01*
X010250Y020600D02*
X010300D01*
Y020650D01*
Y020550D01*
Y020600D01*
X010450D01*
X010500Y020550D01*
X010200Y020400D02*
X010500D01*
X010350D01*
X010300Y020350D01*
Y020251D01*
X010350Y020201D01*
X010500D01*
Y019951D02*
Y020051D01*
X010450Y020101D01*
X010350D01*
X010300Y020051D01*
Y019951D01*
X010350Y019901D01*
X010400D01*
Y020101D01*
X010200Y019801D02*
Y019601D01*
Y019701D01*
X010500D01*
X010200Y019351D02*
Y019451D01*
X010250Y019501D01*
X010450D01*
X010500Y019451D01*
Y019351D01*
X010450Y019301D01*
X010250D01*
X010200Y019351D01*
X010500Y019201D02*
X010200D01*
Y019051D01*
X010250Y019001D01*
X010350D01*
X010400Y019051D01*
Y019201D01*
X010250Y018401D02*
X010200Y018451D01*
Y018551D01*
X010250Y018601D01*
X010300D01*
X010350Y018551D01*
Y018451D01*
X010400Y018401D01*
X010450D01*
X010500Y018451D01*
Y018551D01*
X010450Y018601D01*
X010500Y018151D02*
Y018251D01*
X010450Y018301D01*
X010350D01*
X010300Y018251D01*
Y018151D01*
X010350Y018101D01*
X010400D01*
Y018301D01*
X010500Y018001D02*
X010300D01*
Y017851D01*
X010350Y017801D01*
X010500D01*
Y017701D02*
Y017551D01*
X010450Y017501D01*
X010400Y017551D01*
Y017651D01*
X010350Y017701D01*
X010300Y017651D01*
Y017501D01*
X010500Y017351D02*
Y017251D01*
X010450Y017201D01*
X010350D01*
X010300Y017251D01*
Y017351D01*
X010350Y017401D01*
X010450D01*
X010500Y017351D01*
X010300Y017102D02*
X010500D01*
X010400D01*
X010350Y017052D01*
X010300Y017002D01*
Y016952D01*
X010200Y016502D02*
X010500D01*
Y016352D01*
X010450Y016302D01*
X010400D01*
X010350Y016352D01*
Y016502D01*
Y016352D01*
X010300Y016302D01*
X010250D01*
X010200Y016352D01*
Y016502D01*
X010500Y016152D02*
Y016052D01*
X010450Y016002D01*
X010350D01*
X010300Y016052D01*
Y016152D01*
X010350Y016202D01*
X010450D01*
X010500Y016152D01*
X010300Y015852D02*
Y015752D01*
X010350Y015702D01*
X010500D01*
Y015852D01*
X010450Y015902D01*
X010400Y015852D01*
Y015702D01*
X010300Y015602D02*
X010500D01*
X010400D01*
X010350Y015552D01*
X010300Y015502D01*
Y015452D01*
X010200Y015102D02*
X010500D01*
Y015252D01*
X010450Y015302D01*
X010350D01*
X010300Y015252D01*
Y015102D01*
X011050Y020550D02*
X010850D01*
X010750Y020450D01*
X010850Y020350D01*
X011050D01*
X010900D01*
Y020550D01*
X011050Y020250D02*
Y020150D01*
Y020200D01*
X010750D01*
X010800Y020250D01*
X011050Y020000D02*
X011000D01*
Y019950D01*
X011050D01*
Y020000D01*
X010750Y019550D02*
Y019750D01*
X010900D01*
X010850Y019650D01*
Y019600D01*
X010900Y019550D01*
X011000D01*
X011050Y019600D01*
Y019700D01*
X011000Y019750D01*
X010900Y019150D02*
Y018951D01*
X011050Y018551D02*
X010750D01*
X010850Y018451D01*
X010750Y018351D01*
X011050D01*
Y018251D02*
X010850D01*
X010750Y018151D01*
X010850Y018051D01*
X011050D01*
X010900D01*
Y018251D01*
X011050Y017951D02*
X010750D01*
Y017801D01*
X010800Y017751D01*
X010900D01*
X010950Y017801D01*
Y017951D01*
Y017851D02*
X011050Y017751D01*
Y017151D02*
Y017351D01*
X010850Y017151D01*
X010800D01*
X010750Y017201D01*
Y017301D01*
X010800Y017351D01*
Y017051D02*
X010750Y017001D01*
Y016901D01*
X010800Y016851D01*
X011000D01*
X011050Y016901D01*
Y017001D01*
X011000Y017051D01*
X010800D01*
X011050Y016751D02*
Y016651D01*
Y016701D01*
X010750D01*
X010800Y016751D01*
X011000Y016501D02*
X011050Y016451D01*
Y016351D01*
X011000Y016301D01*
X010800D01*
X010750Y016351D01*
Y016451D01*
X010800Y016501D01*
X010850D01*
X010900Y016451D01*
Y016301D01*
D82*
X022049Y019136D02*
Y020593D01*
X020356D02*
X022049D01*
X020356Y019136D02*
Y020593D01*
Y019136D02*
X021385D01*
X021021D02*
X022049D01*
X018939Y016561D02*
X022561D01*
X018939Y012939D02*
X022561D01*
X018939D02*
Y016561D01*
X022561Y012939D02*
Y016561D01*
X014212Y019821D02*
Y019979D01*
X014488Y019821D02*
Y019979D01*
X021500Y021700D02*
X021500Y024700D01*
X020500Y021700D02*
X021500D01*
X020500Y024700D02*
X020500Y021700D01*
X020500Y024700D02*
X021500D01*
X022425Y024665D02*
X025575D01*
X026362Y024429D02*
Y024665D01*
X026205D02*
X026362D01*
Y022500D02*
Y023287D01*
X021874Y022500D02*
X026362D01*
X021874D02*
Y023091D01*
X012283Y019250D02*
X012717D01*
X012133Y016750D02*
X012567D01*
X023012Y017921D02*
Y018079D01*
X023288Y017921D02*
Y018079D01*
X035021Y022488D02*
X035179D01*
X035021Y022212D02*
X035179D01*
X032971Y022888D02*
X033129D01*
X032971Y022612D02*
X033129D01*
X014421Y016138D02*
X014579D01*
X014421Y015862D02*
X014579D01*
X014421Y015638D02*
X014579D01*
X014421Y015362D02*
X014579D01*
X014421Y015138D02*
X014579D01*
X014421Y014862D02*
X014579D01*
X016612Y018171D02*
Y018329D01*
X016888Y018171D02*
Y018329D01*
X017612Y018171D02*
Y018329D01*
X017888Y018171D02*
Y018329D01*
X016612Y019421D02*
Y019579D01*
X016888Y019421D02*
Y019579D01*
X017612Y019421D02*
Y019579D01*
X017888Y019421D02*
Y019579D01*
X016112Y013921D02*
Y014079D01*
X016388Y013921D02*
Y014079D01*
X015862Y012671D02*
Y012829D01*
X016138Y012671D02*
Y012829D01*
X028112Y018171D02*
Y018329D01*
X028388Y018171D02*
X028388Y018329D01*
Y016864D02*
X028388Y017021D01*
X028112Y016864D02*
Y017021D01*
X028612Y018171D02*
Y018329D01*
X028888Y018171D02*
Y018329D01*
X029038Y017121D02*
Y017279D01*
X028762Y017121D02*
Y017279D01*
X020421Y021138D02*
X020579D01*
X020421Y020862D02*
X020579D01*
X018638Y019171D02*
Y019329D01*
X018362Y019171D02*
Y019329D01*
X019028Y020577D02*
X019972D01*
X019028Y018923D02*
Y020577D01*
Y018923D02*
X019972D01*
Y020577D01*
D83*
X022470Y019200D02*
X022417D01*
X022310Y019307D01*
X022417Y019413D01*
X022470D01*
X022310Y019307D02*
X022150D01*
Y019733D02*
Y019520D01*
X022363Y019733D01*
X022417D01*
X022470Y019680D01*
Y019573D01*
X022417Y019520D01*
X031737Y022820D02*
X031843D01*
X031790D01*
Y022553D01*
X031843Y022500D01*
X031897D01*
X031950Y022553D01*
X031417Y022820D02*
X031630D01*
Y022660D01*
X031523Y022713D01*
X031470D01*
X031417Y022660D01*
Y022553D01*
X031470Y022500D01*
X031577D01*
X031630Y022553D01*
X018800Y016670D02*
Y016403D01*
X018747Y016350D01*
X018640D01*
X018587Y016403D01*
Y016670D01*
X018480Y016350D02*
X018373D01*
X018427D01*
Y016670D01*
X018480Y016617D01*
X029920Y015713D02*
Y015607D01*
Y015660D01*
X029653D01*
X029600Y015607D01*
Y015553D01*
X029653Y015500D01*
X029867Y015820D02*
X029920Y015873D01*
Y015980D01*
X029867Y016033D01*
X029813D01*
X029760Y015980D01*
Y015927D01*
Y015980D01*
X029707Y016033D01*
X029653D01*
X029600Y015980D01*
Y015873D01*
X029653Y015820D01*
X028587Y022720D02*
X028800D01*
Y022560D01*
X028693D01*
X028800D01*
Y022400D01*
X028480D02*
X028373D01*
X028427D01*
Y022720D01*
X028480Y022667D01*
X012750Y015070D02*
Y014750D01*
X012590D01*
X012537Y014803D01*
Y015017D01*
X012590Y015070D01*
X012750D01*
X012217D02*
X012430D01*
Y014910D01*
X012323Y014963D01*
X012270D01*
X012217Y014910D01*
Y014803D01*
X012270Y014750D01*
X012377D01*
X012430Y014803D01*
X012750Y016070D02*
Y015750D01*
X012590D01*
X012537Y015803D01*
Y016017D01*
X012590Y016070D01*
X012750D01*
X012217Y015750D02*
X012430D01*
X012217Y015963D01*
Y016017D01*
X012270Y016070D01*
X012377D01*
X012430Y016017D01*
X012750Y015570D02*
Y015250D01*
X012590D01*
X012537Y015303D01*
Y015517D01*
X012590Y015570D01*
X012750D01*
X012270Y015250D02*
Y015570D01*
X012430Y015410D01*
X012217D01*
X021820Y021800D02*
X021500D01*
Y021960D01*
X021553Y022013D01*
X021607D01*
X021660Y021960D01*
Y021800D01*
Y021960D01*
X021713Y022013D01*
X021767D01*
X021820Y021960D01*
Y021800D01*
Y022280D02*
Y022173D01*
X021767Y022120D01*
X021553D01*
X021500Y022173D01*
Y022280D01*
X021553Y022333D01*
X021767D01*
X021820Y022280D01*
Y022600D02*
Y022493D01*
X021767Y022440D01*
X021553D01*
X021500Y022493D01*
Y022600D01*
X021553Y022653D01*
X021767D01*
X021820Y022600D01*
Y022760D02*
Y022973D01*
Y022866D01*
X021500D01*
X021767Y023080D02*
X021820Y023133D01*
Y023240D01*
X021767Y023293D01*
X021553D01*
X021500Y023240D01*
Y023133D01*
X021553Y023080D01*
X021767D01*
X027467Y020913D02*
X027520Y020860D01*
Y020753D01*
X027467Y020700D01*
X027253D01*
X027200Y020753D01*
Y020860D01*
X027253Y020913D01*
X027200Y021180D02*
X027520D01*
X027360Y021020D01*
Y021233D01*
X027520Y021553D02*
Y021340D01*
X027360D01*
X027413Y021446D01*
Y021500D01*
X027360Y021553D01*
X027253D01*
X027200Y021500D01*
Y021393D01*
X027253Y021340D01*
X020220Y024200D02*
X019900D01*
Y024360D01*
X019953Y024413D01*
X020007D01*
X020060Y024360D01*
Y024200D01*
Y024360D01*
X020113Y024413D01*
X020167D01*
X020220Y024360D01*
Y024200D01*
X019900Y024520D02*
Y024627D01*
Y024573D01*
X020220D01*
X020167Y024520D01*
X014498Y019222D02*
Y018955D01*
X014445Y018902D01*
X014338D01*
X014285Y018955D01*
Y019222D01*
X014178Y018902D02*
X014072D01*
X014125D01*
Y019222D01*
X014178Y019169D01*
X013912Y019222D02*
X013698D01*
Y019169D01*
X013912Y018955D01*
Y018902D01*
X026087Y022420D02*
X026193D01*
X026140D01*
Y022153D01*
X026193Y022100D01*
X026247D01*
X026300Y022153D01*
X025980Y022100D02*
X025873D01*
X025927D01*
Y022420D01*
X025980Y022367D01*
X022217Y021063D02*
X022270Y021010D01*
Y020903D01*
X022217Y020850D01*
X022003D01*
X021950Y020903D01*
Y021010D01*
X022003Y021063D01*
X022270Y021170D02*
Y021383D01*
X022217D01*
X022003Y021170D01*
X021950D01*
X021137Y018467D02*
X021190Y018520D01*
X021297D01*
X021350Y018467D01*
Y018253D01*
X021297Y018200D01*
X021190D01*
X021137Y018253D01*
X021030Y018467D02*
X020977Y018520D01*
X020870D01*
X020817Y018467D01*
Y018413D01*
X020870Y018360D01*
X020817Y018307D01*
Y018253D01*
X020870Y018200D01*
X020977D01*
X021030Y018253D01*
Y018307D01*
X020977Y018360D01*
X021030Y018413D01*
Y018467D01*
X020977Y018360D02*
X020870D01*
X024437Y013644D02*
X024490Y013697D01*
X024597D01*
X024650Y013644D01*
Y013431D01*
X024597Y013377D01*
X024490D01*
X024437Y013431D01*
X024330Y013377D02*
X024223D01*
X024277D01*
Y013697D01*
X024330Y013644D01*
X024064D02*
X024010Y013697D01*
X023904D01*
X023850Y013644D01*
Y013431D01*
X023904Y013377D01*
X024010D01*
X024064Y013431D01*
Y013644D01*
X018217Y020063D02*
X018270Y020010D01*
Y019903D01*
X018217Y019850D01*
X018003D01*
X017950Y019903D01*
Y020010D01*
X018003Y020063D01*
X017950Y020170D02*
Y020277D01*
Y020223D01*
X018270D01*
X018217Y020170D01*
X018270Y020650D02*
Y020436D01*
X018110D01*
X018163Y020543D01*
Y020596D01*
X018110Y020650D01*
X018003D01*
X017950Y020596D01*
Y020490D01*
X018003Y020436D01*
X019287Y018217D02*
X019340Y018270D01*
X019447D01*
X019500Y018217D01*
Y018003D01*
X019447Y017950D01*
X019340D01*
X019287Y018003D01*
X019180Y017950D02*
X019073D01*
X019127D01*
Y018270D01*
X019180Y018217D01*
X018700Y018270D02*
X018807Y018217D01*
X018914Y018110D01*
Y018003D01*
X018860Y017950D01*
X018754D01*
X018700Y018003D01*
Y018057D01*
X018754Y018110D01*
X018914D01*
X023767Y018713D02*
X023820Y018660D01*
Y018553D01*
X023767Y018500D01*
X023553D01*
X023500Y018553D01*
Y018660D01*
X023553Y018713D01*
X023500Y018820D02*
Y018927D01*
Y018873D01*
X023820D01*
X023767Y018820D01*
X023820Y019086D02*
Y019300D01*
X023767D01*
X023553Y019086D01*
X023500D01*
X024567Y017813D02*
X024620Y017760D01*
Y017653D01*
X024567Y017600D01*
X024353D01*
X024300Y017653D01*
Y017760D01*
X024353Y017813D01*
X024300Y017920D02*
Y018027D01*
Y017973D01*
X024620D01*
X024567Y017920D01*
Y018186D02*
X024620Y018240D01*
Y018346D01*
X024567Y018400D01*
X024513D01*
X024460Y018346D01*
X024407Y018400D01*
X024353D01*
X024300Y018346D01*
Y018240D01*
X024353Y018186D01*
X024407D01*
X024460Y018240D01*
X024513Y018186D01*
X024567D01*
X024460Y018240D02*
Y018346D01*
X012617Y020063D02*
X012670Y020010D01*
Y019903D01*
X012617Y019850D01*
X012403D01*
X012350Y019903D01*
Y020010D01*
X012403Y020063D01*
X012350Y020330D02*
X012670D01*
X012510Y020170D01*
Y020383D01*
X012350Y020490D02*
Y020596D01*
Y020543D01*
X012670D01*
X012617Y020490D01*
X011967Y016563D02*
X012020Y016510D01*
Y016403D01*
X011967Y016350D01*
X011753D01*
X011700Y016403D01*
Y016510D01*
X011753Y016563D01*
X011700Y016830D02*
X012020D01*
X011860Y016670D01*
Y016883D01*
X011967Y016990D02*
X012020Y017043D01*
Y017150D01*
X011967Y017203D01*
X011913D01*
X011860Y017150D01*
Y017096D01*
Y017150D01*
X011807Y017203D01*
X011753D01*
X011700Y017150D01*
Y017043D01*
X011753Y016990D01*
X022920Y018613D02*
Y018400D01*
X022760D01*
Y018507D01*
Y018400D01*
X022600D01*
X022920Y018720D02*
X022600D01*
Y018880D01*
X022653Y018933D01*
X022707D01*
X022760Y018880D01*
Y018720D01*
Y018880D01*
X022813Y018933D01*
X022867D01*
X022920Y018880D01*
Y018720D01*
X022600Y019040D02*
Y019146D01*
Y019093D01*
X022920D01*
X022867Y019040D01*
X014203Y014313D02*
X014417D01*
X014470Y014260D01*
Y014153D01*
X014417Y014100D01*
X014203D01*
X014150Y014153D01*
Y014260D01*
X014257Y014207D02*
X014150Y014313D01*
Y014260D02*
X014203Y014313D01*
X014150Y014420D02*
Y014527D01*
Y014473D01*
X014470D01*
X014417Y014420D01*
X013403Y012813D02*
X013617D01*
X013670Y012760D01*
Y012653D01*
X013617Y012600D01*
X013403D01*
X013350Y012653D01*
Y012760D01*
X013457Y012707D02*
X013350Y012813D01*
Y012760D02*
X013403Y012813D01*
X013617Y012920D02*
X013670Y012973D01*
Y013080D01*
X013617Y013133D01*
X013563D01*
X013510Y013080D01*
Y013027D01*
Y013080D01*
X013457Y013133D01*
X013403D01*
X013350Y013080D01*
Y012973D01*
X013403Y012920D01*
X035350Y021750D02*
Y022070D01*
X035190D01*
X035137Y022017D01*
Y021910D01*
X035190Y021857D01*
X035350D01*
X035243D02*
X035137Y021750D01*
X034870D02*
Y022070D01*
X035030Y021910D01*
X034817D01*
X033250Y023000D02*
Y023320D01*
X033090D01*
X033037Y023267D01*
Y023160D01*
X033090Y023107D01*
X033250D01*
X033143D02*
X033037Y023000D01*
X032717Y023320D02*
X032930D01*
Y023160D01*
X032823Y023213D01*
X032770D01*
X032717Y023160D01*
Y023053D01*
X032770Y023000D01*
X032877D01*
X032930Y023053D01*
X014650Y016250D02*
X014970D01*
Y016410D01*
X014917Y016463D01*
X014810D01*
X014757Y016410D01*
Y016250D01*
Y016357D02*
X014650Y016463D01*
X014703Y016570D02*
X014650Y016623D01*
Y016730D01*
X014703Y016783D01*
X014917D01*
X014970Y016730D01*
Y016623D01*
X014917Y016570D01*
X014863D01*
X014810Y016623D01*
Y016783D01*
X015050Y015300D02*
X015370D01*
Y015460D01*
X015317Y015513D01*
X015210D01*
X015157Y015460D01*
Y015300D01*
Y015407D02*
X015050Y015513D01*
Y015620D02*
Y015727D01*
Y015673D01*
X015370D01*
X015317Y015620D01*
Y015886D02*
X015370Y015940D01*
Y016046D01*
X015317Y016100D01*
X015103D01*
X015050Y016046D01*
Y015940D01*
X015103Y015886D01*
X015317D01*
X015700Y014850D02*
Y015170D01*
X015540D01*
X015487Y015117D01*
Y015010D01*
X015540Y014957D01*
X015700D01*
X015593D02*
X015487Y014850D01*
X015380D02*
X015273D01*
X015327D01*
Y015170D01*
X015380Y015117D01*
X015114Y014850D02*
X015007D01*
X015060D01*
Y015170D01*
X015114Y015117D01*
X016200Y017850D02*
X016520D01*
Y018010D01*
X016467Y018063D01*
X016360D01*
X016307Y018010D01*
Y017850D01*
Y017957D02*
X016200Y018063D01*
Y018170D02*
Y018277D01*
Y018223D01*
X016520D01*
X016467Y018170D01*
X016520Y018650D02*
Y018436D01*
X016360D01*
X016413Y018543D01*
Y018596D01*
X016360Y018650D01*
X016253D01*
X016200Y018596D01*
Y018490D01*
X016253Y018436D01*
X018000Y017850D02*
X018320D01*
Y018010D01*
X018267Y018063D01*
X018160D01*
X018107Y018010D01*
Y017850D01*
Y017957D02*
X018000Y018063D01*
Y018170D02*
Y018277D01*
Y018223D01*
X018320D01*
X018267Y018170D01*
X018320Y018650D02*
X018267Y018543D01*
X018160Y018436D01*
X018053D01*
X018000Y018490D01*
Y018596D01*
X018053Y018650D01*
X018107D01*
X018160Y018596D01*
Y018436D01*
X016200Y019100D02*
X016520D01*
Y019260D01*
X016467Y019313D01*
X016360D01*
X016307Y019260D01*
Y019100D01*
Y019207D02*
X016200Y019313D01*
Y019420D02*
Y019527D01*
Y019473D01*
X016520D01*
X016467Y019420D01*
X016520Y019686D02*
Y019900D01*
X016467D01*
X016253Y019686D01*
X016200D01*
X017200Y019100D02*
X017520D01*
Y019260D01*
X017467Y019313D01*
X017360D01*
X017307Y019260D01*
Y019100D01*
Y019207D02*
X017200Y019313D01*
Y019420D02*
Y019527D01*
Y019473D01*
X017520D01*
X017467Y019420D01*
Y019686D02*
X017520Y019740D01*
Y019846D01*
X017467Y019900D01*
X017413D01*
X017360Y019846D01*
X017307Y019900D01*
X017253D01*
X017200Y019846D01*
Y019740D01*
X017253Y019686D01*
X017307D01*
X017360Y019740D01*
X017413Y019686D01*
X017467D01*
X017360Y019740D02*
Y019846D01*
X016500Y013600D02*
X016820D01*
Y013760D01*
X016767Y013813D01*
X016660D01*
X016607Y013760D01*
Y013600D01*
Y013707D02*
X016500Y013813D01*
X016767Y013920D02*
X016820Y013973D01*
Y014080D01*
X016767Y014133D01*
X016713D01*
X016660Y014080D01*
Y014027D01*
Y014080D01*
X016607Y014133D01*
X016553D01*
X016500Y014080D01*
Y013973D01*
X016553Y013920D01*
X016500Y014400D02*
X016820D01*
X016660Y014240D01*
Y014453D01*
X016250Y012300D02*
X016570D01*
Y012460D01*
X016517Y012513D01*
X016410D01*
X016357Y012460D01*
Y012300D01*
Y012407D02*
X016250Y012513D01*
X016517Y012620D02*
X016570Y012673D01*
Y012780D01*
X016517Y012833D01*
X016463D01*
X016410Y012780D01*
Y012727D01*
Y012780D01*
X016357Y012833D01*
X016303D01*
X016250Y012780D01*
Y012673D01*
X016303Y012620D01*
X016517Y012940D02*
X016570Y012993D01*
Y013100D01*
X016517Y013153D01*
X016463D01*
X016410Y013100D01*
X016357Y013153D01*
X016303D01*
X016250Y013100D01*
Y012993D01*
X016303Y012940D01*
X016357D01*
X016410Y012993D01*
X016463Y012940D01*
X016517D01*
X016410Y012993D02*
Y013100D01*
X027650Y017700D02*
X027970D01*
Y017860D01*
X027917Y017913D01*
X027810D01*
X027757Y017860D01*
Y017700D01*
Y017807D02*
X027650Y017913D01*
X027970Y018020D02*
X027650D01*
Y018180D01*
X027703Y018233D01*
X027917D01*
X027970Y018180D01*
Y018020D01*
X027650Y018340D02*
X027970D01*
X027863Y018446D01*
X027970Y018553D01*
X027650D01*
X027917Y018873D02*
X027970Y018820D01*
Y018713D01*
X027917Y018660D01*
X027703D01*
X027650Y018713D01*
Y018820D01*
X027703Y018873D01*
X027700Y016450D02*
X028020D01*
Y016610D01*
X027967Y016663D01*
X027860D01*
X027807Y016610D01*
Y016450D01*
Y016557D02*
X027700Y016663D01*
X028020Y016770D02*
X027700D01*
Y016930D01*
X027753Y016983D01*
X027967D01*
X028020Y016930D01*
Y016770D01*
X027700Y017090D02*
X028020D01*
X027913Y017196D01*
X028020Y017303D01*
X027700D01*
X028020Y017410D02*
Y017516D01*
Y017463D01*
X027700D01*
Y017410D01*
Y017516D01*
X029000Y017850D02*
X029320D01*
Y018010D01*
X029267Y018063D01*
X029160D01*
X029107Y018010D01*
Y017850D01*
Y017957D02*
X029000Y018063D01*
X029320Y018170D02*
X029000D01*
Y018330D01*
X029053Y018383D01*
X029267D01*
X029320Y018330D01*
Y018170D01*
X029000Y018490D02*
X029320D01*
Y018650D01*
X029267Y018703D01*
X029160D01*
X029107Y018650D01*
Y018490D01*
X029267Y019023D02*
X029320Y018970D01*
Y018863D01*
X029267Y018810D01*
X029053D01*
X029000Y018863D01*
Y018970D01*
X029053Y019023D01*
X029150Y016700D02*
X029470D01*
Y016860D01*
X029417Y016913D01*
X029310D01*
X029257Y016860D01*
Y016700D01*
Y016807D02*
X029150Y016913D01*
X029470Y017020D02*
X029150D01*
Y017180D01*
X029203Y017233D01*
X029417D01*
X029470Y017180D01*
Y017020D01*
X029150Y017340D02*
X029470D01*
Y017500D01*
X029417Y017553D01*
X029310D01*
X029257Y017500D01*
Y017340D01*
X029470Y017660D02*
Y017766D01*
Y017713D01*
X029150D01*
Y017660D01*
Y017766D01*
X020900Y021250D02*
Y021570D01*
X020740D01*
X020687Y021517D01*
Y021410D01*
X020740Y021357D01*
X020900D01*
X020793D02*
X020687Y021250D01*
X020580D02*
X020420D01*
X020367Y021303D01*
X020420Y021357D01*
X020527D01*
X020580Y021410D01*
X020527Y021463D01*
X020367D01*
X020260Y021250D02*
X020154D01*
X020207D01*
Y021570D01*
X020260Y021517D01*
X017950Y018850D02*
X018270D01*
Y019010D01*
X018217Y019063D01*
X018110D01*
X018057Y019010D01*
Y018850D01*
Y018957D02*
X017950Y019063D01*
Y019170D02*
Y019330D01*
X018003Y019383D01*
X018057Y019330D01*
Y019223D01*
X018110Y019170D01*
X018163Y019223D01*
Y019383D01*
X017950Y019703D02*
Y019490D01*
X018163Y019703D01*
X018217D01*
X018270Y019650D01*
Y019543D01*
X018217Y019490D01*
X020370Y018550D02*
X020317D01*
X020210Y018657D01*
X020317Y018763D01*
X020370D01*
X020210Y018657D02*
X020050D01*
X020317Y018870D02*
X020370Y018923D01*
Y019030D01*
X020317Y019083D01*
X020263D01*
X020210Y019030D01*
Y018977D01*
Y019030D01*
X020157Y019083D01*
X020103D01*
X020050Y019030D01*
Y018923D01*
X020103Y018870D01*
D84*
X035600Y024670D02*
Y024457D01*
X035493Y024350D01*
X035387Y024457D01*
Y024670D01*
X035280D02*
X035173D01*
X035227D01*
Y024350D01*
X035280D01*
X035173D01*
X035014D02*
Y024670D01*
X034800Y024350D01*
Y024670D01*
X014550Y020630D02*
Y020950D01*
X014390D01*
X014337Y020897D01*
Y020790D01*
X014390Y020737D01*
X014550D01*
X014443D02*
X014337Y020630D01*
X014070D02*
Y020950D01*
X014230Y020790D01*
X014017D01*
X013910Y020683D02*
X013857Y020630D01*
X013750D01*
X013697Y020683D01*
Y020897D01*
X013750Y020950D01*
X013857D01*
X013910Y020897D01*
Y020843D01*
X013857Y020790D01*
X013697D01*
X011850Y021050D02*
X011743D01*
X011797D01*
Y021370D01*
X011850Y021317D01*
X011583Y021370D02*
Y021157D01*
X011477Y021050D01*
X011370Y021157D01*
Y021370D01*
X011264Y021317D02*
X011210Y021370D01*
X011104D01*
X011050Y021317D01*
Y021263D01*
X011104Y021210D01*
X011050Y021157D01*
Y021103D01*
X011104Y021050D01*
X011210D01*
X011264Y021103D01*
Y021157D01*
X011210Y021210D01*
X011264Y021263D01*
Y021317D01*
X011210Y021210D02*
X011104D01*
X034387Y024617D02*
X034440Y024670D01*
X034547D01*
X034600Y024617D01*
Y024563D01*
X034547Y024510D01*
X034440D01*
X034387Y024457D01*
Y024403D01*
X034440Y024350D01*
X034547D01*
X034600Y024403D01*
X034067Y024617D02*
X034120Y024670D01*
X034227D01*
X034280Y024617D01*
Y024403D01*
X034227Y024350D01*
X034120D01*
X034067Y024403D01*
X033960Y024670D02*
Y024350D01*
X033747D01*
X033487Y024617D02*
X033540Y024670D01*
X033647D01*
X033700Y024617D01*
Y024563D01*
X033647Y024510D01*
X033540D01*
X033487Y024457D01*
Y024403D01*
X033540Y024350D01*
X033647D01*
X033700Y024403D01*
X033380Y024670D02*
Y024350D01*
X033220D01*
X033167Y024403D01*
Y024617D01*
X033220Y024670D01*
X033380D01*
X033060Y024350D02*
Y024563D01*
X032954Y024670D01*
X032847Y024563D01*
Y024350D01*
Y024510D01*
X033060D01*
D162*
X019047Y016974D02*
G03*
X019047Y016974I-000049J000000D01*
G01*
D163*
X019451Y016167D02*
G03*
X019451Y016167I-000118J000000D01*
G01*
M02*
